<svg width="24" height="25" viewBox="0 0 24 25" fill="none" xmlns="http://www.w3.org/2000/svg">
<g clip-path="url(#clip0_861_4148)">
<path d="M14.4301 19.5477C14.2401 19.5477 14.0501 19.4777 13.9001 19.3277C13.6101 19.0377 13.6101 18.5577 13.9001 18.2677L19.4401 12.7277L13.9001 7.18766C13.6101 6.89766 13.6101 6.41766 13.9001 6.12766C14.1901 5.83766 14.6701 5.83766 14.9601 6.12766L21.0301 12.1977C21.3201 12.4877 21.3201 12.9677 21.0301 13.2577L14.9601 19.3277C14.8101 19.4777 14.6201 19.5477 14.4301 19.5477Z" fill="#006666"/>
<path d="M20.33 13.4775H3.5C3.09 13.4775 2.75 13.1375 2.75 12.7275C2.75 12.3175 3.09 11.9775 3.5 11.9775H20.33C20.74 11.9775 21.08 12.3175 21.08 12.7275C21.08 13.1375 20.74 13.4775 20.33 13.4775Z" fill="#006666"/>
</g>
<defs>
<clipPath id="clip0_861_4148">
<rect width="24" height="24" fill="white" transform="matrix(-1 0 0 1 24 0.727539)"/>
</clipPath>
</defs>
</svg>
