<svg width="264" height="201" viewBox="0 0 264 201" fill="none" xmlns="http://www.w3.org/2000/svg">
<path d="M91.3012 194.397C66.789 192.444 41.7275 179.419 31.9823 156.756C28.1376 147.827 26.9292 137.353 30.7426 128.408C35.6387 116.895 47.628 110.139 59.382 105.965C71.1359 101.792 83.7215 99.2245 94.0788 92.2476C120.929 74.199 118.293 45.8662 144.563 26.9671C159.643 16.1159 181.456 15.108 196.835 25.5339C212.214 35.9599 221.489 53.0635 214.286 70.2144C210.159 80.0577 205.529 81.4909 208.04 91.8696C209.656 98.5945 215.62 103.414 221.881 106.327C228.127 109.241 234.969 110.769 241.12 113.887C256.594 121.699 266.088 139.968 263.608 157.182C261.129 174.38 246.88 189.215 229.837 192.318C216.765 194.696 203.725 190.727 191.406 186.648C182.037 183.546 171.68 177.687 161.731 180.727C138.223 187.908 116.614 196.429 91.3012 194.397Z" fill="#DAE2EB"/>
<path d="M206.109 129.858C206.109 129.958 206.109 130.058 206.109 130.259C206.513 144.924 204.997 156.374 202.471 165.313L194.892 170.034L201.157 169.029H201.36C197.924 178.872 193.276 185.2 188.829 189.218C186.101 191.729 183.373 193.436 181.251 194.541C181.15 194.641 180.948 194.641 180.847 194.742C180.543 194.943 180.139 195.043 179.836 195.244L175.693 195.445C175.592 195.244 175.592 195.043 175.491 194.842C175.491 194.742 175.39 194.641 175.39 194.44C175.39 194.24 175.289 194.139 175.289 193.938C170.337 174.955 176.602 159.789 184.686 149.042C184.686 149.042 184.686 148.941 184.787 148.941C187.617 145.225 190.648 142.011 193.579 139.299L195.398 144.02L195.701 137.491C200.753 133.172 204.997 130.661 206.008 130.058C206.008 129.958 206.109 129.858 206.109 129.858Z" fill="#7AC8AC"/>
<path d="M206.21 129.96L206.109 130.262L197.419 148.14L197.318 148.441L194.994 153.363L194.893 153.463L187.415 169.132L175.188 194.443L174.986 194.844L174.683 195.447H174.38L174.683 194.844L175.087 194.041L187.112 168.931L187.314 168.529L205.806 129.96L205.907 129.759L206.21 129.96Z" fill="white"/>
<path d="M205.506 146.061L205.678 146.309L195.023 153.598L194.851 153.349L205.506 146.061Z" fill="white"/>
<path d="M205.609 142.602L205.781 142.85L197.372 148.599L197.2 148.351L205.609 142.602Z" fill="white"/>
<path d="M184.812 149.025L187.437 169.145L187.136 169.184L184.511 149.063L184.812 149.025Z" fill="white"/>
<path d="M173.773 198.658C173.773 198.658 183.676 203.278 197.823 194.942L193.276 192.732L200.753 193.033C206.311 189.217 212.374 183.391 218.639 174.552L216.921 173.749L219.144 173.849C220.155 172.343 221.266 170.736 222.378 169.028C222.378 169.028 218.235 168.626 212.273 169.329L209.242 173.448L210.151 169.631C197.924 171.539 180.24 177.867 173.773 198.658Z" fill="#7AC8AC"/>
<path d="M222.228 168.99L222.381 169.25L173.087 197.885L172.934 197.625L222.228 168.99Z" fill="white"/>
<path d="M209.492 176.499L216.528 177.22L216.497 177.52L209.461 176.799L209.492 176.499Z" fill="white"/>
<path d="M206.105 178.446L214.362 179.908L214.309 180.205L206.051 178.742L206.105 178.446Z" fill="white"/>
<path d="M185.394 180.681L185.192 180.379C189.335 176.764 194.387 173.851 200.147 171.943L200.248 172.244C194.488 174.253 189.537 177.065 185.394 180.681Z" fill="#282D46"/>
<path d="M92.1639 125.747C91.5676 125.731 90.218 124.66 90.218 124.66L88.7272 124.849L87.9111 125.573L90.0297 126.266C90.0297 126.266 90.6574 127.574 89.4804 127.385C88.3034 127.196 87.048 127.07 87.048 127.07L85.4003 126.881L83.6898 127.101L83.3916 124.723L85.2904 124.471L87.9111 123.258C88.2878 123.337 88.6644 123.369 89.041 123.337C89.7629 123.29 90.4691 123.495 91.0026 123.951C91.4577 124.345 91.9599 124.676 92.4934 124.943C92.4777 124.943 92.7602 125.762 92.1639 125.747Z" fill="#F5FCFF"/>
<path d="M83.6424 124.408L73.6932 126.062L68.028 114.029L63.0063 118.203L69.9583 130.314L84.38 127.007L83.6424 124.408Z" fill="#006666"/>
<path d="M66.1453 193.987L65.6274 197.295L61.6729 198.759L61.8141 195.027L66.1453 193.987Z" fill="#FCB47E"/>
<path d="M61.5159 200.003C61.2021 199.483 60.747 197.83 61.2805 197.042C62.175 197.263 63.964 196.617 66.3179 196.16L72.2498 198.711C72.2812 198.743 72.344 198.79 72.4224 198.853C72.5793 198.995 72.6264 199.121 72.6264 199.168C72.6264 199.2 72.3597 199.562 72.2969 199.625L61.5159 200.003Z" fill="#282828"/>
<path d="M75.5924 194.224L75.6865 197.295L71.7319 198.76L71.8575 195.027L75.5924 194.224Z" fill="#FCB47E"/>
<path d="M71.575 200.003C71.2611 199.483 70.806 197.83 71.3396 197.042C72.2341 197.263 74.0231 196.617 76.377 196.16L82.3089 198.711C82.3403 198.743 82.403 198.79 82.4815 198.853C82.6384 198.995 82.6855 199.121 82.6855 199.168C82.6855 199.2 82.4187 199.562 82.356 199.625L71.575 200.003Z" fill="#282828"/>
<path d="M61.2334 195.153H66.3493L69.4721 174.883L69.7389 172.867L69.9586 171.198L70.7119 160.977L71.2768 156.992L73.2227 143.023L61.9082 142.298L62.6771 171.025L61.2334 195.153Z" fill="#7AC8AC"/>
<path opacity="0.47" d="M65.5488 149.371L69.1425 176.948L69.7388 172.869L70.0997 169.152L65.5488 149.371Z" fill="#162F54"/>
<path d="M63.0063 141.338L65.5486 149.37L70.0524 171.529L71.4648 195.468L76.1255 195.31L77.2083 171.954L74.5876 141.999L63.0063 141.338Z" fill="#7AC8AC"/>
<path d="M61.3901 113.414C63.085 115.115 65.7998 114.517 67.3063 113.414C67.2122 113.115 67.4162 111.698 67.4476 111.288C67.4476 111.225 67.4476 111.178 67.4633 111.131C67.4633 111.099 67.4633 111.068 67.4789 111.036C67.5103 110.816 67.526 110.658 67.5731 110.501C67.5888 110.438 67.6202 110.375 67.6359 110.296C67.6359 110.28 67.6516 110.265 67.6516 110.233C67.683 110.154 67.6987 110.076 67.7457 109.997C67.7614 109.965 67.7614 109.95 67.7771 109.918C67.7928 109.871 67.8085 109.824 67.8242 109.792C67.8556 109.729 67.887 109.65 67.9183 109.587C67.6202 109.603 67.3063 109.603 66.9925 109.556C66.9297 109.556 66.8826 109.54 66.8198 109.54C66.8198 109.54 66.8199 109.54 66.8042 109.54C66.302 109.477 65.4389 109.146 64.6072 108.784C64.4345 108.705 64.2462 108.627 64.0736 108.548C63.1791 108.138 62.4416 107.776 62.4416 107.776C62.4416 107.808 62.4416 107.823 62.4416 107.855C62.4259 108.012 62.3945 108.154 62.3631 108.296C62.2846 108.674 61.6412 113.21 61.3901 113.414Z" fill="#FCB47E"/>
<path opacity="0.5" d="M64.1831 107.667V107.934L64.4028 108.407L64.5911 108.801L64.8108 109.242C64.8108 109.242 66.0192 110.36 67.4001 111.431C67.4158 111.399 67.4315 111.368 67.4315 111.336C67.4315 111.336 67.4315 111.321 67.4472 111.321C67.4472 111.258 67.4472 111.21 67.4629 111.163C67.4629 111.132 67.4629 111.1 67.4786 111.069C67.51 110.848 67.5257 110.691 67.5728 110.533C67.8395 110.628 68.0749 110.706 68.3103 110.754C68.4986 110.754 68.6713 110.722 68.8439 110.659C68.6399 110.549 68.3888 110.407 68.122 110.265C67.9965 110.202 67.8709 110.124 67.7454 110.045C67.5728 109.95 67.4001 109.84 67.2118 109.73C67.1334 109.683 67.0549 109.635 66.9921 109.604C66.0819 109.068 65.1561 108.486 64.6225 108.076C64.4028 107.871 64.2616 107.745 64.1831 107.667Z" fill="#4D4D4D"/>
<path d="M63.8384 108.675C63.8384 108.675 64.2307 108.912 64.827 109.227C65.5803 109.636 66.6317 110.172 67.5733 110.502C67.8401 110.597 68.0754 110.675 68.3108 110.723C68.5619 110.786 68.7816 110.817 68.9699 110.801C69.3309 110.801 69.6761 110.707 69.9743 110.502C70.2097 110.345 70.4137 110.093 70.5863 109.762C71.9516 106.911 70.8531 101.1 70.8531 101.1L66.8043 101.919L64.7015 104.313L64.6073 108.03V108.297L64.419 108.392L64.0895 108.549L63.8384 108.675Z" fill="#FCB47E"/>
<path d="M71.669 100.894C71.4336 101.005 71.1669 101.083 70.9158 101.162C69.4407 101.619 67.5418 101.824 67.3849 103.713C67.3378 104.249 67.4163 104.769 67.4477 105.304C67.4634 105.525 67.3849 105.745 67.4006 105.966C67.4006 106.107 67.4634 106.312 67.3221 106.407C67.1809 106.485 67.0553 106.328 67.0083 106.218C66.8043 105.714 66.6159 105.178 66.4276 104.674C66.3806 104.564 66.3492 104.375 66.2707 104.28C66.2079 104.217 66.0824 104.154 66.0039 104.107C65.7842 103.965 65.5331 103.918 65.2821 104.028C64.9996 104.17 64.8427 104.501 64.8897 104.832C64.9525 105.257 65.2978 105.477 65.3134 105.871C65.3448 106.359 65.2036 106.879 65.0467 107.336C64.7956 108.092 64.3876 108.832 63.7599 109.32C63.3675 109.619 62.9281 109.793 62.4417 109.871C62.3004 109.887 62.1121 109.966 62.0023 109.856C61.8453 109.714 61.9395 109.367 61.9709 109.194C62.2063 108.107 62.1906 107.005 61.9866 105.918C61.8924 105.477 61.8924 105.021 61.8139 104.564C61.7041 103.997 61.5942 103.43 61.4844 102.863C61.4059 102.501 61.3432 102.123 61.3902 101.745C61.453 101.225 61.9395 100.973 61.9552 100.501C61.9709 99.9809 62.065 99.5241 62.4417 99.1462C62.9124 98.6894 63.5402 98.5005 64.2149 98.4217C64.7799 98.343 65.3605 98.3587 65.8627 98.3587C67.84 98.3587 69.9742 98.5005 71.9044 98.9414C72.1241 98.9887 72.3595 99.0674 72.5007 99.2249C72.7675 99.5241 72.6734 100.012 72.438 100.327C72.234 100.579 71.9672 100.753 71.669 100.894Z" fill="#282828"/>
<path d="M72.077 144.835C68.6716 145.433 65.4232 144.236 62.2533 144.315C61.908 144.315 61.6255 144.126 61.5628 143.732C61.7511 137.196 61.2332 130.219 59.6169 123.038C59.5698 122.754 59.5227 122.455 59.4756 122.171C58.9892 118.707 59.4913 116.045 61.3902 113.336C63.5872 113.698 65.7214 113.698 67.7614 113.336C69.1267 114.864 70.2566 116.833 71.1354 120.518C71.5434 122.187 74.2269 142.913 75.2626 143.795C75.5294 144.031 73.7404 144.535 72.077 144.835Z" fill="#006666"/>
<path d="M90.7355 128.99C90.7983 128.628 90.814 127.904 89.9666 128.203C88.8524 128.581 87.6441 128.912 87.6441 128.912L86.0748 129.368L84.3643 129.447L84.6153 131.731L85.8865 131.794L88.1148 131.935C89.9195 132.109 90.61 131.888 92.3519 131.243C93.0738 130.975 93.4504 131.306 93.6544 130.565C93.7015 130.361 93.6073 130.124 93.4033 130.124C93.2464 130.109 93.1052 130.235 92.9639 130.266C92.5245 130.345 92.2107 130.219 91.787 130.313C91.3946 130.392 89.998 130.439 89.6214 130.313C89.4644 130.266 88.617 130.392 88.821 130.187C88.8995 130.124 89.0407 130.077 89.1192 130.03C89.6214 129.762 90.1235 129.494 90.6257 129.242C90.6414 129.242 90.6571 129.227 90.6571 129.227C90.7042 129.195 90.7198 129.116 90.7355 128.99Z" fill="#FCB47E"/>
<path d="M69.8485 133.054C68.4204 133.18 67.0395 132.44 66.3647 131.164L60.5897 120.265C59.8678 118.911 60.0091 117.242 60.9977 116.076C61.5784 115.399 62.4258 114.848 63.6027 114.879C65.1092 114.911 66.4274 115.934 66.9453 117.352L70.586 127.148L85.0548 129.179V132.172L69.8485 133.054Z" fill="#006666"/>
<path d="M63.6187 114.896C64.2307 114.849 64.8898 114.99 65.4547 115.305C66.0197 115.605 66.5218 116.061 66.8671 116.628C66.9612 116.77 67.0397 116.912 67.1025 117.053L67.1966 117.274L67.2908 117.494L67.636 118.361C67.8714 118.943 68.0754 119.51 68.3108 120.093C68.7502 121.259 69.1739 122.424 69.5662 123.589C69.9585 124.771 70.3509 125.936 70.6961 127.133L70.6176 127.07C71.01 127.149 71.4023 127.243 71.7789 127.338C71.3866 127.322 70.9786 127.29 70.5863 127.275H70.5392L70.5078 127.212C69.9899 126.078 69.5192 124.928 69.0641 123.778C68.609 122.629 68.1696 121.463 67.7302 120.298C67.5262 119.715 67.3065 119.132 67.1025 118.55L66.8043 117.668L66.7258 117.447L66.6474 117.242C66.5846 117.116 66.5375 116.975 66.459 116.849C65.9098 115.809 64.8584 115.038 63.6187 114.896Z" fill="#282D46"/>
<path d="M72.5319 132.928C71.7315 133.006 70.9469 133.054 70.1466 133.117C69.9426 133.132 69.7542 133.148 69.5502 133.164C69.3462 133.164 69.1422 133.164 68.9382 133.132C68.5302 133.069 68.1222 132.943 67.7612 132.754C67.4003 132.565 67.0551 132.298 66.7726 131.998C66.6314 131.841 66.5058 131.683 66.3803 131.51C66.3175 131.416 66.2704 131.337 66.2234 131.242L66.0821 130.975C65.6898 130.266 65.3289 129.557 64.9522 128.864L63.838 126.738C63.4771 126.029 63.1005 125.321 62.7395 124.596C62.0177 123.163 61.3115 121.73 60.6367 120.281C61.4527 121.651 62.2531 123.053 63.022 124.455C63.4143 125.148 63.791 125.856 64.1833 126.565L65.3132 128.691C65.6898 129.4 66.0664 130.109 66.4274 130.817L66.5686 131.085C66.6157 131.164 66.6628 131.258 66.7098 131.337C66.8197 131.494 66.9295 131.652 67.0551 131.794C67.3062 132.077 67.6043 132.329 67.9339 132.518C68.2634 132.707 68.6244 132.849 69.001 132.928C69.1893 132.975 69.3776 132.991 69.5816 132.991C69.7699 132.991 69.9739 132.991 70.1779 132.991C70.9312 132.943 71.7315 132.928 72.5319 132.928Z" fill="#282D46"/>
<path d="M82.5444 129.683H100.293L102.71 118.36C102.804 117.903 102.474 117.462 102.035 117.462H85.7144C85.3848 117.462 85.1024 117.698 85.0396 118.029L82.5444 129.683Z" fill="#282828"/>
<path d="M76.9109 130.361H99.7597C100.058 130.361 100.293 130.125 100.293 129.825V129.668H76.3931V129.825C76.3931 130.125 76.6285 130.361 76.9109 130.361Z" fill="#282828"/>
<path d="M93.1372 125.228C94.0038 125.228 94.7064 124.487 94.7064 123.574C94.7064 122.661 94.0038 121.92 93.1372 121.92C92.2705 121.92 91.5679 122.661 91.5679 123.574C91.5679 124.487 92.2705 125.228 93.1372 125.228Z" fill="#F2F2F2"/>
<path d="M26.6155 157.875L4.19043 176.554L28.4672 188.508L52.744 176.554L30.319 157.875C29.2519 156.994 27.6983 156.994 26.6155 157.875Z" fill="#006666"/>
<path d="M45.7132 189.893H12.6014C11.2518 189.893 10.1533 188.79 10.1533 187.436V166.159C10.1533 164.804 11.2518 163.702 12.6014 163.702H45.7132C47.0628 163.702 48.1613 164.804 48.1613 166.159V187.436C48.177 188.79 47.0785 189.893 45.7132 189.893Z" fill="#F2F2F2"/>
<path d="M30.5385 173.342H15.8814C15.3792 173.342 14.9712 172.932 14.9712 172.428C14.9712 171.925 15.3792 171.515 15.8814 171.515H30.5385C31.0406 171.515 31.4487 171.925 31.4487 172.428C31.4487 172.932 31.0406 173.342 30.5385 173.342Z" fill="#D6D9E5"/>
<path d="M42.4493 178.397H15.8814C15.3792 178.397 14.9712 177.987 14.9712 177.483C14.9712 176.979 15.3792 176.57 15.8814 176.57H42.4493C42.9515 176.57 43.3595 176.979 43.3595 177.483C43.3595 177.987 42.9515 178.397 42.4493 178.397Z" fill="#D6D9E5"/>
<path d="M42.4493 183.468H15.8814C15.3792 183.468 14.9712 183.059 14.9712 182.555C14.9712 182.051 15.3792 181.642 15.8814 181.642H42.4493C42.9515 181.642 43.3595 182.051 43.3595 182.555C43.3595 183.043 42.9515 183.468 42.4493 183.468Z" fill="#D6D9E5"/>
<path d="M4.19043 176.57L28.4672 188.523L52.7597 176.57V200.004H4.19043V176.57Z" fill="#006666"/>
<path d="M50.2269 168.054C52.3718 165.901 52.3718 162.411 50.2269 160.259C48.082 158.106 44.6043 158.106 42.4594 160.259C40.3145 162.411 40.3145 165.901 42.4594 168.054C44.6043 170.207 48.082 170.207 50.2269 168.054Z" fill="#7AC8AC"/>
<path d="M46.7965 161.656V166.664H46.0903V162.27H44.9604V161.641H46.7965V161.656Z" fill="white"/>
<path d="M80.8336 64.1824L74.8233 55.8038C74.4309 55.2526 73.6777 55.1266 73.1284 55.5203L72.6106 55.8983L70.3979 52.843C67.636 49.0002 62.2847 48.1182 58.4557 50.8901C54.6266 53.6619 53.7478 59.0324 56.5098 62.8752L58.6911 65.9306L58.1732 66.3085C57.6239 66.7023 57.4984 67.4582 57.8907 68.0094L63.9011 76.388C64.2934 76.9393 65.0466 77.0652 65.5959 76.6715L80.5355 65.8833C81.1004 65.4896 81.2259 64.7336 80.8336 64.1824ZM58.1104 61.7255C55.9919 58.7647 56.6667 54.6226 59.6012 52.4965C62.5515 50.3703 66.6787 51.0476 68.7972 53.9927L70.9785 57.048L60.2917 64.7809L58.1104 61.7255Z" fill="#7AC8AC"/>
<path d="M70.2415 65.9769C70.5867 65.3626 70.5553 64.5909 70.1316 63.9767C69.5353 63.142 68.374 62.953 67.5423 63.5515C66.7106 64.15 66.5223 65.3154 67.1186 66.1501C67.558 66.7643 68.2799 67.0163 68.9703 66.8903L69.7236 69.048C69.8177 69.2999 70.1316 69.4102 70.3513 69.2527L71.183 68.6542L72.0147 68.0558C72.2344 67.8983 72.2501 67.5675 72.0304 67.3943L70.2415 65.9769Z" fill="#4F5A80"/>
<path d="M130.596 22.7614C130.517 22.7614 130.454 22.7614 130.376 22.7456L115.735 20.3517C114.997 20.2257 114.495 19.5328 114.62 18.7926L115.954 10.5715C116.017 10.2092 116.205 9.89426 116.503 9.68952C116.802 9.48478 117.147 9.39028 117.508 9.45328L117.649 9.48478L118.073 6.85466C118.716 2.88586 122.467 0.176998 126.421 0.822716C128.336 1.1377 130.015 2.17715 131.145 3.76782C132.275 5.35849 132.73 7.27989 132.416 9.20129L131.992 11.8314L132.134 11.8629C132.494 11.9259 132.808 12.1149 133.012 12.4141C133.216 12.7134 133.31 13.0599 133.248 13.4221L131.914 21.6432C131.851 22.0054 131.663 22.3204 131.365 22.5251C131.145 22.6669 130.878 22.7614 130.596 22.7614ZM117.272 10.1777C117.147 10.1777 117.021 10.225 116.911 10.288C116.786 10.3825 116.692 10.5242 116.66 10.6817L115.326 18.9028C115.279 19.2335 115.499 19.5485 115.829 19.6115L130.47 22.0054C130.627 22.0369 130.8 21.9896 130.925 21.8952C131.051 21.8007 131.145 21.6589 131.176 21.5014L132.51 13.2803C132.542 13.1228 132.494 12.9496 132.4 12.8236C132.306 12.6976 132.165 12.6031 132.008 12.5716L131.129 12.4299L131.678 9.0753C132.259 5.50023 129.842 2.1299 126.28 1.54718C122.718 0.96446 119.36 3.38984 118.779 6.96491L118.23 10.3195L117.351 10.1777C117.335 10.1777 117.304 10.1777 117.272 10.1777Z" fill="#DAE2EB"/>
<path d="M124.397 19.109C124.366 19.109 124.318 19.109 124.287 19.0933L122.655 18.8255C122.435 18.794 122.247 18.6523 122.153 18.4633C122.043 18.2586 122.043 18.0381 122.137 17.8333L122.796 16.4317C122.373 16.0064 122.153 15.3922 122.263 14.7937C122.341 14.3055 122.608 13.8645 123.016 13.5811C123.424 13.2818 123.91 13.1716 124.413 13.2503C125.433 13.4236 126.123 14.3843 125.95 15.408C125.856 16.0222 125.464 16.5262 124.915 16.7939L125.103 18.3373C125.134 18.5578 125.056 18.7783 124.899 18.9358C124.758 19.0303 124.585 19.109 124.397 19.109ZM122.812 18.1011L124.35 18.3531L124.099 16.2584L124.397 16.1639C124.821 16.0379 125.134 15.6914 125.197 15.2505C125.291 14.6362 124.883 14.0535 124.271 13.9433C123.973 13.896 123.675 13.959 123.424 14.148C123.173 14.3213 123.016 14.589 122.969 14.8882C122.906 15.3135 123.079 15.7544 123.44 16.0064L123.706 16.1797L122.812 18.1011Z" fill="#DAE2EB"/>
<path d="M130.298 12.2881L119.077 10.4612L119.626 7.10664C120.129 4.00405 123.063 1.89365 126.155 2.39763C129.246 2.9016 131.349 5.8467 130.847 8.9493L130.298 12.2881ZM119.94 9.847L129.701 11.4377L130.125 8.80755C130.564 6.11444 128.728 3.54732 126.045 3.10634C123.361 2.66536 120.803 4.50802 120.38 7.20114L119.94 9.847Z" fill="#DAE2EB"/>
<path d="M257.896 200.728H0.6591C0.298165 200.728 0 200.444 0 200.097C0 199.751 0.298165 199.467 0.6591 199.467H257.911C258.272 199.467 258.571 199.751 258.571 200.097C258.555 200.428 258.257 200.728 257.896 200.728Z" fill="#282D46"/>
<path d="M237.652 166.032H234.859L234.56 163.055C234.513 163.039 234.451 163.024 234.404 163.008L232.426 165.244L230.166 163.59L231.673 161.008C231.642 160.96 231.61 160.913 231.579 160.866L228.66 161.496L227.797 158.818L230.527 157.622C230.527 157.59 230.527 157.559 230.527 157.543C230.527 157.511 230.527 157.48 230.527 157.464L227.797 156.267L228.66 153.59L231.579 154.22C231.61 154.172 231.642 154.125 231.673 154.078L230.166 151.495L232.426 149.841L234.404 152.078C234.466 152.062 234.513 152.046 234.56 152.031L234.859 149.054H237.652L237.95 152.031C237.997 152.046 238.06 152.062 238.107 152.078L240.084 149.841L242.344 151.495L240.838 154.078C240.869 154.125 240.9 154.172 240.932 154.22L243.851 153.59L244.714 156.267L241.983 157.464C241.983 157.496 241.983 157.527 241.983 157.543C241.983 157.574 241.983 157.606 241.983 157.622L244.714 158.818L243.851 161.496L240.932 160.866C240.9 160.913 240.869 160.96 240.838 161.008L242.344 163.59L240.084 165.244L238.107 163.008C238.044 163.024 237.997 163.039 237.95 163.055L237.652 166.032ZM235.125 165.732H237.385L237.668 162.819L237.762 162.787C237.872 162.756 237.982 162.724 238.091 162.677L238.186 162.646L240.116 164.819L241.952 163.48L240.477 160.96L240.539 160.882C240.602 160.803 240.665 160.708 240.728 160.63V160.488L243.662 161.134L244.368 158.976L241.701 157.795V157.7C241.701 157.637 241.701 157.59 241.701 157.527C241.701 157.464 241.701 157.417 241.701 157.354V157.259L244.368 156.078L243.662 153.92L240.728 154.566V154.424C240.665 154.346 240.618 154.267 240.539 154.172L240.477 154.094L241.952 151.574L240.116 150.235L238.186 152.409L238.091 152.377C237.966 152.33 237.856 152.298 237.762 152.267L237.668 152.235L237.385 149.322H235.125L234.843 152.235L234.749 152.267C234.639 152.298 234.529 152.33 234.419 152.377L234.325 152.409L232.395 150.235L230.559 151.574L232.034 154.094L231.971 154.172C231.908 154.251 231.846 154.346 231.783 154.424V154.566L228.848 153.92L228.142 156.078L230.81 157.259V157.354C230.81 157.417 230.81 157.464 230.81 157.527C230.81 157.59 230.81 157.637 230.81 157.7V157.795L228.142 158.976L228.848 161.134L231.783 160.488V160.63C231.846 160.708 231.893 160.787 231.971 160.882L232.034 160.96L230.559 163.48L232.395 164.819L234.325 162.646L234.419 162.677C234.545 162.724 234.655 162.756 234.749 162.787L234.843 162.819L235.125 165.732ZM236.255 161.134C234.278 161.134 232.677 159.527 232.677 157.543C232.677 155.558 234.278 153.952 236.255 153.952C238.233 153.952 239.833 155.558 239.833 157.543C239.833 159.511 238.217 161.134 236.255 161.134ZM236.255 154.235C234.451 154.235 232.976 155.716 232.976 157.527C232.976 159.338 234.451 160.819 236.255 160.819C238.06 160.819 239.535 159.338 239.535 157.527C239.535 155.716 238.06 154.235 236.255 154.235Z" fill="#7AC8AC"/>
<path d="M245.781 172.331H244.337L244.196 170.961L243.286 171.985L242.124 171.134L242.815 169.953L241.481 170.252L241.042 168.882L242.297 168.331L241.042 167.78L241.481 166.41L242.815 166.709L242.124 165.528L243.286 164.677L244.196 165.701L244.337 164.331H245.781L245.922 165.701L246.832 164.677L247.993 165.528L247.303 166.709L248.637 166.41L249.076 167.78L247.821 168.331L249.076 168.882L248.637 170.252L247.303 169.953L247.993 171.134L246.832 171.985L245.922 170.961L245.781 172.331ZM244.619 172.032H245.53L245.655 170.709L245.749 170.678C245.796 170.662 245.844 170.646 245.906 170.63L246 170.599L246.879 171.591L247.617 171.056L246.942 169.906L247.005 169.827C247.02 169.796 247.052 169.764 247.068 169.733V169.717L247.162 169.622L248.449 169.906L248.731 169.04L247.507 168.504V168.41C247.507 168.378 247.507 168.362 247.507 168.331C247.507 168.299 247.507 168.284 247.507 168.252V168.158L248.731 167.622L248.449 166.756L247.162 167.04L247.068 166.945V166.929C247.052 166.898 247.02 166.866 247.005 166.835L246.942 166.756L247.617 165.606L246.879 165.071L246 166.063L245.906 166.032C245.859 166.016 245.812 166 245.749 165.984L245.655 165.953L245.53 164.63H244.619L244.494 165.953L244.4 165.984C244.353 166 244.306 166.016 244.243 166.032L244.149 166.063L243.27 165.071L242.532 165.606L243.207 166.756L243.144 166.835C243.129 166.866 243.097 166.898 243.082 166.929V166.945L242.987 167.04L241.701 166.756L241.418 167.622L242.642 168.158V168.252C242.642 168.284 242.642 168.299 242.642 168.331C242.642 168.362 242.642 168.378 242.642 168.41V168.504L241.418 169.04L241.701 169.906L242.987 169.622L243.082 169.717V169.733C243.097 169.764 243.129 169.796 243.144 169.827L243.207 169.906L242.532 171.056L243.27 171.591L244.149 170.599L244.243 170.63C244.29 170.646 244.337 170.662 244.4 170.678L244.494 170.709L244.619 172.032ZM245.059 170.063C244.102 170.063 243.317 169.276 243.317 168.315C243.317 167.355 244.102 166.567 245.059 166.567C246.016 166.567 246.801 167.355 246.801 168.315C246.801 169.276 246.016 170.063 245.059 170.063ZM245.059 166.866C244.259 166.866 243.615 167.512 243.615 168.315C243.615 169.118 244.259 169.764 245.059 169.764C245.859 169.764 246.503 169.118 246.503 168.315C246.503 167.512 245.859 166.866 245.059 166.866Z" fill="#7AC8AC"/>
<path d="M109.003 48.4795C108.642 48.4795 108.312 48.259 108.155 47.9125L104.718 39.5812C104.53 39.1087 104.75 38.5732 105.205 38.3843C105.676 38.1953 106.209 38.4157 106.398 38.8725L109.834 47.2038C110.023 47.6763 109.803 48.2118 109.348 48.4007C109.238 48.4637 109.112 48.4795 109.003 48.4795Z" fill="#DAE2EB"/>
<path d="M106.099 52.1655C105.895 52.1655 105.691 52.1025 105.519 51.9608L93.1686 41.9285C92.7763 41.6135 92.7135 41.0308 93.0273 40.6371C93.3412 40.2434 93.9218 40.1804 94.3142 40.4953L106.664 50.5276C107.057 50.8426 107.119 51.4253 106.806 51.819C106.633 52.0553 106.366 52.1655 106.099 52.1655Z" fill="#DAE2EB"/>
<path d="M103.29 55.1571C103.228 55.1571 103.149 55.1414 103.071 55.1256L95.5852 53.3302C95.0988 53.22 94.8006 52.716 94.9104 52.2278C95.0203 51.7395 95.5225 51.4403 96.0089 51.5505L103.494 53.346C103.981 53.4562 104.279 53.9602 104.169 54.4484C104.075 54.8736 103.698 55.1571 103.29 55.1571Z" fill="#DAE2EB"/>
<path d="M177.376 60.9388V190.712C177.376 195.846 173.233 200.02 168.101 200.02H117.178C112.062 200.02 107.904 195.862 107.904 190.712V60.9388C107.904 55.8045 112.047 51.631 117.178 51.631H168.101C173.217 51.631 177.376 55.8045 177.376 60.9388Z" fill="#282D46"/>
<path d="M168.478 194.555H116.786C113.491 194.555 110.807 191.878 110.807 188.554V61.5213C110.807 58.214 113.475 55.5209 116.786 55.5209H168.478C171.774 55.5209 174.457 58.1982 174.457 61.5213V188.554C174.457 191.878 171.789 194.555 168.478 194.555Z" fill="#006666"/>
<path d="M164.178 74.8126H121.102C118.858 74.8126 117.021 72.9857 117.021 70.7178C117.021 68.4657 118.842 66.623 121.102 66.623H164.178C166.422 66.623 168.259 68.45 168.259 70.7178C168.243 72.97 166.422 74.8126 164.178 74.8126Z" fill="#E2E4F9"/>
<path d="M162.719 71.7593C162.311 71.7593 161.934 71.6018 161.636 71.3183C161.354 71.0349 161.197 70.6411 161.197 70.2317C161.197 69.8222 161.354 69.4442 161.636 69.145C161.919 68.8615 162.311 68.704 162.719 68.704C163.127 68.704 163.504 68.8615 163.802 69.145C164.084 69.4284 164.241 69.8222 164.241 70.2317C164.241 70.6411 164.084 71.0191 163.802 71.3183C163.504 71.6018 163.127 71.7593 162.719 71.7593ZM162.719 69.0032C162.389 69.0032 162.091 69.1292 161.856 69.3654C161.62 69.6017 161.495 69.9009 161.495 70.2317C161.495 70.5624 161.62 70.8616 161.856 71.0979C162.091 71.3341 162.389 71.4601 162.719 71.4601C163.049 71.4601 163.347 71.3341 163.582 71.0979C163.817 70.8616 163.943 70.5624 163.943 70.2317C163.943 69.9009 163.817 69.6017 163.582 69.3654C163.347 69.1292 163.049 69.0032 162.719 69.0032Z" fill="#282D46"/>
<path d="M164.979 72.6588C164.947 72.6588 164.9 72.643 164.869 72.6115L163.739 71.477C163.676 71.4139 163.676 71.3194 163.739 71.2721C163.802 71.2091 163.896 71.2091 163.943 71.2721L165.073 72.4067C165.136 72.4697 165.136 72.5642 165.073 72.6115C165.057 72.643 165.026 72.6588 164.979 72.6588Z" fill="#282D46"/>
<path d="M136.873 85.4443C134.613 85.4443 132.777 87.35 132.777 89.6966V139.385C132.777 141.732 134.613 143.638 136.873 143.638H231.344C233.604 143.638 235.44 141.732 235.44 139.385V89.6966C235.44 87.35 233.604 85.4443 231.344 85.4443H136.873Z" fill="white"/>
<path d="M213.721 85.1293H211.43V85.7596H213.721V85.1293Z" fill="#7AC8AC"/>
<path d="M235.754 95.7442H235.126V89.6965C235.126 87.5232 233.431 85.7592 231.344 85.7592H216.734V85.1293H231.344C233.776 85.1293 235.754 87.1767 235.754 89.6965V95.7442Z" fill="#7AC8AC"/>
<path d="M235.754 99.8541H235.126V107.792H235.754V99.8541Z" fill="#7AC8AC"/>
<path d="M222.305 118.848H145.912C145.253 118.848 144.704 118.313 144.704 117.636V107.745C144.704 107.084 145.238 106.533 145.912 106.533H222.305C222.964 106.533 223.513 107.068 223.513 107.745V117.636C223.513 118.313 222.98 118.848 222.305 118.848Z" fill="#DAE2EB"/>
<path d="M222.305 136.74H145.912C145.253 136.74 144.704 136.204 144.704 135.527V125.637C144.704 124.975 145.238 124.424 145.912 124.424H222.305C222.964 124.424 223.513 124.959 223.513 125.637V135.527C223.513 136.204 222.98 136.74 222.305 136.74Z" fill="#7AC8AC"/>
<path d="M158.357 99.0213H156.427L156.05 99.919H155.312L157.039 96.0604H157.745L159.487 99.919H158.734L158.357 99.0213ZM158.122 98.4543L157.4 96.7691L156.678 98.4543H158.122Z" fill="#282D46"/>
<path d="M162.704 96.9727V99.9178H162.045V99.5398C161.825 99.8075 161.48 99.9493 161.104 99.9493C160.35 99.9493 159.833 99.5398 159.833 98.6421V96.9569H160.523V98.5476C160.523 99.0831 160.774 99.335 161.213 99.335C161.7 99.335 162.014 99.0358 162.014 98.4531V96.9569H162.704V96.9727Z" fill="#282D46"/>
<path d="M165.372 99.7607C165.2 99.8867 164.964 99.9655 164.713 99.9655C164.07 99.9655 163.693 99.619 163.693 98.9733V97.5558H163.207V97.0046H163.693V96.3116H164.384V96.9889H165.168V97.5401H164.384V98.9418C164.384 99.2252 164.525 99.3827 164.792 99.3827C164.933 99.3827 165.074 99.3512 165.184 99.2567L165.372 99.7607Z" fill="#282D46"/>
<path d="M168.84 98.2172V99.9024H168.15V98.296C168.15 97.7763 167.899 97.5243 167.444 97.5243C166.957 97.5243 166.627 97.8235 166.627 98.4062V99.9024H165.937V95.8076H166.627V97.3038C166.847 97.0676 167.192 96.9258 167.6 96.9258C168.307 96.9258 168.84 97.3353 168.84 98.2172Z" fill="#282D46"/>
<path d="M172.481 98.6583H170.174C170.252 99.0835 170.613 99.367 171.131 99.367C171.461 99.367 171.727 99.2568 171.931 99.052L172.308 99.4773C172.041 99.7923 171.633 99.9655 171.131 99.9655C170.142 99.9655 169.515 99.3355 169.515 98.4536C169.515 97.5716 170.158 96.9417 171.037 96.9417C171.9 96.9417 172.528 97.5401 172.528 98.4693C172.496 98.5166 172.496 98.5953 172.481 98.6583ZM170.174 98.2016H171.837C171.774 97.7764 171.461 97.4771 171.005 97.4771C170.566 97.4929 170.237 97.7764 170.174 98.2016Z" fill="#282D46"/>
<path d="M176.059 98.2168V99.902H175.368V98.2956C175.368 97.7759 175.117 97.5239 174.662 97.5239C174.176 97.5239 173.846 97.8231 173.846 98.4058V99.902H173.156V96.9569H173.815V97.3349C174.035 97.0672 174.396 96.9254 174.835 96.9254C175.525 96.9254 176.059 97.3349 176.059 98.2168Z" fill="#282D46"/>
<path d="M178.695 99.7607C178.522 99.8867 178.287 99.9655 178.036 99.9655C177.392 99.9655 177.016 99.619 177.016 98.9733V97.5558H176.529V97.0046H177.016V96.3116H177.706V96.9889H178.491V97.5401H177.706V98.9418C177.706 99.2252 177.848 99.3827 178.114 99.3827C178.256 99.3827 178.397 99.3512 178.507 99.2567L178.695 99.7607Z" fill="#282D46"/>
<path d="M179.166 96.0595C179.166 95.8233 179.354 95.65 179.605 95.65C179.856 95.65 180.045 95.8233 180.045 96.0438C180.045 96.28 179.856 96.469 179.605 96.469C179.354 96.4847 179.166 96.2957 179.166 96.0595ZM179.26 96.973H179.951V99.9181H179.26V96.973Z" fill="#282D46"/>
<path d="M180.609 98.4373C180.609 97.5554 181.268 96.9254 182.194 96.9254C182.759 96.9254 183.23 97.1617 183.45 97.6026L182.916 97.9176C182.744 97.6341 182.477 97.5081 182.179 97.5081C181.676 97.5081 181.284 97.8546 181.284 98.4373C181.284 99.0043 181.676 99.3665 182.179 99.3665C182.477 99.3665 182.728 99.2405 182.916 98.9571L183.45 99.272C183.23 99.713 182.775 99.965 182.194 99.965C181.268 99.9493 180.609 99.3193 180.609 98.4373Z" fill="#282D46"/>
<path d="M186.51 98.1854V99.9178H185.867V99.5555C185.694 99.8075 185.38 99.9493 184.941 99.9493C184.266 99.9493 183.842 99.587 183.842 99.0673C183.842 98.5791 184.172 98.1854 185.066 98.1854H185.82V98.1381C185.82 97.7286 185.584 97.4924 185.082 97.4924C184.752 97.4924 184.407 97.6026 184.188 97.7916L183.921 97.2876C184.235 97.0514 184.69 96.9254 185.16 96.9254C186.024 96.9254 186.51 97.3349 186.51 98.1854ZM185.82 98.9886V98.6421H185.113C184.643 98.6421 184.517 98.8153 184.517 99.0358C184.517 99.2878 184.721 99.4453 185.082 99.4453C185.412 99.4453 185.71 99.3035 185.82 98.9886Z" fill="#282D46"/>
<path d="M189.162 99.7607C188.99 99.8867 188.754 99.9655 188.503 99.9655C187.86 99.9655 187.483 99.619 187.483 98.9733V97.5558H186.997V97.0046H187.483V96.3116H188.174V96.9889H188.958V97.5401H188.174V98.9418C188.174 99.2252 188.315 99.3827 188.582 99.3827C188.723 99.3827 188.864 99.3512 188.974 99.2567L189.162 99.7607Z" fill="#282D46"/>
<path d="M189.633 96.0595C189.633 95.8233 189.822 95.65 190.073 95.65C190.324 95.65 190.512 95.8233 190.512 96.0438C190.512 96.28 190.324 96.469 190.073 96.469C189.822 96.4847 189.633 96.2957 189.633 96.0595ZM189.727 96.973H190.418V99.9181H189.727V96.973Z" fill="#282D46"/>
<path d="M191.077 98.4373C191.077 97.5554 191.736 96.9254 192.646 96.9254C193.556 96.9254 194.215 97.5554 194.215 98.4373C194.215 99.3193 193.556 99.9493 192.646 99.9493C191.736 99.9493 191.077 99.3193 191.077 98.4373ZM193.509 98.4373C193.509 97.8704 193.132 97.5081 192.63 97.5081C192.128 97.5081 191.767 97.8704 191.767 98.4373C191.767 99.0043 192.144 99.3665 192.63 99.3665C193.132 99.3665 193.509 99.0043 193.509 98.4373Z" fill="#282D46"/>
<path d="M197.762 98.2168V99.902H197.071V98.2956C197.071 97.7759 196.82 97.5239 196.365 97.5239C195.878 97.5239 195.549 97.8231 195.549 98.4058V99.902H194.858V96.9569H195.517V97.3349C195.737 97.0672 196.098 96.9254 196.538 96.9254C197.244 96.9254 197.762 97.3349 197.762 98.2168Z" fill="#282D46"/>
<path d="M199.943 97.981C199.943 96.8313 200.822 95.9966 201.999 95.9966C202.627 95.9966 203.16 96.2171 203.521 96.6423L203.066 97.0833C202.784 96.784 202.438 96.6265 202.03 96.6265C201.23 96.6265 200.65 97.1935 200.65 97.981C200.65 98.7684 201.23 99.3354 202.03 99.3354C202.438 99.3354 202.784 99.1937 203.066 98.8787L203.521 99.3197C203.16 99.7449 202.627 99.9654 201.999 99.9654C200.822 99.9654 199.943 99.1307 199.943 97.981Z" fill="#282D46"/>
<path d="M203.804 98.4373C203.804 97.5554 204.463 96.9254 205.373 96.9254C206.283 96.9254 206.942 97.5554 206.942 98.4373C206.942 99.3193 206.283 99.9493 205.373 99.9493C204.463 99.9493 203.804 99.3193 203.804 98.4373ZM206.236 98.4373C206.236 97.8704 205.859 97.5081 205.357 97.5081C204.855 97.5081 204.494 97.8704 204.494 98.4373C204.494 99.0043 204.871 99.3665 205.357 99.3665C205.875 99.3665 206.236 99.0043 206.236 98.4373Z" fill="#282D46"/>
<path d="M210.473 95.8237V99.9185H209.814V99.5405C209.578 99.824 209.249 99.9658 208.841 99.9658C207.994 99.9658 207.35 99.3673 207.35 98.4538C207.35 97.5404 207.978 96.9419 208.841 96.9419C209.218 96.9419 209.563 97.0679 209.782 97.3357V95.8237H210.473ZM209.798 98.4381C209.798 97.8711 209.422 97.5089 208.919 97.5089C208.417 97.5089 208.041 97.8711 208.041 98.4381C208.041 99.0051 208.417 99.3673 208.919 99.3673C209.422 99.3673 209.798 99.0051 209.798 98.4381Z" fill="#282D46"/>
<path d="M214.13 98.6583H211.823C211.901 99.0835 212.262 99.367 212.78 99.367C213.109 99.367 213.376 99.2568 213.58 99.052L213.957 99.4773C213.69 99.7923 213.282 99.9655 212.78 99.9655C211.791 99.9655 211.164 99.3355 211.164 98.4536C211.164 97.5716 211.807 96.9417 212.686 96.9417C213.549 96.9417 214.177 97.5401 214.177 98.4693C214.145 98.5166 214.13 98.5953 214.13 98.6583ZM211.823 98.2016H213.486C213.423 97.7764 213.109 97.4771 212.654 97.4771C212.215 97.4929 211.885 97.7764 211.823 98.2016Z" fill="#282D46"/>
<path d="M176.827 128.502L175.274 132.077H174.615L173.061 128.502H173.783L174.976 131.258L176.168 128.502H176.827Z" fill="white"/>
<path d="M180.389 131.526V132.077H177.722V128.502H180.327V129.053H178.381V129.983H180.107V130.534H178.381V131.526H180.389Z" fill="white"/>
<path d="M183.968 132.077L183.246 131.021C183.199 131.021 183.152 131.021 183.104 131.021H182.304V132.061H181.645V128.486H183.104C184.046 128.486 184.627 128.958 184.627 129.762C184.627 130.297 184.344 130.706 183.873 130.895L184.689 132.077H183.968ZM183.073 129.069H182.304V130.502H183.073C183.654 130.502 183.952 130.234 183.952 129.793C183.952 129.321 183.654 129.069 183.073 129.069Z" fill="white"/>
<path d="M185.866 128.502H186.525V132.077H185.866V128.502Z" fill="white"/>
<path d="M188.66 129.053V130.14H190.386V130.707H188.66V132.077H188V128.502H190.605V129.053H188.66Z" fill="white"/>
<path d="M193.289 130.817V132.077H192.63V130.833L191.233 128.502H191.94L192.991 130.25L194.042 128.502H194.702L193.289 130.817Z" fill="white"/>
<path d="M175.854 114.25H174.803V115.604H173.736V114.25H170.472V113.478L173.406 109.635H174.583L171.821 113.305H173.767V112.108H174.803V113.305H175.854V114.25Z" fill="#006666"/>
<path d="M181.472 113.761C181.472 114.816 180.719 115.682 179.119 115.682C178.271 115.682 177.424 115.43 176.89 114.989L177.361 114.123C177.8 114.486 178.444 114.706 179.103 114.706C179.887 114.706 180.358 114.36 180.358 113.793C180.358 113.226 179.997 112.863 178.758 112.863H177.33L177.628 109.619H181.112V110.548H178.554L178.428 111.934H178.993C180.766 111.934 181.472 112.706 181.472 113.761Z" fill="#006666"/>
<path d="M188.252 114.25H187.2V115.604H186.133V114.25H182.869V113.478L185.804 109.635H186.981L184.219 113.305H186.165V112.108H187.2V113.305H188.252V114.25Z" fill="#006666"/>
<path d="M191.422 109.635V115.604H190.323V110.564H189.068V109.635H191.422Z" fill="#006666"/>
<path d="M197.746 114.659V115.604H193.368V114.863L195.722 112.611C196.302 112.06 196.396 111.714 196.396 111.383C196.396 110.832 196.02 110.517 195.298 110.517C194.717 110.517 194.231 110.706 193.901 111.147L193.132 110.548C193.587 109.918 194.419 109.556 195.392 109.556C196.679 109.556 197.511 110.217 197.511 111.273C197.511 111.855 197.354 112.375 196.522 113.162L194.937 114.674H197.746V114.659Z" fill="#006666"/>
<path d="M206.768 54.055V62.5123C206.768 63.3628 206.69 64.1975 206.549 65.0165C206.094 67.5678 204.932 69.946 203.159 71.8516C199.848 75.4267 195.862 77.1906 195.689 77.2536L195.313 77.4268L195.281 77.4111L194.936 77.2536C194.763 77.1749 190.777 75.4109 187.466 71.8516C185.709 69.946 184.532 67.5836 184.077 65.0165C183.935 64.1975 183.857 63.3628 183.857 62.5123V54.0393L184.594 53.8975H184.61C185.834 53.5668 187.137 52.5431 187.105 50.6059L187.09 49.8657L187.796 49.661C187.874 49.6452 189.648 49.157 195.266 48.9365H195.281H195.313H195.344C200.962 49.1728 202.751 49.6452 202.814 49.6767L203.52 49.8815L203.504 50.6217C203.489 51.7714 203.881 52.6376 204.728 53.2833C205.325 53.74 205.921 53.8975 205.984 53.9133H205.999L206.768 54.055Z" fill="white"/>
<path d="M205.811 54.8105V62.4961C205.811 62.7008 205.811 62.9056 205.795 63.1103C205.654 66.1027 204.493 68.969 202.453 71.1739C199.251 74.623 195.297 76.3554 195.297 76.3554C195.297 76.3554 191.342 74.623 188.141 71.1739C186.101 68.969 184.94 66.1027 184.798 63.1103C184.783 62.9056 184.783 62.7008 184.783 62.4961V54.8105C184.783 54.8105 188.094 54.0545 188.031 50.5582C188.031 50.5582 189.71 50.0857 195.281 49.8652C200.852 50.1015 202.531 50.5582 202.531 50.5582C202.516 54.0545 205.811 54.8105 205.811 54.8105Z" fill="#7AC8AC"/>
<path d="M195.282 68.1663C195.046 68.1663 194.811 68.0718 194.638 67.8828L189.93 62.7801C189.601 62.4178 189.616 61.8666 189.977 61.5359C190.338 61.2052 190.888 61.2209 191.217 61.5831L195.187 65.8827L200.68 57.9136C200.947 57.5198 201.496 57.4096 201.888 57.6931C202.281 57.9608 202.39 58.512 202.108 58.9058L196.003 67.7726C195.846 67.9931 195.611 68.1348 195.344 68.1506C195.329 68.1663 195.297 68.1663 195.282 68.1663Z" fill="white"/>
<path opacity="0.2" d="M206.769 54.0548V62.5121C206.769 63.3626 206.69 64.1973 206.549 65.0162C206.094 67.5676 204.933 69.9457 203.16 71.8514C199.848 75.4265 195.862 77.1904 195.69 77.2534L195.313 77.4266L195.282 77.4109V48.9048H195.313H195.345C200.963 49.141 202.752 49.6135 202.814 49.645L203.52 49.8497L203.505 50.59C203.489 51.7396 203.881 52.6058 204.729 53.2516C205.325 53.7083 205.921 53.8658 205.984 53.8815H206L206.769 54.0548Z" fill="#4D4D4D"/>
<path d="M215.211 37.5406C210.784 29.0571 205.56 24.0153 198.796 21.4365L198.888 21.1321C205.752 23.7074 211.081 28.846 215.508 37.3295L215.211 37.5406Z" fill="#282D46"/>
<path d="M220.2 41.5871C215.799 30.793 209.357 19.4668 195.521 17.232L195.609 16.8273C209.65 19.1554 216.096 30.582 220.601 41.4729L220.2 41.5871Z" fill="#282D46"/>
<path d="M23.235 134.071L22.8741 134.028C23.451 126.79 27.0029 120.298 34.0313 113.518L34.3006 113.831C27.3179 120.476 23.8565 126.922 23.235 134.071Z" fill="#282D46"/>
<path d="M19.329 139.394L19.0128 139.44C17.4564 125.428 26.7544 115.939 35.9968 108.607L36.2661 108.92C26.979 116.162 17.7267 125.517 19.329 139.394Z" fill="#282D46"/>
</svg>
