<svg width="8" height="8" viewBox="0 0 8 8" fill="none" xmlns="http://www.w3.org/2000/svg">
<g clip-path="url(#clip0_651_1111)">
<path d="M0 2.32385H8V7.10521C8 7.56053 7.71522 7.91507 7.29247 7.9839C7.22983 7.99411 7.16656 7.99925 7.1032 7.99928C4.97662 7.99928 2.84996 7.99928 0.723233 7.99928C0.294069 7.99928 0.0216682 7.71852 0.00198986 7.25706C0.000442128 7.22158 0.000442135 7.1861 0.000442135 7.15086V2.32385H0ZM6.40517 3.86008C6.40517 3.75128 6.4065 3.64225 6.40517 3.53321C6.40296 3.39129 6.32668 3.30969 6.19336 3.30874C5.99525 3.30701 5.79706 3.30701 5.59881 3.30874C5.4688 3.30874 5.38787 3.38585 5.38478 3.52162C5.38021 3.74237 5.38021 3.96313 5.38478 4.18389C5.38765 4.31398 5.46106 4.39416 5.58377 4.39676C5.79264 4.40244 6.00181 4.40244 6.21127 4.39676C6.34393 4.39298 6.40363 4.31918 6.40562 4.17656C6.4065 4.07225 6.40517 3.96605 6.40517 3.86008ZM3.90669 6.79868C4.00575 6.79868 4.10569 6.79986 4.20386 6.79868C4.34139 6.79655 4.40904 6.73127 4.41236 6.58391C4.417 6.36631 4.41656 6.14823 4.41236 5.93039C4.40971 5.79013 4.33475 5.70995 4.20541 5.70735C4.00177 5.70356 3.79791 5.70309 3.59427 5.70735C3.46449 5.71019 3.39351 5.79368 3.3924 5.93394C3.39078 6.14618 3.39078 6.35819 3.3924 6.56996C3.3924 6.71708 3.46957 6.79631 3.60909 6.79844C3.70726 6.79986 3.80653 6.79868 3.90559 6.79868H3.90669ZM6.40517 6.25845C6.40517 6.14965 6.4065 6.04061 6.40517 5.93158C6.40296 5.79392 6.33022 5.70971 6.20087 5.70688C5.99731 5.70262 5.7936 5.70262 5.58974 5.70688C5.46349 5.70948 5.38743 5.78871 5.38478 5.92259C5.38035 6.14334 5.38035 6.3641 5.38478 6.58486C5.38787 6.71873 5.46725 6.79608 5.59195 6.79773C5.79581 6.79994 5.99952 6.79994 6.20308 6.79773C6.33774 6.79631 6.40208 6.72322 6.40495 6.57681C6.4065 6.47132 6.40495 6.36489 6.40517 6.25845ZM3.39108 3.85252C3.39108 3.96155 3.38975 4.07059 3.39108 4.17939C3.39329 4.30617 3.45741 4.39227 3.57504 4.39605C3.79614 4.40338 4.01548 4.40244 4.23525 4.39605C4.34581 4.3925 4.40418 4.32888 4.4075 4.21085C4.41383 3.97543 4.41383 3.74001 4.4075 3.50459C4.40418 3.38443 4.32414 3.31111 4.21182 3.30993C4.00545 3.3074 3.79909 3.3074 3.59273 3.30993C3.46935 3.31134 3.39373 3.39342 3.3913 3.52658C3.38953 3.63468 3.3913 3.74371 3.39108 3.85252ZM1.42192 6.24946V6.55884C1.42192 6.56475 1.42192 6.57043 1.42192 6.57634C1.42568 6.71376 1.50041 6.79631 1.62888 6.79797C1.82433 6.80018 2.01986 6.80018 2.21547 6.79797C2.34393 6.79655 2.43657 6.71518 2.44055 6.57847C2.44851 6.35496 2.44652 6.13073 2.44055 5.90698C2.43723 5.78871 2.36493 5.71255 2.25549 5.70948C2.04087 5.70317 1.8261 5.70317 1.61119 5.70948C1.49555 5.71279 1.42568 5.79888 1.42303 5.92235C1.42015 6.03139 1.42214 6.14019 1.42192 6.24946ZM1.93533 3.30827C1.8334 3.30827 1.73147 3.30685 1.62976 3.30827C1.50086 3.3104 1.42391 3.39082 1.42259 3.52847C1.42052 3.74356 1.42052 3.95864 1.42259 4.17372C1.42259 4.30877 1.49268 4.39368 1.61848 4.39771C1.82212 4.40386 2.0262 4.40362 2.22962 4.39771C2.35432 4.39368 2.43834 4.3057 2.4421 4.17301C2.44829 3.95233 2.44763 3.73094 2.44099 3.51074C2.43701 3.38254 2.35565 3.31135 2.23315 3.30922C2.13366 3.30685 2.0346 3.30827 1.93533 3.30827Z" fill="#006666"/>
<path d="M1.39506 -2.21526e-05V0.120842C1.39506 0.339391 1.39373 0.557705 1.39506 0.776018C1.3966 0.948445 1.49986 1.06529 1.64557 1.06481C1.79128 1.06434 1.89232 0.948445 1.89365 0.774362C1.89542 0.520807 1.89365 0.267251 1.89365 0.00707332H5.87596C5.87751 0.0373486 5.8806 0.0685695 5.8806 0.0997909C5.8806 0.32993 5.87905 0.560069 5.88193 0.790209C5.88348 0.923373 5.95467 1.02295 6.06279 1.05606C6.16141 1.08657 6.27903 1.04873 6.33165 0.951756C6.36145 0.892756 6.3776 0.826981 6.37875 0.759934C6.38428 0.541858 6.38096 0.323308 6.38096 0.104995V0.00707332C6.39696 0.00382696 6.41313 0.00161468 6.42938 0.000449917C6.70775 0.00518043 6.98767 -0.00901093 7.26383 0.0198452C7.61362 0.0565066 7.91299 0.366591 7.96783 0.705769C7.9728 0.737738 7.97524 0.7701 7.97512 0.802508C7.97512 1.11803 7.97512 1.43332 7.97512 1.75476H0.0131538C0.0131538 1.38129 -0.00895652 1.01112 0.0191237 0.645692C0.0509628 0.235084 0.32867 -0.000495896 0.716487 -0.000732422L1.39506 -2.21526e-05Z" fill="#006666"/>
</g>
<defs>
<clipPath id="clip0_651_1111">
<rect width="8" height="8" fill="white"/>
</clipPath>
</defs>
</svg>
