<svg width="21" height="21" viewBox="0 0 21 21" fill="none" xmlns="http://www.w3.org/2000/svg">
<path fill-rule="evenodd" clip-rule="evenodd" d="M6.45752 10.6198C6.45752 10.2746 6.73734 9.99481 7.08252 9.99481H12.9159C13.261 9.99481 13.5409 10.2746 13.5409 10.6198C13.5409 10.965 13.261 11.2448 12.9159 11.2448H7.08252C6.73734 11.2448 6.45752 10.965 6.45752 10.6198Z" fill="#D1A370"/>
<path fill-rule="evenodd" clip-rule="evenodd" d="M6.45752 13.9531C6.45752 13.6079 6.73734 13.3281 7.08252 13.3281H10.7325C11.0777 13.3281 11.3575 13.6079 11.3575 13.9531C11.3575 14.2983 11.0777 14.5781 10.7325 14.5781H7.08252C6.73734 14.5781 6.45752 14.2983 6.45752 13.9531Z" fill="#D1A370"/>
<path fill-rule="evenodd" clip-rule="evenodd" d="M8.68987 1.49469C8.71034 1.49475 8.73013 1.49481 8.74919 1.49481H12.0825C12.1016 1.49481 12.1214 1.49475 12.1418 1.49469C12.511 1.49365 13.1008 1.49197 13.575 1.80811C14.1453 2.18828 14.3742 2.8706 14.3742 3.78648C14.3742 3.80553 14.3742 3.82532 14.3743 3.84579C14.3753 4.21494 14.377 4.80479 14.0609 5.279C13.6807 5.84925 12.9984 6.07814 12.0825 6.07814H8.74919C8.73013 6.07814 8.71034 6.0782 8.68987 6.07826C8.32072 6.07931 7.73088 6.08098 7.25667 5.76484C6.68641 5.38467 6.45752 4.70235 6.45752 3.78648C6.45752 2.8706 6.68641 2.18828 7.25667 1.80811C7.73088 1.49197 8.32072 1.49365 8.68987 1.49469ZM7.95004 2.84817C7.8953 2.88467 7.70752 3.03568 7.70752 3.78648C7.70752 4.53727 7.8953 4.68828 7.95004 4.72478C8.07453 4.80777 8.27855 4.82814 8.74919 4.82814H12.0825C12.8333 4.82814 12.9843 4.64036 13.0208 4.58562C13.1038 4.46113 13.1242 4.25711 13.1242 3.78648C13.1242 3.03568 12.9364 2.88467 12.8817 2.84817C12.7572 2.76518 12.5532 2.74481 12.0825 2.74481H8.74919C8.27855 2.74481 8.07453 2.76518 7.95004 2.84817Z" fill="#006666"/>
<path fill-rule="evenodd" clip-rule="evenodd" d="M7.70677 3.76938C7.7254 4.11406 7.46109 4.40857 7.11642 4.42721C5.77797 4.49955 4.94379 4.78079 4.41781 5.35014C3.88485 5.92705 3.54102 6.93711 3.54102 8.78645V13.7864C3.54102 15.4421 3.75878 16.4791 4.32388 17.1249C4.87091 17.7501 5.88657 18.1614 7.91602 18.1614H12.916C14.9455 18.1614 15.9611 17.7501 16.5082 17.1249C17.0732 16.4791 17.291 15.4421 17.291 13.7864V8.78645C17.291 6.93252 16.947 5.92295 16.4145 5.34734C15.8889 4.77914 15.0551 4.49961 13.7156 4.42721C13.3709 4.40857 13.1066 4.11406 13.1253 3.76938C13.1439 3.42471 13.4384 3.1604 13.7831 3.17903C15.2186 3.25662 16.4682 3.56459 17.3321 4.49848C18.1892 5.42496 18.541 6.83205 18.541 8.78645V13.7864C18.541 15.4642 18.3421 16.9272 17.4489 17.948C16.5376 18.9895 15.0532 19.4114 12.916 19.4114H7.91602C5.77879 19.4114 4.29446 18.9895 3.38316 17.948C2.48992 16.9272 2.29102 15.4642 2.29102 13.7864V8.78645C2.29102 6.83579 2.64302 5.42918 3.49964 4.50192C4.36324 3.56711 5.6124 3.25668 7.04895 3.17903C7.39362 3.1604 7.68814 3.42471 7.70677 3.76938Z" fill="#006666"/>
</svg>
