<svg width="53" height="54" viewBox="0 0 53 54" fill="none" xmlns="http://www.w3.org/2000/svg">
<path d="M27.139 0.0990477C26.9996 0.238472 26.9942 0.377896 27.1229 0.528045C27.2034 0.629932 27.2999 0.646019 28.1257 0.694281C28.6298 0.721094 29.3966 0.785443 29.831 0.833705C30.5871 0.919505 30.63 0.919505 30.7265 0.828343C30.8498 0.721094 30.8713 0.415433 30.7694 0.329634C30.6461 0.233109 29.3537 0.0883228 27.9863 0.0186107C27.2892 -0.0135641 27.2516 -0.0135641 27.139 0.0990477Z" fill="#006666"/>
<path d="M23.9433 0.142085C23.5411 0.179622 22.0128 0.420933 21.4819 0.533545C21.187 0.592532 20.9027 0.683694 20.8491 0.731956C20.7204 0.844568 20.7258 1.08052 20.8598 1.20385C20.9671 1.30038 20.9939 1.30038 21.868 1.13414C22.3613 1.04298 23.1014 0.925005 23.5143 0.876743C24.3776 0.769493 24.5063 0.715869 24.5063 0.458471C24.5063 0.190347 24.3562 0.104548 23.9433 0.142085Z" fill="#006666"/>
<path d="M33.4183 0.962647C33.3539 1.027 33.3003 1.13425 33.3003 1.20396C33.3003 1.33802 33.4826 1.55252 33.6006 1.55252C33.7186 1.55252 35.338 2.06731 35.9494 2.2979C36.2711 2.41587 36.5928 2.51776 36.6572 2.51776C36.92 2.51776 37.0487 2.14775 36.8556 1.96543C36.7644 1.88499 35.8475 1.53107 35.1235 1.29512C34.6516 1.14497 33.6435 0.855397 33.5845 0.855397C33.5577 0.855397 33.4826 0.903659 33.4183 0.962647Z" fill="#006666"/>
<path d="M15.5245 1.74537C13.3795 2.06175 11.6421 3.31657 10.6768 5.24169C10.2747 6.04606 10.087 6.74855 10.0441 7.64944C10.0119 8.31439 10.0763 8.91498 10.221 9.33862L10.2908 9.54239H9.59899C9.20753 9.54239 8.84825 9.5692 8.77854 9.60138C8.67665 9.64964 8.59085 9.81588 8.36563 10.4218C8.21011 10.8347 8.02779 11.3227 7.96344 11.4997C7.89373 11.6767 7.70604 12.1807 7.54517 12.6258C7.37893 13.0655 7.05182 13.9611 6.81051 14.6099C6.13484 16.4224 5.48062 18.192 5.22858 18.8731C5.10525 19.2109 4.71915 20.2459 4.37595 21.1682C4.03275 22.0959 3.75391 22.8896 3.75391 22.9432C3.75391 22.9968 3.79681 23.0773 3.85043 23.1255C3.94159 23.2113 4.89075 23.2167 16.3718 23.2167H28.7913L28.8717 23.0987C28.92 23.0344 28.9575 22.9486 28.9575 22.911C28.9575 22.8735 28.7966 22.4177 28.6036 21.8921C28.4105 21.3666 28.1692 20.7178 28.0727 20.455C27.9762 20.1869 27.6276 19.2592 27.3059 18.3905C26.3406 15.795 25.8312 14.4115 25.3378 13.0816C25.0858 12.3899 24.8445 11.7356 24.8016 11.6338C24.7587 11.5319 24.5817 11.0492 24.3994 10.5666C24.2224 10.084 24.0347 9.655 23.9811 9.61746C23.9168 9.56384 23.6808 9.54775 23.1714 9.54239H22.4582L22.4904 9.39224C22.6888 8.54497 22.7317 7.74597 22.6244 7.07566C22.2222 4.53921 20.34 2.49075 17.8357 1.8687C17.514 1.78827 17.1762 1.75609 16.5434 1.74001C16.0715 1.72928 15.6157 1.73464 15.5245 1.74537ZM17.1869 2.43713C18.4792 2.6409 19.4338 3.12352 20.3239 4.01369C20.8816 4.57139 21.1283 4.90922 21.4554 5.57417C21.8469 6.36781 22.0935 7.56364 22.0131 8.28221C21.879 9.54239 21.005 11.5158 19.4874 13.9932C18.5865 15.4733 16.4683 18.5513 16.3557 18.5513C16.2324 18.5513 14.3072 15.7521 13.2723 14.0737C11.6957 11.5158 10.8216 9.53703 10.6929 8.26076C10.65 7.82104 10.7466 7.03812 10.9128 6.45897C11.7011 3.7402 14.4198 1.99204 17.1869 2.43713ZM10.5642 10.3199C10.5642 10.3682 10.6125 10.4969 10.6715 10.6095C10.7251 10.7221 10.7573 10.8294 10.7412 10.8508C10.7197 10.8669 10.4731 10.883 10.1889 10.883C9.82958 10.883 9.64725 10.9045 9.60972 10.9527C9.55073 11.0171 9.18072 12.0038 7.18052 17.3716C6.59065 18.9482 6.00078 20.5247 5.87208 20.8679C5.73802 21.2165 5.63077 21.5489 5.63077 21.6026C5.63077 21.6616 5.68439 21.7581 5.74874 21.8224C5.86672 21.9297 5.87208 21.9297 16.3557 21.9297C26.8393 21.9297 26.8447 21.9297 26.9627 21.8224C27.0914 21.6991 27.1074 21.5758 27.027 21.3827C27.0002 21.313 26.7428 20.632 26.4586 19.8651C25.059 16.0739 23.1499 11.0117 23.1017 10.9527C23.0641 10.9045 22.8765 10.883 22.5172 10.883C22.2276 10.883 21.9809 10.8669 21.9702 10.8401C21.9541 10.8187 21.9863 10.706 22.0453 10.5934C22.0989 10.4755 22.1472 10.3468 22.1472 10.3092C22.1472 10.2556 22.3027 10.2395 22.8604 10.2395H23.5682L23.906 11.1672C24.0937 11.6713 24.6407 13.1513 25.1233 14.449C25.606 15.7468 26.2334 17.4359 26.5176 18.2028C26.8018 18.9696 27.2737 20.2405 27.5686 21.0234C27.8582 21.8117 28.0995 22.482 28.0995 22.5142C28.0995 22.5571 24.9464 22.5732 16.3503 22.5732H4.60118L4.63335 22.4391C4.6548 22.364 4.89611 21.683 5.18032 20.9215C5.46453 20.1654 5.93643 18.8892 6.23136 18.0955C6.5263 17.2965 7.00892 15.9934 7.30386 15.1998C7.59879 14.4008 7.93127 13.5106 8.04388 13.2157C8.15113 12.9207 8.44606 12.1325 8.69274 11.4622L9.14318 10.2395H9.85639C10.457 10.2395 10.5642 10.2502 10.5642 10.3199ZM11.315 11.993C11.7011 12.7438 12.4357 14.0093 12.9988 14.9049C13.5297 15.736 14.747 17.5539 15.0151 17.9078C15.0955 18.0097 15.3851 18.4012 15.6532 18.7766C16.1358 19.4308 16.2484 19.5327 16.4522 19.479C16.6828 19.42 19.0745 15.9827 20.2542 14.02C20.6725 13.3229 21.0693 12.6097 21.5198 11.7517L21.6377 11.5211L22.1418 11.5372L22.6405 11.5533L23.032 12.599C24.9517 17.6987 26.2387 21.1789 26.2119 21.2111C26.1958 21.2218 7.47009 21.2487 6.55848 21.2326C6.52094 21.2326 6.48876 21.2111 6.48876 21.1843C6.48876 21.1414 8.9126 14.5992 9.22362 13.8055C9.27724 13.6554 9.47029 13.1513 9.64726 12.6794C9.81885 12.2075 9.99045 11.7571 10.0226 11.6713C10.0763 11.5265 10.0816 11.5265 10.575 11.5265H11.0737L11.315 11.993Z" fill="#006666"/>
<path d="M15.5888 5.2848C14.9292 5.44032 14.216 5.90149 13.8138 6.42701C13.3097 7.07587 13.1167 7.64429 13.1167 8.47011C13.1167 8.94737 13.1381 9.09752 13.2668 9.46216C13.5618 10.3202 14.1356 10.9744 14.9238 11.3658C15.4762 11.634 15.8516 11.709 16.5701 11.6715C17.3691 11.634 17.9322 11.398 18.565 10.835C19.0958 10.3631 19.5141 9.52115 19.5999 8.75968C19.7179 7.68719 19.187 6.50745 18.2861 5.83714C17.5354 5.27944 16.4951 5.06494 15.5888 5.2848ZM17.1761 6.0141C17.7552 6.20179 18.1628 6.51817 18.506 7.04369C19.1763 8.06792 19.0476 9.37637 18.1896 10.2504C17.1761 11.2854 15.6156 11.3015 14.5538 10.2826C14.0283 9.78391 13.787 9.19404 13.7816 8.43793C13.7763 6.68441 15.4923 5.4564 17.1761 6.0141Z" fill="#D1A370"/>
<path d="M39.2904 3.30577C39.0491 3.57925 39.1617 3.71868 40.0144 4.22275C40.4327 4.46942 41.0815 4.87697 41.4622 5.13437C42.0789 5.54191 42.1701 5.59018 42.2988 5.54191C42.4704 5.48293 42.5776 5.24162 42.4918 5.10219C42.4597 5.05393 42.3202 4.92523 42.1862 4.82334C41.9181 4.61957 40.7115 3.84737 40.3254 3.62751C40.1913 3.55244 39.9768 3.4291 39.8428 3.35403C39.5586 3.19315 39.4084 3.17707 39.2904 3.30577Z" fill="#006666"/>
<path d="M44.4336 7.00049C44.2298 7.1989 44.3156 7.34369 45.0074 8.00327C45.3667 8.34647 45.9029 8.89344 46.1978 9.22055C46.6161 9.68709 46.7609 9.81042 46.8735 9.81042C47.0451 9.81042 47.1899 9.66028 47.1899 9.47259C47.1899 9.31172 46.5732 8.60923 45.5168 7.56891C44.9537 7.01658 44.8197 6.91469 44.6803 6.91469C44.5891 6.91469 44.4765 6.95223 44.4336 7.00049Z" fill="#006666"/>
<path d="M40.192 10.7973C38.4921 11.044 37.0335 11.9073 36.0093 13.2694C35.1996 14.3419 34.8027 15.5753 34.8027 16.9909C34.8027 17.983 34.9636 18.7445 35.3658 19.6025C35.9503 20.8734 36.996 21.9405 38.2669 22.5679C41.2002 24.0104 44.6911 22.9755 46.3857 20.1602C46.9219 19.2646 47.1847 18.3637 47.2276 17.2323C47.2758 16.0686 47.0828 15.157 46.5894 14.181C45.9727 12.9637 44.8734 11.8859 43.6883 11.3389C42.5944 10.8348 41.302 10.6364 40.192 10.7973ZM42.101 11.5266C42.6534 11.6392 43.2218 11.8269 43.2218 11.8966C43.2218 11.9181 43.1521 12.0414 43.0717 12.1755C42.7553 12.6688 42.2297 12.9745 41.6935 12.9745C41.5648 12.9745 41.302 13.0227 41.1036 13.0871C40.8194 13.1729 40.6854 13.2533 40.4869 13.4517C40.0043 13.9343 39.9346 14.5242 40.251 15.3608C40.428 15.8166 40.4387 15.8863 40.3797 16.0257C40.2617 16.3153 39.4413 16.6263 39.0176 16.5459C38.7924 16.503 38.7066 16.385 38.6154 16.0096C38.5296 15.6557 38.283 15.3125 37.988 15.1409C37.7146 14.98 37.3231 14.9478 36.6796 15.0336C36.4436 15.0605 36.256 15.0551 36.1005 15.0122C35.8806 14.9586 35.8699 14.9425 35.902 14.8084C35.9557 14.5725 36.4061 13.8325 36.7386 13.4303C37.543 12.4543 38.6959 11.7625 39.8971 11.532C40.0579 11.4998 40.2403 11.4622 40.2993 11.4515C40.6317 11.3872 41.6131 11.4301 42.101 11.5266ZM44.2568 12.4489C44.9914 12.9476 45.7582 13.8861 46.1175 14.7387C46.4661 15.5538 46.686 16.8193 46.5787 17.3878L46.5412 17.5755L46.0746 17.5808C45.8065 17.5808 45.4043 17.6237 45.1308 17.6881L44.6482 17.7953L44.3533 17.6881C43.8063 17.4897 43.7259 17.4736 43.4631 17.5326C43.3237 17.5647 43.077 17.672 42.9161 17.7792C42.6319 17.9616 42.6051 17.9669 42.3853 17.9133C41.6828 17.7363 41.0232 17.9669 40.8087 18.4656C40.7551 18.589 40.6961 18.8678 40.68 19.0877C40.6585 19.3075 40.5567 19.7526 40.4548 20.0797C40.3475 20.4015 40.2403 20.7929 40.2135 20.9484C40.1491 21.2916 40.2242 21.7635 40.4119 22.1872C40.4816 22.348 40.5298 22.4928 40.5138 22.5089C40.4601 22.5625 39.5217 22.3588 39.0659 22.1925C37.8057 21.7367 36.6689 20.7179 36.0468 19.4899C35.8591 19.1145 35.65 18.5032 35.5481 18.042C35.457 17.613 35.457 16.4172 35.5481 15.9614C35.6178 15.6021 35.6232 15.5913 35.7626 15.6235C36.2291 15.7308 36.5187 15.7469 36.9209 15.6825C37.5859 15.5806 37.8379 15.7093 37.9666 16.2134C38.1006 16.7228 38.2562 16.9373 38.6369 17.1089C39.2482 17.3931 40.4172 17.0714 40.8677 16.503C41.1358 16.1651 41.1412 15.8327 40.8891 15.1463C40.6639 14.5242 40.6693 14.2668 40.9052 13.988C41.0875 13.7681 41.2967 13.6823 41.7525 13.6448C42.1815 13.6072 42.396 13.5482 42.7553 13.3659C43.0556 13.2158 43.4899 12.7921 43.6883 12.4543C43.7634 12.3256 43.8438 12.2237 43.8707 12.2237C43.9028 12.2237 44.0744 12.3256 44.2568 12.4489ZM44.0262 18.2887C44.3908 18.4549 44.734 18.471 45.2971 18.3423C45.8119 18.2243 46.3588 18.1921 46.4071 18.2779C46.4232 18.3047 46.3803 18.4871 46.3106 18.6908C45.7475 20.3318 44.6321 21.5276 43.0931 22.1443C42.6427 22.3266 41.8597 22.5143 41.5594 22.5196C41.3825 22.5196 41.3503 22.4928 41.1894 22.2247C40.7926 21.5759 40.7765 21.2166 41.0983 20.2513C41.2109 19.9189 41.302 19.5059 41.3235 19.2861C41.3396 19.0716 41.3771 18.8356 41.4093 18.7552C41.4844 18.5461 41.7525 18.4817 42.1922 18.5568C42.6534 18.6372 42.8679 18.5997 43.2433 18.3691C43.6133 18.1439 43.6937 18.1385 44.0262 18.2887Z" fill="#006666"/>
<path d="M5.14191 11.0977C4.99176 11.1835 3.90854 12.8298 3.4581 13.6449C3.22751 14.0685 3.22751 14.2454 3.4581 14.3688C3.68868 14.4921 3.81202 14.3795 4.20884 13.6878C4.41261 13.3392 4.8148 12.7011 5.10437 12.2721C5.39395 11.8377 5.62989 11.4355 5.62989 11.3765C5.62989 11.2639 5.39931 11.0441 5.2867 11.0441C5.25452 11.0441 5.19017 11.0709 5.14191 11.0977Z" fill="#006666"/>
<path d="M48.6914 11.7037C48.6163 11.7412 48.5359 11.8324 48.5091 11.9074C48.4662 12.0308 48.5305 12.1595 49.0239 12.9531C49.3349 13.4518 49.7103 14.09 49.8604 14.3688C50.0106 14.6477 50.1929 14.9211 50.2626 14.9801C50.4235 15.0981 50.5897 15.0606 50.7077 14.8782C50.7828 14.7603 50.7828 14.7281 50.6809 14.5082C50.5307 14.165 49.7585 12.8244 49.3778 12.2506C49.0239 11.709 48.8898 11.6071 48.6914 11.7037Z" fill="#006666"/>
<path d="M2.05968 16.6636C1.96851 16.7226 1.90417 16.8674 1.63604 17.586C1.32502 18.4279 0.912109 19.7685 0.912109 19.9508C0.912109 20.2243 1.28212 20.3745 1.45908 20.1707C1.50734 20.1224 1.58242 19.9347 1.63068 19.7578C1.77547 19.2376 2.12403 18.1866 2.33852 17.6396C2.59056 16.98 2.61201 16.8567 2.49404 16.728C2.39751 16.6207 2.17229 16.5886 2.05968 16.6636Z" fill="#006666"/>
<path d="M51.5491 17.3288C51.3453 17.4307 51.356 17.5969 51.6349 18.4281C51.9137 19.2432 52.2837 20.5248 52.2837 20.6535C52.2837 20.6964 52.332 20.7822 52.391 20.8466C52.5465 21.0074 52.7932 21.0021 52.9058 20.8305C52.9862 20.7071 52.9809 20.6642 52.8468 20.1226C52.7664 19.8062 52.5465 19.0662 52.3588 18.4871C51.962 17.2805 51.8869 17.1679 51.5491 17.3288Z" fill="#006666"/>
<path d="M0.353923 22.8302C0.294936 22.8999 0.241311 23.1359 0.187686 23.5702C0.0911619 24.3907 0 25.549 0 26.0101C0 26.3265 0.0160874 26.3855 0.117974 26.4552C0.278848 26.5678 0.445085 26.5625 0.552334 26.4445C0.622046 26.3694 0.654221 26.1549 0.69712 25.4632C0.745383 24.6642 0.772195 24.3424 0.890169 23.2806C0.922344 23.0018 0.911619 22.9321 0.831182 22.8409C0.707845 22.7069 0.471897 22.7015 0.353923 22.8302Z" fill="#006666"/>
<path d="M49.1201 23.2168C48.9646 23.249 48.2407 23.56 45.7686 24.6647C45.5916 24.7398 45.2323 24.9006 44.9696 25.0186C44.7068 25.1312 44.3904 25.3189 44.2617 25.4315C43.8381 25.8069 43.8595 25.4959 43.881 30.7779C43.8971 35.3199 43.9024 35.4861 44.0097 35.9795C44.2135 36.875 44.3475 37.2021 44.932 38.1245C45.1251 38.4355 45.4308 38.9878 45.6131 39.3525L45.9455 40.0121L45.7418 40.2105C45.4844 40.4571 45.4576 40.6127 45.4844 41.7763C45.4951 42.5217 45.5166 42.6826 45.6024 42.822C45.8168 43.1759 45.7418 43.1652 48.4874 43.1652C51.174 43.1598 51.1257 43.1652 51.3241 42.8649C51.4153 42.7255 51.426 42.6075 51.426 41.5725V40.4357L51.2598 40.2426C51.1686 40.1408 51.0399 40.0389 50.9702 40.0228C50.8576 39.996 50.8468 39.9531 50.8147 39.449C50.7128 37.985 50.4715 37.1002 49.9728 36.4246C49.6778 36.0224 49.533 35.6202 49.5598 35.2716L49.5759 35.0411L50.4607 35.0142C51.4528 34.9821 51.6137 34.9392 51.914 34.596C52.2464 34.2206 52.2304 34.419 52.2304 30.0432C52.2304 25.5441 52.2518 25.7908 51.8282 25.4262C51.5654 25.1902 51.4153 25.1366 50.997 25.099L50.6484 25.0669L50.6216 24.5843C50.5894 24.0319 50.4929 23.7852 50.2033 23.5332C49.8923 23.2597 49.5009 23.1471 49.1201 23.2168ZM49.6242 23.9354C49.8709 24.0373 49.9888 24.3054 49.9674 24.7344L49.9513 25.0669L48.3426 25.083C47.4578 25.0883 46.7017 25.083 46.6534 25.0669C46.6105 25.0454 46.9591 24.8631 47.4846 24.6271C47.9886 24.4073 48.5785 24.1392 48.7984 24.0426C49.2488 23.8442 49.3668 23.8281 49.6242 23.9354ZM51.2437 25.8176C51.6029 25.9678 51.5922 25.8337 51.5761 30.1344L51.56 33.9954L51.3831 34.167L51.2115 34.3439L50.3803 34.36L49.5491 34.3761V33.5825C49.5491 32.8585 49.5384 32.762 49.4204 32.5207C49.1523 31.9576 48.6697 31.6413 48.0476 31.6413C47.6294 31.6359 47.313 31.7646 47.0127 32.0542C46.6212 32.4295 46.5783 32.5743 46.5569 33.5288L46.5354 34.3761L45.7096 34.36L44.8838 34.3439L44.7122 34.167L44.5352 33.9954L44.5191 30.129C44.503 25.8552 44.4923 25.9999 44.8462 25.823C45.0929 25.6996 50.9487 25.6943 51.2437 25.8176ZM48.4445 32.4027C48.8627 32.6333 48.8735 32.6977 48.9056 34.4244L48.9324 35.9527L49.0772 36.2476C49.1577 36.4085 49.3346 36.6927 49.4633 36.8804C49.8494 37.4166 50.08 38.3175 50.1551 39.5562L50.1819 40.0013H48.4284H46.6802L46.3799 39.3686C46.2137 39.0254 45.9402 38.5106 45.7686 38.2317C45.1626 37.2397 44.9964 36.9126 44.8355 36.4353C44.68 35.9741 44.5084 34.9928 44.5728 34.9338C44.5888 34.9177 44.6639 34.9284 44.7444 34.9606C44.8248 34.9874 45.2645 35.0142 45.7203 35.0142H46.5461V35.7704C46.5461 36.1833 46.5676 36.5694 46.5998 36.623C46.6748 36.7624 46.9054 36.8053 47.0609 36.7034L47.1896 36.623V34.8105C47.1896 33.1696 47.2004 32.9819 47.2915 32.7888C47.4041 32.5421 47.5275 32.4242 47.7527 32.3437C48.0101 32.2526 48.2192 32.274 48.4445 32.4027ZM50.7825 41.5833V42.5217H48.4766H46.1708V41.5833V40.6448H48.4766H50.7825V41.5833Z" fill="#006666"/>
<path d="M47.4308 26.6915C46.798 26.9274 46.4012 27.2653 46.1384 27.8015C45.9936 28.0964 45.9829 28.1715 45.9829 28.7131C45.9829 29.2547 45.9936 29.3298 46.1384 29.6247C46.6157 30.59 47.6774 31.0458 48.6963 30.7241C49.9297 30.3326 50.5088 28.9276 49.9297 27.7479C49.6026 27.0829 48.9269 26.6539 48.1386 26.6164C47.8008 26.595 47.6399 26.6164 47.4308 26.6915ZM48.7392 27.4529C49.1468 27.6567 49.4363 28.1018 49.4792 28.5737C49.5275 29.1207 49.2916 29.6087 48.825 29.925C48.5783 30.0966 48.0957 30.2039 47.8276 30.1556C47.0769 30.0108 46.546 29.3191 46.6157 28.5737C46.7068 27.5602 47.8115 26.9757 48.7392 27.4529Z" fill="#D1A370"/>
<path d="M31.8532 25.0937C31.7459 25.1205 31.5904 25.2224 31.4939 25.3297C31.3223 25.512 31.3169 25.5388 31.3169 25.9624C31.3169 26.6006 31.4939 26.8365 32.0141 26.9009L32.2768 26.933L32.2929 28.4131C32.3036 29.2282 32.3036 29.9467 32.2929 30.0111C32.2768 30.1344 32.2661 30.1344 31.4617 30.1344C30.534 30.1344 30.3088 30.1988 30.0728 30.5152C29.7994 30.8798 29.8047 30.853 29.8101 32.6441C29.8101 34.2528 29.8154 34.344 29.9281 34.5692C29.9924 34.6979 30.1104 34.8588 30.1962 34.9178L30.3517 35.0357V38.6018C30.3517 40.9559 30.3731 42.2429 30.4107 42.3769C30.4804 42.6343 30.7914 42.9829 31.0381 43.0901C31.1936 43.1545 31.8264 43.1652 34.9741 43.1652C38.3203 43.1652 38.7386 43.1545 38.8941 43.0794C39.1354 42.9561 39.3016 42.7952 39.4196 42.5646C39.5161 42.3823 39.5215 42.1785 39.5215 38.7251L39.5269 35.0786L39.7092 34.9392C39.8057 34.8641 39.9344 34.6979 39.9988 34.5692C40.106 34.3493 40.1114 34.2528 40.1114 32.6441C40.1114 30.9817 40.1114 30.9549 39.988 30.7189C39.9183 30.5902 39.7575 30.4079 39.6341 30.3221C39.4089 30.1612 39.3982 30.1612 38.5134 30.1344L37.6178 30.1076V28.5257V26.9438L37.886 26.9062C38.4222 26.8312 38.5777 26.6435 38.5992 26.0321C38.6099 25.6782 38.5992 25.571 38.508 25.4316C38.2667 25.0508 38.4436 25.0669 35.0707 25.0562C33.4029 25.0508 31.9551 25.0669 31.8532 25.0937ZM37.9557 25.9892L37.9718 26.2198H34.9688H31.9604V25.9785V25.7372L34.9527 25.7479L37.9396 25.764L37.9557 25.9892ZM33.4619 28.5311V30.1344H33.2206H32.9793V28.5364C32.9793 27.657 32.99 26.9223 33.0007 26.9116C33.0168 26.8955 33.1241 26.8955 33.2421 26.9062L33.4619 26.9277V28.5311ZM35.7678 28.5257V30.1344H34.9688C34.1269 30.1344 34.0893 30.1237 34.1322 29.8878C34.143 29.8288 34.1537 29.1424 34.1537 28.3487L34.159 26.917H34.9634H35.7678V28.5257ZM36.9475 28.5257V30.1344H36.7062H36.4649V28.5257V26.917H36.7062H36.9475V28.5257ZM39.3392 30.9549L39.4679 31.105V32.6548V34.2045L39.3392 34.3547L39.2105 34.5048H34.9634H30.7163L30.5876 34.3547L30.4589 34.2045V32.6816C30.4589 31.0514 30.475 30.9281 30.7217 30.8369C30.8075 30.8047 32.502 30.7887 35.0331 30.794L39.2105 30.8047L39.3392 30.9549ZM38.878 38.6983C38.878 42.8971 38.9584 42.4842 38.1326 42.511L37.591 42.5325V39.9638C37.591 37.0574 37.591 37.0467 37.2103 36.7035C37.0923 36.5962 36.9368 36.489 36.8617 36.4621C36.7866 36.43 35.9447 36.4085 34.9366 36.4085C33.1884 36.4085 33.1455 36.4085 32.9257 36.5265C32.6683 36.6659 32.486 36.8804 32.3948 37.1539C32.3519 37.2826 32.3358 38.1352 32.3358 39.9317V42.5325L31.7942 42.511C31.3008 42.4949 31.2419 42.4842 31.1507 42.3662C31.0542 42.2482 31.0488 42.1088 31.0488 38.709V35.1751H34.9634H38.878V38.6983ZM36.792 37.2075C36.8832 37.3201 36.8939 37.4274 36.8939 38.1942C36.8939 39.0039 36.8885 39.0629 36.7759 39.1809L36.6633 39.3042H34.9527C33.3171 39.3042 33.2421 39.2989 33.1402 39.197C33.0436 39.1005 33.0329 39.02 33.0329 38.1835V37.2719L33.1777 37.1593C33.3171 37.052 33.36 37.0467 35.0063 37.0627L36.6901 37.0788L36.792 37.2075ZM34.9634 40.0014C35.9072 40.0014 36.6794 39.9799 36.7545 39.9477L36.8939 39.8941V41.2079C36.8939 42.3984 36.9046 42.5217 36.9904 42.57C37.0548 42.6075 36.4381 42.6236 34.9956 42.629C33.3708 42.629 32.9203 42.6129 32.9686 42.5646C33.0168 42.5164 33.0329 42.141 33.0329 41.1972V39.8941L33.1723 39.9477C33.2474 39.9799 34.0196 40.0014 34.9634 40.0014Z" fill="#006666"/>
<path d="M33.7404 32.0699C33.4079 32.2361 33.2471 32.4989 33.2471 32.8743C33.2471 33.2228 33.3758 33.4588 33.6707 33.6572C33.8477 33.7752 33.8959 33.7805 34.9631 33.7805C36.0302 33.7805 36.0785 33.7752 36.2554 33.6572C36.679 33.373 36.8077 32.8689 36.5611 32.4292C36.3305 32.0216 36.2072 31.9841 35.0167 31.968C34.0354 31.9519 33.9549 31.9626 33.7404 32.0699ZM35.9712 32.7509C36.057 32.8635 36.0516 32.9493 35.9498 33.0512C35.88 33.1209 35.7138 33.137 34.9631 33.137C34.0085 33.137 33.8906 33.1102 33.8906 32.8743C33.8906 32.6866 34.0139 32.6598 34.888 32.6437C35.8211 32.6276 35.8693 32.633 35.9712 32.7509Z" fill="#D1A370"/>
<path d="M34.3735 38.4997V38.8214H34.9634H35.5533V38.4997V38.1779H34.9634H34.3735V38.4997Z" fill="#D1A370"/>
<path d="M8.49978 26.0801L8.36572 26.2142V38.58C8.36572 50.8708 8.36572 50.9405 8.47297 51.0478C8.58022 51.155 8.64993 51.155 16.7848 51.155H24.9894L25.0698 51.0263C25.1449 50.9191 25.1502 49.9646 25.1395 42.1944L25.1234 33.4857L24.9786 33.0782C24.7802 32.5151 24.5282 32.1076 24.067 31.6035C23.5522 31.0351 22.1902 29.5443 22.1204 29.4692C22.0883 29.437 21.5949 28.8901 21.0158 28.2573C19.7395 26.8577 19.466 26.6003 18.9673 26.3536C18.1737 25.9622 18.5061 25.9836 13.3099 25.9675L8.63385 25.9461L8.49978 26.0801ZM18.0879 26.7344C18.7743 26.9113 19.1067 27.1473 19.9272 28.0589C20.2811 28.4396 20.5921 28.7828 20.619 28.815C20.6511 28.8472 21.1659 29.4156 21.7719 30.0805C22.3778 30.7455 22.9677 31.3943 23.0911 31.5284C23.8043 32.306 24.0241 32.5848 24.1689 32.8851C24.496 33.5608 24.4799 33.0513 24.4799 42.1461V50.4847L16.7741 50.5008L9.06284 50.5115V38.58V26.6486H13.4118C17.1977 26.6486 17.8037 26.6593 18.0879 26.7344Z" fill="#006666"/>
<path d="M11.9639 36.5477C11.0469 36.7944 10.3658 37.5237 10.1889 38.4407C10.1567 38.623 10.1353 40.3229 10.1353 43.0041C10.1353 45.6854 10.1567 47.3853 10.1889 47.5676C10.3176 48.2379 10.8163 48.9243 11.4115 49.2407C11.9531 49.5356 11.9907 49.5356 16.7311 49.541C21.4983 49.5463 21.5412 49.541 22.1096 49.2407C22.4582 49.053 22.9408 48.5757 23.0963 48.254C23.3805 47.6748 23.3805 47.7177 23.3805 43.0202C23.3805 40.0012 23.3645 38.5801 23.3216 38.3817C23.1285 37.4754 22.367 36.714 21.4608 36.5209C21.2624 36.478 19.8038 36.4619 16.715 36.4673C12.9934 36.4673 12.2052 36.4834 11.9639 36.5477ZM18.4471 38.7463V40.3229H16.7847C15.4924 40.3229 15.1223 40.3068 15.1223 40.2532C15.1223 40.221 15.117 39.5078 15.1063 38.6766L15.0955 37.1591L16.7311 37.1483C17.632 37.1376 18.3827 37.1376 18.4095 37.1483C18.431 37.1591 18.4471 37.8776 18.4471 38.7463ZM14.4252 38.741V40.3229H12.6234H10.8216L10.8431 39.3416C10.8592 38.4031 10.8645 38.3549 11.004 38.0975C11.2185 37.6899 11.6367 37.3307 12.0175 37.2234C12.1194 37.1912 12.6985 37.1644 13.3152 37.1644L14.4252 37.1591V38.741ZM21.6967 37.3146C22.2598 37.5773 22.6083 38.0653 22.6834 38.6766C22.7049 38.859 22.7156 39.2933 22.7156 39.6526L22.7102 40.2961L20.9031 40.3122L19.0906 40.3229V38.741V37.1591H20.2328H21.3696L21.6967 37.3146ZM22.7102 42.6556V44.3179L16.774 44.334L10.8377 44.3448L10.8216 42.677C10.8109 41.7601 10.8163 40.9986 10.827 40.9879C10.8431 40.9771 13.519 40.9718 16.7793 40.9771L22.7102 40.9932V42.6556ZM14.4252 46.9241V48.8546L13.2348 48.8385C12.1086 48.8224 12.0282 48.8171 11.8083 48.6991C11.4705 48.5168 11.1648 48.2218 11.004 47.9162C10.8592 47.6427 10.8592 47.6373 10.8431 46.3128L10.827 44.9883H12.6234H14.4252V46.9241ZM18.4363 46.9295L18.4471 48.8492H16.7633H15.0741L15.0687 47.1386C15.0687 46.1948 15.0794 45.3261 15.1009 45.2081L15.1384 44.9883L16.7793 44.999L18.4203 45.0151L18.4363 46.9295ZM22.7263 45.9213C22.7585 47.4228 22.6298 47.943 22.1364 48.4041C21.7128 48.7902 21.4554 48.8492 20.1899 48.8492H19.0906V46.9187V44.9883L20.9031 44.999L22.7102 45.0151L22.7263 45.9213Z" fill="#D1A370"/>
<path d="M0.182337 29.1961C0.1019 29.3248 0.1019 29.3946 0.209149 30.2472C0.359298 31.443 0.584521 32.6067 0.686408 32.7193C0.804382 32.8587 1.10468 32.848 1.18512 32.7032C1.25483 32.5691 1.23874 32.4351 1.05106 31.3679C0.975981 30.9389 0.879457 30.2954 0.836557 29.9308C0.750758 29.2015 0.686408 29.0621 0.423647 29.0621C0.321761 29.0621 0.241324 29.105 0.182337 29.1961Z" fill="#006666"/>
<path d="M1.55451 35.3356C1.49553 35.3946 1.44727 35.4804 1.44727 35.5233C1.44727 35.6681 2.01569 37.116 2.3857 37.9311C2.78788 38.8051 2.88977 38.9124 3.15253 38.7622C3.3563 38.6496 3.36167 38.4298 3.17398 38.0437C2.96484 37.6147 2.4715 36.4457 2.24627 35.8451C2.14975 35.5769 2.03177 35.3356 1.98351 35.2981C1.86018 35.1962 1.67249 35.2177 1.55451 35.3356Z" fill="#006666"/>
<path d="M4.34309 41.0202C4.2841 41.0791 4.23584 41.1757 4.23584 41.2347C4.23584 41.3687 4.90079 42.3554 5.57646 43.2188C6.35938 44.2162 6.39155 44.243 6.64895 44.0339C6.84736 43.873 6.80446 43.696 6.45054 43.2617C6.10198 42.8327 5.40486 41.8889 5.04021 41.3419C4.91151 41.1489 4.78281 40.9773 4.75064 40.9558C4.64339 40.8807 4.45034 40.9129 4.34309 41.0202Z" fill="#006666"/>
<path d="M45.1832 45.5134C44.5558 46.1247 44.3252 46.3339 43.7032 46.8701C43.2098 47.2884 43.1455 47.3903 43.2206 47.5833C43.2688 47.712 43.3761 47.7764 43.5423 47.7764C43.7139 47.7764 44.7328 46.913 45.7302 45.921C46.2021 45.4491 46.2772 45.2614 46.0734 45.079C45.8803 44.9021 45.7463 44.9664 45.1832 45.5134Z" fill="#006666"/>
<path d="M40.2447 49.3425C39.8908 49.5517 39.2097 49.927 38.7325 50.1791C37.8798 50.6241 37.8584 50.6349 37.8584 50.8065C37.8584 50.9995 37.9978 51.155 38.1641 51.155C38.3142 51.155 39.1776 50.7207 40.1911 50.1415C41.033 49.6535 41.2904 49.4605 41.2904 49.2996C41.2904 49.2031 41.0544 48.9564 40.9579 48.9564C40.915 48.9564 40.5986 49.128 40.2447 49.3425Z" fill="#006666"/>
<path d="M34.5884 51.863C33.9073 52.0775 33.2799 52.2437 32.6311 52.3885C32.3361 52.4528 32.0412 52.544 31.9768 52.5815C31.7784 52.7049 31.8213 53.0534 32.0412 53.1392C32.2825 53.2304 35.2051 52.4636 35.4625 52.2383C35.6662 52.056 35.5054 51.686 35.2265 51.6967C35.1568 51.7021 34.8672 51.7772 34.5884 51.863Z" fill="#006666"/>
<path d="M28.5546 52.9836C28.2919 53.005 27.5358 53.0211 26.8815 53.0265C25.7179 53.0318 25.6911 53.0318 25.6106 53.1498C25.5034 53.3 25.5034 53.4126 25.5999 53.5466C25.7072 53.6861 26.4257 53.7236 27.9326 53.67C29.1391 53.6217 29.2839 53.5895 29.359 53.3536C29.4019 53.2195 29.2732 52.9997 29.1338 52.9728C29.0802 52.9621 28.8228 52.9675 28.5546 52.9836Z" fill="#006666"/>
</svg>
