<svg width="32" height="33" viewBox="0 0 32 33" fill="none" xmlns="http://www.w3.org/2000/svg">
<path fill-rule="evenodd" clip-rule="evenodd" d="M6.34942 3.98861C6.34942 6.95585 6.35941 7.13901 6.52526 7.22759C6.62183 7.27954 7.8267 7.77975 9.20275 8.33989C10.5788 8.90003 12.5783 9.71794 13.6473 10.1589C14.7163 10.5998 15.688 10.9834 15.8066 11.0114C16.4483 10.8906 17.0703 10.6817 17.6549 10.3906C19.986 9.43154 23.4908 7.99754 24.5698 7.56062L25.4929 7.18696L25.5062 4.287C25.5135 2.68849 25.5302 1.2898 25.5422 1.16525C25.5728 0.866858 25.401 0.820901 24.9614 1.01072C24.7616 1.09798 23.8291 1.48162 22.8887 1.86393C21.9482 2.24624 20.7573 2.73645 20.2345 2.95358C19.7116 3.17071 18.5334 3.65159 17.6129 4.01925L15.9398 4.69196L14.8169 4.24371C13.8018 3.83809 12.0927 3.13674 8.17438 1.51825C7.43241 1.21187 6.71841 0.934128 6.58653 0.900826L6.34741 0.840881V3.98595M0.17451 7.68383C0.340355 8.10744 1.1869 10.2008 2.62622 13.7448C2.96591 14.5821 3.38485 15.6191 3.55868 16.0507L3.87306 16.836L3.63862 17.4307C3.51007 17.7578 3.36554 18.1108 3.31825 18.2153C3.27096 18.3199 2.90463 19.2184 2.50301 20.2135C1.24351 23.3346 1.17091 23.5117 0.626755 24.8518C0.4212 25.3244 0.243285 25.8086 0.0939167 26.3018C0.0939167 26.4217 0.534172 26.4417 3.20435 26.4417H6.31478L6.61251 25.7523C6.90224 25.0863 7.48835 23.643 9.34329 19.0479L10.2351 16.8366L10.0446 16.3384C9.94007 16.064 9.81285 15.7543 9.7629 15.6497C9.71295 15.5452 9.39924 14.7752 9.06555 13.938C8.73186 13.1008 8.19969 11.7747 7.87733 10.9901C7.28788 9.5481 7.18597 9.29966 6.63382 7.9709L6.32743 7.23359H0L0.176502 7.68517M25.4989 7.44739C25.4503 7.56528 25.2744 7.98022 25.1079 8.37452C24.7136 9.30099 24.2148 10.5225 23.8638 11.417C23.7099 11.8093 23.5067 12.3228 23.4122 12.558L22.8953 13.8414C22.7055 14.3123 22.4904 14.8258 22.4171 14.9824C22.3438 15.1389 22.146 15.6224 21.9788 16.0567L21.6745 16.846L21.9882 17.6252C22.1607 18.0542 22.3565 18.5337 22.4238 18.6909C22.491 18.8481 22.894 19.8318 23.3203 20.8782C23.7465 21.9246 24.4039 23.5291 24.7822 24.4442C25.1605 25.3594 25.4949 26.1833 25.5269 26.2745C25.6095 26.5109 31.847 26.5349 31.847 26.2991C31.847 26.1833 30.4616 22.7178 30.1366 22.0198C30.0879 21.9152 29.9434 21.5536 29.8155 21.2112C29.6877 20.8689 29.3859 20.1222 29.1448 19.5461C28.9037 18.97 28.5567 18.1168 28.3729 17.6485L28.0399 16.7967L28.4435 15.7943C28.6659 15.2428 28.9204 14.6207 29.009 14.4116C29.0975 14.2024 29.2654 13.7961 29.3813 13.5084C30.3324 11.1479 31.063 9.35494 31.1836 9.08719C31.4418 8.52453 31.6642 7.94614 31.8496 7.35547C31.8496 7.26023 31.1836 7.23492 28.7192 7.23492H25.5888L25.5009 7.44872M13.1284 14.0812L10.381 16.8386L13.1284 19.5961C14.6397 21.1126 15.9192 22.3528 15.9718 22.3522C16.0244 22.3515 17.3039 21.1106 18.8158 19.5954L21.5646 16.84L18.8165 14.0812C17.3045 12.564 16.0251 11.3224 15.9724 11.3224C15.9198 11.3224 14.6403 12.5633 13.1284 14.0805M14.6923 23.0795C13.7991 23.4638 12.7241 23.9074 7.82005 25.9162L6.39804 26.499L6.37339 29.656C6.3034 30.7085 6.32882 31.7652 6.44932 32.8131C6.5046 32.8131 7.34782 32.4867 8.32225 32.0884L12.1327 30.5299C13.2536 30.071 14.5305 29.5415 14.9734 29.353C15.9625 28.93 16.0071 28.93 16.9822 29.353C17.4171 29.5408 18.7965 30.1129 20.046 30.6244L23.8591 32.1843C24.705 32.5307 25.4409 32.8144 25.4942 32.8144C25.6108 31.7632 25.6431 30.7044 25.5908 29.648V26.4803L25.0933 26.3045C24.8195 26.2072 24.4272 26.0527 24.2168 25.9601C23.7505 25.7517 21.5859 24.8558 19.5724 24.0359C18.7385 23.6962 17.6329 23.2427 17.116 23.0289C15.9618 22.5506 15.9205 22.5513 14.691 23.0808" fill="#006666"/>
</svg>
