<svg width="29" height="33" viewBox="0 0 29 33" fill="none" xmlns="http://www.w3.org/2000/svg">
<path fill-rule="evenodd" clip-rule="evenodd" d="M22.5477 10.0482C22.2313 10.0662 22.1514 10.0802 22.0815 10.1328C21.8737 10.2806 21.8817 10.2886 22.2733 10.2893C29.0483 10.2946 25.453 14.4188 16.2476 17.1982C6.12369 20.2553 -0.905093 18.8726 5.24717 15.0349C5.62748 14.7978 5.95718 14.4861 5.89523 14.4235C5.65978 14.5196 5.43006 14.6293 5.20721 14.7518C-1.69036 18.2952 -0.174442 21.0386 8.16378 20.1028C16.8623 19.1264 27.3546 14.8044 28.0239 11.9224C28.3363 10.5784 26.1936 9.84439 22.5517 10.0489" fill="#006666"/>
<path fill-rule="evenodd" clip-rule="evenodd" d="M26.1437 0.925368C21.2189 1.67067 11.478 7.85224 6.90761 13.134C6.54577 13.544 6.20987 13.9762 5.90188 14.4281C5.86384 14.4969 5.81923 14.5618 5.76867 14.6219C5.44973 15.0552 5.18657 15.5269 4.9854 16.026C3.89509 18.872 7.19135 18.9266 12.8014 16.1558L13.5767 15.7729V15.651C13.5767 15.5024 13.6194 15.4971 13.1951 15.6969C6.59657 18.8094 4.83488 16.8099 9.79825 11.8405C15.1053 6.52681 24.318 1.58742 26.5686 2.84891C27.9353 3.61553 26.0491 6.59874 22.1321 9.8637L21.6392 10.274L21.7631 10.2833C21.8062 10.2893 21.8502 10.285 21.8913 10.2706C21.9324 10.2563 21.9695 10.2323 21.9995 10.2007C22.0615 10.1501 22.182 10.0582 22.266 9.99558C23.317 9.15042 24.3215 8.24905 25.2751 7.29543C29.4939 3.0727 29.8622 0.362559 26.141 0.925368M3.62667 16.2577L3.53809 16.3556L3.63599 16.2671C3.72724 16.1845 3.74789 16.1598 3.72458 16.1598C3.68903 16.1894 3.65626 16.2222 3.62667 16.2577Z" fill="#006666"/>
<path fill-rule="evenodd" clip-rule="evenodd" d="M23.0172 24.7798C23.0061 24.9376 23.0038 25.0959 23.0106 25.254L23.0192 25.6889L23.0339 25.2147C23.0485 24.7485 23.0466 24.7019 23.0172 24.7798ZM9.55713 29.498C9.55713 29.7545 9.56179 29.8597 9.56712 29.7312C9.57245 29.6026 9.57245 29.3928 9.56712 29.2649C9.56179 29.137 9.55713 29.2416 9.55713 29.498ZM19.4313 29.9643C19.4313 30.1135 19.4359 30.1781 19.4426 30.1081C19.4488 30.0179 19.4488 29.9273 19.4426 29.8371C19.4366 29.7578 19.4313 29.8151 19.4313 29.9643Z" fill="#006666"/>
<path fill-rule="evenodd" clip-rule="evenodd" d="M20.7213 24.6093C20.6993 24.6326 20.6693 24.644 20.6547 24.6346C20.64 24.6253 20.626 24.6346 20.626 24.6506C20.626 24.6666 20.6127 24.6759 20.5961 24.6659C20.5794 24.6559 20.5661 24.6626 20.5661 24.6813C20.5661 24.6999 20.5534 24.7072 20.5381 24.6979C20.5228 24.6886 20.4882 24.7026 20.4615 24.7299C20.4349 24.7572 20.4049 24.7712 20.3949 24.7618C20.3849 24.7525 20.3576 24.7618 20.3336 24.7885C20.3097 24.8151 20.277 24.8251 20.2617 24.8151C20.2464 24.8051 20.2337 24.8151 20.2337 24.8318C20.2337 24.8484 20.2204 24.8571 20.2037 24.8471C20.1871 24.8371 20.1738 24.8438 20.1738 24.8624C20.1738 24.8811 20.1611 24.8884 20.1458 24.8791C20.1305 24.8697 20.0959 24.8837 20.0692 24.911C20.0426 24.9384 20.0126 24.9523 20.0026 24.943C19.9926 24.9337 19.9653 24.943 19.9413 24.9696C19.9174 24.9963 19.8847 25.0063 19.8694 24.9963C19.8541 24.9863 19.8414 26.0313 19.8414 27.6458C19.8414 29.4035 19.8514 30.31 19.8714 30.31C19.8755 30.3098 19.8795 30.3088 19.8833 30.3071C19.887 30.3054 19.8904 30.3029 19.8931 30.2999C19.8959 30.2969 19.8981 30.2933 19.8995 30.2895C19.9009 30.2856 19.9015 30.2815 19.9014 30.2774C19.9014 30.2594 19.918 30.25 19.9387 30.2574C19.9529 30.2594 19.9675 30.2579 19.9811 30.253C19.9946 30.2481 20.0068 30.24 20.0166 30.2294C20.0386 30.2074 20.0692 30.1968 20.0832 30.2061C20.0972 30.2154 20.1112 30.2061 20.1112 30.1894C20.1112 30.1728 20.1245 30.1641 20.1411 30.1741C20.1578 30.1841 20.1711 30.1775 20.1711 30.1588C20.1711 30.1402 20.1831 30.1322 20.1971 30.1415C20.2111 30.1508 20.2544 30.1308 20.2923 30.0982C20.3165 30.0739 20.346 30.0555 20.3785 30.0446C20.411 30.0336 20.4455 30.0303 20.4795 30.0349C20.4921 30.0349 20.5021 30.0243 20.5021 30.0063C20.5021 29.9883 20.5155 29.983 20.5321 29.993C20.5488 30.0029 20.5621 29.9963 20.5621 29.9776C20.5621 29.959 20.5741 29.951 20.5881 29.9603C20.602 29.9697 20.6453 29.9497 20.6833 29.917C20.71 29.8908 20.742 29.8705 20.7772 29.8577C20.8085 29.8577 20.8118 24.596 20.7772 24.5787C20.7646 24.5713 20.7366 24.584 20.7153 24.608M10.4722 24.6213C10.4722 24.6386 10.4588 24.6446 10.4422 24.6346C10.4255 24.6246 10.4122 24.6346 10.4122 24.6513C10.4122 24.6679 10.3922 24.6786 10.3669 24.6693C10.3416 24.6599 10.3216 24.6659 10.3216 24.6826C10.3216 24.6992 10.3083 24.7052 10.2917 24.6946C10.275 24.6839 10.2617 24.6912 10.2617 24.7099C10.2617 24.7285 10.249 24.7359 10.2337 24.7259C10.2256 24.7216 10.2161 24.7206 10.2072 24.7232C10.1984 24.7259 10.1909 24.7318 10.1864 24.7399C10.1819 24.7479 10.1745 24.7539 10.1656 24.7565C10.1568 24.7591 10.1473 24.7581 10.1391 24.7538C10.1238 24.7445 10.1112 24.7539 10.1112 24.7698C10.1112 24.7858 10.0978 24.7951 10.0812 24.7851C10.0645 24.7752 10.0512 24.7818 10.0512 24.8005C10.0512 24.8191 10.0386 24.8265 10.0232 24.8165C10.0151 24.8122 10.0056 24.8112 9.99675 24.8138C9.98792 24.8164 9.98045 24.8224 9.97596 24.8304C9.97379 24.8345 9.97084 24.8381 9.96729 24.841C9.96373 24.8439 9.95963 24.846 9.95523 24.8473C9.95083 24.8486 9.94622 24.849 9.94166 24.8485C9.9371 24.848 9.93268 24.8467 9.92866 24.8444C9.91334 24.8351 9.90069 24.8444 9.90069 24.8604C9.90069 24.8764 9.88737 24.8857 9.87072 24.8757C9.85407 24.8657 9.84075 24.8724 9.84075 24.8911C9.84075 24.9097 9.82809 24.917 9.81277 24.9077C9.80463 24.9034 9.79512 24.9025 9.78628 24.9051C9.77745 24.9077 9.76998 24.9137 9.76549 24.9217C9.76332 24.9257 9.76037 24.9293 9.75682 24.9322C9.75326 24.9351 9.74916 24.9373 9.74476 24.9386C9.74036 24.9399 9.73575 24.9403 9.73119 24.9398C9.72663 24.9393 9.72221 24.9379 9.7182 24.9357C9.70288 24.9264 9.69022 24.9357 9.69022 24.9523C9.69022 24.969 9.6769 24.9776 9.66025 24.9677C9.6436 24.9577 9.63028 24.9636 9.63028 24.981C9.63028 24.9983 9.61363 25.0096 9.59231 25.0056C9.5364 25.8375 9.52728 26.6718 9.565 27.5046C9.57233 29.3029 9.56501 30.0123 9.54236 30.0156L9.47176 30.0229C9.44248 30.0289 9.41548 30.043 9.39383 30.0636C9.37185 30.0842 9.34121 30.0935 9.32722 30.0842C9.31324 30.0749 9.29925 30.0842 9.29925 30.1009C9.29925 30.1175 9.28593 30.1262 9.26928 30.1155C9.25263 30.1049 9.23931 30.1115 9.23931 30.1288C9.23931 30.1462 9.22932 30.1595 9.21666 30.1575C9.16271 30.1488 9.12341 30.1648 9.05748 30.2241C9.01885 30.2574 8.97289 30.28 8.95557 30.2747C8.94202 30.2735 8.92839 30.2756 8.91577 30.2807C8.90316 30.2858 8.89192 30.2938 8.88297 30.304C8.86099 30.326 8.83036 30.3366 8.81637 30.3273C8.80238 30.318 8.78839 30.3273 8.78839 30.344C8.78839 30.3606 8.77507 30.3693 8.75842 30.3593C8.74177 30.3493 8.72845 30.3553 8.72845 30.3726C8.72845 30.3899 8.71846 30.4032 8.7058 30.4006C8.65185 30.3919 8.61256 30.4079 8.54662 30.4672C8.50799 30.5005 8.46203 30.5231 8.44472 30.5178C8.43116 30.5167 8.41753 30.5187 8.40492 30.5238C8.3923 30.5289 8.38106 30.5369 8.37212 30.5471C8.35014 30.5691 8.3195 30.5797 8.30551 30.5704C8.29153 30.5611 8.27754 30.5704 8.27754 30.5871C8.27754 30.6037 8.26422 30.6124 8.24757 30.6024C8.23092 30.5924 8.21759 30.5991 8.21759 30.6177C8.21759 30.6364 8.20427 30.643 8.18762 30.633C8.17097 30.623 8.15765 30.6297 8.15765 30.6483C8.15765 30.667 8.14566 30.675 8.13167 30.6657C8.11769 30.6563 8.0744 30.6763 8.03577 30.7096C7.99713 30.7429 7.95184 30.7649 7.93453 30.7596C7.92098 30.7585 7.90736 30.7605 7.89475 30.7656C7.88215 30.7707 7.87091 30.7787 7.86193 30.7889C7.83995 30.8109 7.80931 30.8215 7.79532 30.8122C7.78134 30.8029 7.76735 30.8122 7.76735 30.8288C7.76735 30.8455 7.75403 30.8542 7.73738 30.8442C7.72073 30.8342 7.7074 30.8408 7.7074 30.8595C7.7074 30.8781 7.69408 30.8848 7.67743 30.8741C7.66078 30.8635 7.64746 30.8708 7.64746 30.8895C7.64746 30.9081 7.63547 30.9161 7.62148 30.9068C7.6075 30.8974 7.56421 30.9174 7.52557 30.9507C7.48694 30.984 7.44165 31.006 7.42434 31.0007C7.41073 30.9997 7.39708 31.0018 7.38447 31.007C7.37186 31.0122 7.36065 31.0203 7.35174 31.0307C7.32976 31.0526 7.29912 31.0633 7.28513 31.054C7.27115 31.0447 7.25716 31.054 7.25716 31.0706C7.25716 31.0873 7.24383 31.0959 7.22718 31.0859C7.21053 31.076 7.19721 31.0826 7.19721 31.1013C7.19721 31.1199 7.18389 31.1266 7.16724 31.1159C7.15059 31.1053 7.13727 31.1126 7.13727 31.1312C7.13727 31.1499 7.12528 31.1579 7.11129 31.1486C7.09731 31.1392 7.05402 31.1592 7.01538 31.1925C6.97675 31.2258 6.93146 31.2478 6.91415 31.2418C6.90054 31.2408 6.88689 31.2429 6.87428 31.2482C6.86167 31.2534 6.85046 31.2614 6.84155 31.2718C6.81957 31.2937 6.78893 31.3044 6.77494 31.2951C6.76096 31.2858 6.74696 31.2951 6.74696 31.3117C6.74696 31.3284 6.73364 31.337 6.71699 31.3271C6.70034 31.3171 6.68702 31.3237 6.68702 31.3424C6.68702 31.361 6.6737 31.3677 6.65705 31.3577C6.6404 31.3477 6.62708 31.3544 6.62708 31.373C6.62708 31.3917 6.61509 31.3997 6.6011 31.3903C6.58712 31.381 6.54315 31.4016 6.50519 31.4349C6.46723 31.4682 6.41861 31.4889 6.39796 31.4809C6.39386 31.4787 6.38937 31.4774 6.38475 31.477C6.38013 31.4766 6.37548 31.4771 6.37107 31.4786C6.36666 31.48 6.36259 31.4823 6.35908 31.4853C6.35558 31.4884 6.35272 31.4921 6.35067 31.4962C6.34512 31.5064 6.33731 31.5152 6.32784 31.5219C6.31838 31.5286 6.3075 31.533 6.29605 31.5349C6.2654 31.5415 6.23533 31.5507 6.20614 31.5622C6.17724 31.573 6.14635 31.5776 6.11555 31.5755C6.06058 31.576 6.00584 31.5827 5.95238 31.5955C5.89507 31.6145 5.83263 31.611 5.77787 31.5855C5.76576 31.5763 5.75175 31.57 5.73688 31.567C5.72201 31.564 5.70665 31.5644 5.69195 31.5682C5.67596 31.5782 5.66331 31.5682 5.66331 31.5522C5.66331 31.5362 5.64932 31.5269 5.63267 31.5375C5.55075 31.5881 5.42154 31.3797 5.41021 31.1779C5.39993 31.1114 5.40264 31.0435 5.41821 30.978C5.42886 30.978 5.45284 30.9441 5.47216 30.9028C5.4988 30.8462 5.4988 30.8322 5.47216 30.8475C5.44551 30.8628 5.48481 30.8169 5.54209 30.7563C5.59014 30.7017 5.64915 30.6579 5.71526 30.6277C5.75256 30.6184 5.78187 30.5977 5.78187 30.5817C5.78187 30.5658 5.79518 30.5618 5.81184 30.5718C5.82849 30.5817 5.84181 30.5757 5.84181 30.5584C5.84181 30.5411 5.8518 30.5291 5.86446 30.5324C5.90175 30.5424 6.02231 30.4938 6.02231 30.4659C6.02231 30.4379 6.1755 30.3653 6.19548 30.3853C6.20347 30.3933 6.23011 30.3799 6.25409 30.356C6.27807 30.332 6.31071 30.3193 6.32603 30.3293C6.34134 30.3393 6.354 30.3293 6.354 30.3127C6.354 30.296 6.36732 30.2873 6.38397 30.2973C6.40062 30.3073 6.41394 30.3007 6.41394 30.282C6.41394 30.2634 6.42727 30.2567 6.44392 30.2667C6.46057 30.2767 6.47389 30.27 6.47389 30.2514C6.47389 30.2327 6.48721 30.2261 6.50386 30.2361C6.52051 30.2461 6.53383 30.2394 6.53383 30.2207C6.53383 30.2021 6.54715 30.1954 6.56381 30.2054C6.58046 30.2154 6.59378 30.2088 6.59378 30.1908C6.59378 30.1728 6.60643 30.1648 6.62175 30.1741C6.63707 30.1834 6.67104 30.1695 6.69701 30.1435C6.72299 30.1175 6.7443 30.1049 6.7443 30.1155C6.7443 30.1262 6.76628 30.1155 6.79359 30.0862C6.80473 30.0736 6.81884 30.0639 6.83466 30.0581C6.85047 30.0523 6.86749 30.0505 6.88417 30.0529C6.90682 30.0616 6.92547 30.0562 6.92547 30.0416C6.92547 30.0136 7.04336 29.9637 7.08332 29.975C7.09597 29.975 7.10596 29.9663 7.10596 29.949C7.10596 29.9317 7.11929 29.9257 7.13594 29.9357C7.15259 29.9457 7.16591 29.939 7.16591 29.9204C7.16591 29.9017 7.17923 29.8951 7.19588 29.905C7.21253 29.915 7.22585 29.9084 7.22585 29.8897C7.22585 29.8711 7.23917 29.8644 7.25582 29.8744C7.27247 29.8844 7.2858 29.8784 7.2858 29.8611C7.2858 29.8438 7.29579 29.8311 7.30844 29.8331C7.36239 29.8418 7.40102 29.8258 7.46629 29.7665C7.48716 29.7439 7.51322 29.7266 7.54223 29.7163C7.57124 29.706 7.60232 29.7029 7.63281 29.7072C7.65699 29.6973 7.67845 29.6818 7.69541 29.6619C7.72072 29.6366 7.75469 29.6233 7.76935 29.6326C7.784 29.642 7.79732 29.6326 7.79732 29.616C7.79732 29.5993 7.81064 29.5907 7.82729 29.6007C7.84394 29.6107 7.85727 29.604 7.85727 29.5853C7.85727 29.5667 7.87059 29.56 7.88724 29.57C7.90389 29.58 7.91721 29.5734 7.91721 29.5547C7.91721 29.5361 7.93053 29.5294 7.94718 29.5394C7.96383 29.5494 7.97715 29.5434 7.97715 29.5261C7.97715 29.5087 7.98714 29.4968 7.9998 29.5001C8.0371 29.5101 8.15765 29.4615 8.15765 29.4335C8.15765 29.4055 8.31084 29.3329 8.33082 29.3529C8.33882 29.3609 8.36546 29.3476 8.38943 29.3236C8.41341 29.2996 8.44605 29.287 8.46137 29.2969C8.47669 29.3069 8.48934 29.297 8.48934 29.2803C8.48934 29.2636 8.50266 29.255 8.51931 29.2656C8.55703 29.0932 8.56715 28.9158 8.54928 28.7401C8.54928 28.2026 8.5393 28.1507 8.45071 28.2393C8.39543 28.2945 8.19828 28.3771 8.17563 28.3545C8.16631 28.3452 8.15832 28.3545 8.15832 28.3738C8.15832 28.3931 8.145 28.4024 8.12835 28.3925C8.11169 28.3825 8.09837 28.3891 8.09837 28.4078C8.09837 28.4264 8.08572 28.4338 8.0704 28.4244C8.05508 28.4151 8.02311 28.4244 7.99847 28.4511C7.97382 28.4777 7.94585 28.4864 7.93586 28.4764C7.92587 28.4664 7.91721 28.4764 7.91721 28.4957C7.91755 28.5003 7.91669 28.5048 7.9147 28.5089C7.91272 28.5131 7.90968 28.5166 7.90589 28.5191C7.90211 28.5217 7.89771 28.5232 7.89315 28.5236C7.88858 28.5239 7.88402 28.523 7.87991 28.521C7.86563 28.519 7.85108 28.5205 7.8375 28.5254C7.82393 28.5303 7.81175 28.5384 7.80198 28.549C7.78 28.5709 7.74936 28.5816 7.73538 28.5723C7.72139 28.563 7.7074 28.5723 7.7074 28.5889C7.7074 28.6056 7.69408 28.6142 7.67743 28.6043C7.66078 28.5943 7.64746 28.6009 7.64746 28.6196C7.64746 28.6382 7.63414 28.6449 7.61749 28.6349C7.60084 28.6249 7.58751 28.6316 7.58751 28.6502C7.58751 28.6689 7.57553 28.6769 7.56154 28.6675C7.54755 28.6582 7.50426 28.6782 7.46563 28.7115C7.427 28.7448 7.38171 28.7668 7.36439 28.7614C7.35084 28.7603 7.33723 28.7624 7.32462 28.7675C7.31202 28.7726 7.30077 28.7805 7.29179 28.7907C7.26981 28.8127 7.23917 28.8234 7.22519 28.8141C7.2112 28.8047 7.19721 28.8141 7.19721 28.8307C7.19721 28.8474 7.18389 28.856 7.16724 28.846C7.15059 28.836 7.13727 28.8427 7.13727 28.8614C7.13727 28.88 7.12395 28.8867 7.10729 28.8767C7.09064 28.8667 7.07732 28.8733 7.07732 28.892C7.07732 28.9106 7.06533 28.9186 7.05135 28.9093C7.03736 28.9 6.99407 28.92 6.95544 28.9533C6.91681 28.9866 6.87152 29.0085 6.8542 29.0032C6.8406 29.0022 6.82694 29.0044 6.81433 29.0096C6.80173 29.0148 6.79052 29.0229 6.7816 29.0332C6.75962 29.0552 6.72898 29.0658 6.715 29.0565C6.70101 29.0472 6.68702 29.0565 6.68702 29.0732C6.68702 29.0898 6.6737 29.0985 6.65705 29.0885C6.6404 29.0785 6.62708 29.0851 6.62708 29.1038C6.62708 29.1224 6.61376 29.1291 6.5971 29.1191C6.58045 29.1091 6.56713 29.1158 6.56713 29.1344C6.56713 29.1531 6.55514 29.1611 6.54116 29.1517C6.52717 29.1424 6.48388 29.1624 6.44525 29.1957C6.40662 29.229 6.36133 29.251 6.34401 29.245C6.33041 29.244 6.31675 29.2462 6.30414 29.2514C6.29154 29.2566 6.28033 29.2646 6.27141 29.275C6.24943 29.2969 6.21879 29.3076 6.20481 29.2983C6.19082 29.2889 6.17683 29.2983 6.17683 29.3149C6.17683 29.3316 6.16351 29.3402 6.14686 29.3302C6.13021 29.3203 6.11689 29.3269 6.11689 29.3456C6.11689 29.3642 6.10423 29.3715 6.08891 29.3622C6.07359 29.3529 6.04163 29.3622 6.01698 29.3889C5.99234 29.4155 5.96436 29.4242 5.95437 29.4142C5.94438 29.4042 5.93572 29.4142 5.93572 29.4328C5.93607 29.4374 5.93521 29.4419 5.93322 29.4461C5.93123 29.4502 5.92819 29.4537 5.92441 29.4563C5.92062 29.4589 5.91622 29.4604 5.91166 29.4607C5.9071 29.461 5.90254 29.4601 5.89843 29.4581C5.88414 29.4562 5.86959 29.4577 5.85602 29.4625C5.84245 29.4674 5.83026 29.4755 5.82049 29.4861C5.79852 29.5081 5.76788 29.5187 5.75389 29.5094C5.7399 29.5001 5.72592 29.5094 5.72592 29.5261C5.72592 29.5427 5.7126 29.5514 5.69595 29.5414C5.6793 29.5314 5.66598 29.538 5.66598 29.5567C5.66598 29.5753 5.65265 29.582 5.636 29.572C5.61935 29.562 5.60603 29.5687 5.60603 29.5873C5.60603 29.606 5.59271 29.6126 5.57606 29.6027C5.55941 29.5927 5.54609 29.6027 5.54609 29.6206C5.54609 29.6386 5.53743 29.6486 5.52677 29.638C5.51612 29.6273 5.48814 29.642 5.46416 29.6706C5.44019 29.6992 5.42819 29.7072 5.44151 29.6779C5.45484 29.6486 5.43353 29.6666 5.39956 29.7079C5.36559 29.7492 5.33695 29.7705 5.33695 29.7545C5.33695 29.7385 5.3163 29.7545 5.29232 29.7845C5.26834 29.8145 5.2477 29.8304 5.24703 29.8151C5.24703 29.7725 5.09584 29.923 5.09584 29.967C5.08798 29.999 5.0679 30.0268 5.03989 30.0443C5.01358 30.0598 4.99267 30.083 4.97994 30.1108C4.97045 30.1408 4.95454 30.1683 4.93332 30.1914C4.91001 30.2187 4.89803 30.2494 4.90802 30.258C4.91801 30.2667 4.90801 30.2754 4.88537 30.2754C4.86272 30.2754 4.85406 30.284 4.86406 30.2947C4.87405 30.3053 4.86405 30.3426 4.84807 30.3773C4.82998 30.4094 4.81525 30.4433 4.80411 30.4785C4.7748 30.6011 4.76881 30.6217 4.76282 30.6217C4.72467 30.8355 4.71973 31.0538 4.74816 31.2691C4.75948 31.3604 4.76948 31.4649 4.77014 31.5022C4.77081 31.5395 4.78413 31.5688 4.80011 31.5688C4.8161 31.5688 4.82076 31.5961 4.81011 31.6288C4.79945 31.6614 4.80478 31.6887 4.82609 31.6887C4.8474 31.6887 4.85407 31.7087 4.84474 31.7327C4.8398 31.7431 4.83836 31.7548 4.84064 31.7661C4.84293 31.7774 4.8488 31.7876 4.85739 31.7953C4.865 31.7999 4.87051 31.8072 4.87276 31.8158C4.875 31.8244 4.87379 31.8335 4.86939 31.8412C4.86006 31.8566 4.86938 31.8692 4.88537 31.8692C4.90135 31.8692 4.91068 31.8825 4.90069 31.8992C4.8907 31.9158 4.89736 31.9292 4.91601 31.9292C4.93466 31.9292 4.94198 31.9412 4.93266 31.9558C4.92333 31.9705 4.93799 31.9911 4.96529 32.0018C4.9926 32.0124 5.00592 32.0291 4.99593 32.0397C4.98594 32.0504 5.0006 32.0777 5.02924 32.1017C5.05788 32.1256 5.06454 32.1363 5.03656 32.1223C5.00859 32.1083 5.03057 32.1423 5.07852 32.1942C5.12648 32.2462 5.17643 32.2815 5.18909 32.2735C5.20174 32.2655 5.23171 32.2862 5.25569 32.3195C5.27967 32.3528 5.30698 32.3707 5.3183 32.3601C5.32962 32.3494 5.33828 32.3601 5.33828 32.3774C5.33828 32.3947 5.3516 32.4061 5.36825 32.3954C5.3849 32.3847 5.39823 32.3921 5.39823 32.4107C5.39823 32.4294 5.41088 32.4367 5.4262 32.4267C5.43391 32.4223 5.44303 32.4211 5.45162 32.4233C5.46021 32.4256 5.46758 32.4311 5.47216 32.4387C5.4798 32.4471 5.48996 32.4528 5.50113 32.455C5.5123 32.4572 5.52386 32.4556 5.5341 32.4507C5.55874 32.4413 5.57806 32.4467 5.57806 32.4627C5.57806 32.5373 6.28406 32.5106 6.41061 32.4314C6.42345 32.4253 6.43738 32.4219 6.45157 32.4213C6.46576 32.4207 6.47992 32.423 6.4932 32.428C6.51984 32.438 6.54116 32.428 6.54116 32.412C6.54112 32.4075 6.54218 32.4029 6.54426 32.3989C6.54633 32.3948 6.54935 32.3912 6.55307 32.3886C6.55679 32.3859 6.5611 32.3841 6.56563 32.3835C6.57016 32.3828 6.57479 32.3832 6.57912 32.3847C6.61319 32.3862 6.64707 32.3791 6.6777 32.3641C6.715 32.3434 6.7443 32.3374 6.7443 32.3501C6.7443 32.3627 6.75629 32.3561 6.76961 32.3348C6.78092 32.3218 6.7947 32.3113 6.81014 32.3037C6.82558 32.2962 6.84237 32.2918 6.85953 32.2908C6.8955 32.2908 6.92613 32.2755 6.92613 32.2622C6.92588 32.2593 6.92634 32.2565 6.92747 32.2538C6.9286 32.2512 6.93037 32.2489 6.93261 32.2471C6.93486 32.2453 6.93751 32.2441 6.94033 32.2436C6.94315 32.2431 6.94605 32.2433 6.94878 32.2442C6.9914 32.2555 7.10663 32.2042 7.10663 32.1736C7.10663 32.1569 7.12328 32.1483 7.14393 32.1556C7.15821 32.1576 7.17276 32.1561 7.18633 32.1512C7.1999 32.1463 7.21209 32.1383 7.22186 32.1276C7.24384 32.1057 7.27447 32.095 7.28846 32.1043C7.30245 32.1137 7.31643 32.1043 7.31643 32.0877C7.31643 32.071 7.32975 32.0624 7.34641 32.0724C7.36306 32.0823 7.37638 32.0757 7.37638 32.057C7.37638 32.0384 7.3897 32.0317 7.40635 32.0417C7.423 32.0517 7.43632 32.045 7.43632 32.0264C7.43632 32.0077 7.44898 32.0004 7.4643 32.0097C7.47962 32.0191 7.51425 32.0051 7.54089 31.9778C7.56753 31.9505 7.59751 31.9365 7.6075 31.9458C7.61749 31.9551 7.64479 31.9458 7.66877 31.9192C7.69275 31.8925 7.72539 31.8825 7.74071 31.8925C7.75603 31.9025 7.76868 31.8925 7.76868 31.8759C7.76868 31.8592 7.782 31.8506 7.79865 31.8606C7.8153 31.8705 7.82862 31.8639 7.82862 31.8452C7.82862 31.8266 7.84195 31.8199 7.8586 31.8299C7.87525 31.8399 7.88857 31.8332 7.88857 31.8146C7.88857 31.7959 7.90122 31.7886 7.91654 31.798C7.93186 31.8073 7.96316 31.7979 7.98315 31.7733C8.04296 31.7232 8.11711 31.6934 8.19495 31.688C8.2076 31.688 8.21759 31.6794 8.21759 31.6621C8.21759 31.6448 8.23092 31.6388 8.24757 31.6488C8.26422 31.6587 8.27754 31.6521 8.27754 31.6334C8.27754 31.6148 8.29086 31.6081 8.30751 31.6181C8.32416 31.6281 8.33748 31.6214 8.33748 31.6028C8.33748 31.5842 8.35014 31.5768 8.36545 31.5861C8.38077 31.5955 8.41541 31.5815 8.44205 31.5542C8.4687 31.5269 8.49867 31.5129 8.50866 31.5222C8.51865 31.5315 8.54596 31.5222 8.56993 31.4956C8.59391 31.4689 8.62654 31.4596 8.64186 31.4689C8.65718 31.4782 8.66984 31.4689 8.66984 31.4523C8.66984 31.4356 8.68316 31.4269 8.69981 31.4369C8.71646 31.4469 8.72978 31.4409 8.72978 31.4236C8.72978 31.4063 8.73977 31.3943 8.75243 31.3976C8.79505 31.409 8.91028 31.3577 8.91028 31.3271C8.91028 31.3104 8.92693 31.3017 8.94758 31.3091C8.96186 31.3111 8.97643 31.3096 8.99001 31.3047C9.0036 31.2999 9.01578 31.2918 9.02551 31.2811C9.04749 31.2591 9.07813 31.2485 9.09211 31.2578C9.1061 31.2671 9.12009 31.2578 9.12009 31.2411C9.12009 31.2245 9.13341 31.2158 9.15006 31.2258C9.16671 31.2358 9.18003 31.2291 9.18003 31.2105C9.18003 31.1918 9.19202 31.1845 9.206 31.1932C9.21999 31.2018 9.26395 31.1819 9.30192 31.1486C9.33988 31.1153 9.38983 31.0946 9.41115 31.1033C9.43246 31.1119 9.45045 31.1033 9.45045 31.0873C9.45045 31.0713 9.46377 31.0646 9.48042 31.0746C9.49707 31.0846 9.51039 31.078 9.51039 31.0593C9.51039 31.0407 9.52371 31.034 9.54036 31.044C9.55701 31.054 9.57033 31.0473 9.57033 31.0287C9.57033 31.01 9.58365 31.0034 9.60031 31.014C9.61696 31.0247 9.63028 31.0173 9.63028 30.9987C9.63028 30.98 9.64293 30.9727 9.65825 30.982C9.67357 30.9914 9.7082 30.9767 9.73484 30.9501C9.76149 30.9234 9.79146 30.9088 9.80145 30.9181C9.81144 30.9274 9.83875 30.9181 9.86273 30.8914C9.8867 30.8648 9.91934 30.8555 9.93466 30.8648C9.94998 30.8741 9.96263 30.8648 9.96263 30.8482C9.96263 30.8315 9.97595 30.8229 9.9926 30.8328C10.0093 30.8428 10.0226 30.8362 10.0226 30.8175C10.0226 30.7989 10.0359 30.7922 10.0526 30.8022C10.0692 30.8122 10.0825 30.8055 10.0825 30.7869C10.0825 30.7682 10.0958 30.7616 10.1125 30.7716C10.1291 30.7816 10.1425 30.7756 10.1425 30.7583C10.1436 30.7488 10.1485 30.7401 10.1559 30.7341C10.1634 30.7282 10.1729 30.7253 10.1824 30.7263C10.2258 30.7124 10.2642 30.6862 10.293 30.651C10.3316 30.6097 10.3536 30.5757 10.3409 30.5757C10.3283 30.5757 10.3463 30.5398 10.3809 30.4965C10.4111 30.4619 10.4325 30.4205 10.4435 30.3759C10.4435 30.3533 10.4568 30.3346 10.4735 30.3346C10.4901 30.3346 10.5021 30.3246 10.5001 30.312C10.4981 30.2945 10.4981 30.2769 10.5001 30.2594C10.5174 30.1262 10.5135 24.584 10.4955 24.584C10.4775 24.584 10.4728 24.5987 10.4728 24.616M15.4409 24.616C15.4409 24.6386 15.4315 24.6479 15.4209 24.6366C15.4102 24.6253 15.3776 24.6366 15.3489 24.6633C15.3162 24.6911 15.2762 24.7091 15.2337 24.7152C15.1984 24.7152 15.1671 24.7312 15.1671 24.7452C15.1671 24.7592 15.1538 24.7625 15.1371 24.7518C15.1205 24.7412 15.1072 24.7459 15.1072 24.7618C15.1072 24.7892 14.9653 24.8424 14.9193 24.8318C14.9067 24.8318 14.8967 24.8411 14.8967 24.8584C14.8967 24.8757 14.8834 24.8817 14.8667 24.8717C14.8501 24.8617 14.8368 24.8717 14.8368 24.8884C14.8368 24.905 14.8161 24.9157 14.7915 24.9064C14.7668 24.897 14.7462 24.9031 14.7462 24.9197C14.7462 24.9364 14.7329 24.9423 14.7162 24.9317C14.6996 24.921 14.6862 24.9317 14.6862 24.9497C14.6862 24.9676 14.6776 24.9783 14.6669 24.9677C14.6563 24.957 14.6223 24.9623 14.5917 24.979C14.525 25.0136 14.5011 30.3073 14.5657 30.3073C14.5736 30.3073 14.5812 30.3042 14.5869 30.2986C14.5925 30.2929 14.5956 30.2853 14.5956 30.2774C14.5956 30.2607 14.6056 30.2501 14.6183 30.2534C14.6597 30.2466 14.6993 30.2316 14.7349 30.2094C14.7868 30.1815 14.8374 30.1675 14.8474 30.1781C14.8574 30.1888 14.8661 30.1781 14.8661 30.1601C14.8661 30.1422 14.8794 30.1315 14.896 30.1421C14.9127 30.1528 14.926 30.1422 14.926 30.1255C14.926 30.1088 14.946 30.0982 14.9713 30.1075C14.9966 30.1168 15.0166 30.1108 15.0166 30.0942C15.0166 30.0775 15.0299 30.0715 15.0466 30.0822C15.0632 30.0929 15.0765 30.0855 15.0765 30.0669C15.0765 30.0483 15.0892 30.0409 15.1045 30.0502C15.1198 30.0596 15.1531 30.0462 15.1798 30.0203C15.2096 29.9923 15.2472 29.9742 15.2877 29.9683C15.321 29.9683 15.3483 29.953 15.3483 29.9403C15.3482 29.9374 15.3487 29.9345 15.3498 29.9318C15.3509 29.9291 15.3526 29.9267 15.3548 29.9247C15.3569 29.9228 15.3595 29.9213 15.3623 29.9204C15.3651 29.9196 15.368 29.9193 15.3709 29.9197C15.5234 29.9417 15.5148 30.1155 15.5041 27.2588C15.4988 25.5797 15.4855 24.624 15.4662 24.6046C15.4469 24.5853 15.4362 24.5887 15.4362 24.616M23.0458 24.7865C23.0267 24.9485 23.0189 25.1116 23.0225 25.2747L23.0185 25.7316L22.8333 25.9008C22.7314 25.9934 22.6668 26.0593 22.6901 26.0466C22.7134 26.034 22.7254 26.0353 22.7107 26.058C22.703 26.0684 22.693 26.0769 22.6814 26.0829C22.6699 26.0889 22.6571 26.0922 22.6441 26.0926C22.6195 26.0926 22.6068 26.1052 22.6162 26.1206C22.6255 26.1359 22.5862 26.1872 22.5276 26.2291C22.469 26.2711 22.429 26.3211 22.437 26.3344C22.445 26.3477 22.405 26.3957 22.3464 26.4403C22.2878 26.4849 22.2405 26.5395 22.2405 26.5615C22.2367 26.5773 22.2293 26.5921 22.2189 26.6047C22.2085 26.6172 22.1954 26.6273 22.1806 26.6341C22.1653 26.6415 22.1519 26.6523 22.1415 26.6657C22.1311 26.6791 22.124 26.6947 22.1206 26.7113C22.1195 26.7248 22.1147 26.7378 22.1067 26.7487C22.0987 26.7597 22.0879 26.7682 22.0753 26.7733C22.0507 26.7826 22.0374 26.8013 22.0454 26.8153C22.0534 26.8292 22.0227 26.8685 21.9788 26.9045C21.9348 26.9405 21.9162 26.9611 21.9408 26.9498C21.9654 26.9385 21.9555 26.9571 21.9182 26.9898C21.8874 27.0135 21.8643 27.0457 21.8515 27.0823C21.8517 27.0906 21.8487 27.0986 21.8431 27.1047C21.8375 27.1108 21.8298 27.1145 21.8216 27.115C21.8049 27.115 21.7916 27.135 21.7916 27.1603C21.7916 27.1856 21.7769 27.2056 21.7596 27.2056C21.7423 27.2056 21.7363 27.2189 21.7463 27.2355C21.7563 27.2522 21.7503 27.2655 21.733 27.2655C21.7157 27.2655 21.7037 27.2755 21.7064 27.2882C21.7143 27.3235 21.6338 27.476 21.6071 27.476C21.5938 27.476 21.5905 27.4966 21.5998 27.5213C21.6091 27.5459 21.5998 27.5666 21.5838 27.5666C21.5678 27.5666 21.5518 27.5766 21.5538 27.5892C21.5564 27.6015 21.5564 27.6142 21.5538 27.6265C21.5135 27.8621 21.5059 28.1021 21.5312 28.3398C21.5385 28.3471 21.5434 28.3564 21.5451 28.3666C21.5468 28.3768 21.5452 28.3873 21.5405 28.3965C21.536 28.4065 21.5349 28.4176 21.5373 28.4283C21.5397 28.439 21.5455 28.4486 21.5538 28.4557C21.5614 28.4603 21.5669 28.4677 21.5692 28.4763C21.5714 28.4848 21.5702 28.494 21.5658 28.5017C21.5565 28.517 21.5658 28.5297 21.5838 28.5297C21.6018 28.5297 21.6118 28.549 21.6024 28.5723C21.6003 28.578 21.5993 28.584 21.5996 28.5901C21.5998 28.5961 21.6012 28.6021 21.6038 28.6076C21.6063 28.6131 21.6099 28.6181 21.6144 28.6222C21.6188 28.6263 21.6241 28.6295 21.6298 28.6316C21.6537 28.6409 21.6697 28.6589 21.6657 28.6722C21.6264 28.7934 21.9401 28.922 22.2752 28.922C22.5882 28.922 22.6028 28.922 22.6215 28.89C22.6286 28.8821 22.6381 28.8767 22.6486 28.8747C22.659 28.8727 22.6699 28.8741 22.6794 28.8787C22.6901 28.8831 22.7018 28.8838 22.7129 28.8808C22.724 28.8778 22.7338 28.8712 22.7407 28.862C22.7451 28.8537 22.7526 28.8474 22.7616 28.8446C22.7705 28.8417 22.7803 28.8425 22.7887 28.8467C22.804 28.856 22.8166 28.8467 22.8166 28.8287C22.8166 28.8107 22.8366 28.8014 22.8606 28.8107C22.8708 28.8157 22.8824 28.8172 22.8936 28.8151C22.9047 28.8129 22.9149 28.8072 22.9225 28.7987C22.9745 28.7141 22.9971 28.7987 22.9971 29.0878C22.9971 29.2923 22.9865 29.3989 22.9672 29.3869C22.9479 29.3749 22.9372 29.3829 22.9372 29.4002C22.9372 29.4175 22.9272 29.4295 22.9146 29.4262C22.8719 29.4148 22.7567 29.4661 22.7567 29.4968C22.7567 29.5134 22.7401 29.5214 22.7194 29.5147C22.7051 29.5128 22.6906 29.5143 22.677 29.5192C22.6634 29.524 22.6512 29.5321 22.6415 29.5427C22.6195 29.5647 22.5889 29.5753 22.5749 29.566C22.5609 29.5567 22.5469 29.566 22.5469 29.5827C22.5469 29.5993 22.5336 29.608 22.5169 29.598C22.5003 29.588 22.487 29.5947 22.487 29.6133C22.487 29.632 22.4736 29.6386 22.457 29.6286C22.4403 29.6186 22.427 29.6253 22.427 29.644C22.427 29.6626 22.4144 29.6699 22.399 29.6606C22.3837 29.6513 22.3524 29.6606 22.3324 29.6853C22.2726 29.7354 22.1985 29.7652 22.1206 29.7705C22.108 29.7672 22.098 29.7792 22.098 29.7965C22.098 29.8138 22.0847 29.8198 22.068 29.8098C22.0514 29.7998 22.038 29.8065 22.038 29.8251C22.038 29.8438 22.0247 29.8504 22.0081 29.8404C21.9914 29.8305 21.9781 29.8371 21.9781 29.8558C21.9781 29.8744 21.9661 29.8824 21.9521 29.8731C21.9381 29.8637 21.8948 29.8837 21.8569 29.9164C21.8327 29.9407 21.8032 29.9591 21.7708 29.9701C21.7383 29.981 21.7037 29.9843 21.6697 29.9796C21.6571 29.9796 21.6471 29.9903 21.6471 30.0083C21.6471 30.0263 21.6337 30.0316 21.6171 30.0216C21.6004 30.0116 21.5871 30.0183 21.5871 30.0362C21.5871 30.0542 21.5738 30.0616 21.5572 30.0516C21.5405 30.0416 21.5272 30.0483 21.5272 30.0669C21.5272 30.0855 21.5152 30.0929 21.5012 30.0842C21.4872 30.0756 21.4439 30.0949 21.4053 30.1282C21.3667 30.1615 21.3214 30.1835 21.3041 30.1781C21.2905 30.1771 21.2768 30.1793 21.2642 30.1845C21.2516 30.1897 21.2404 30.1978 21.2315 30.2081C21.2095 30.2301 21.1788 30.2407 21.1649 30.2314C21.1509 30.2221 21.1369 30.2314 21.1369 30.2481C21.1369 30.2647 21.1236 30.2734 21.1069 30.2634C21.0903 30.2534 21.0769 30.26 21.0769 30.2787C21.0769 30.2973 21.0649 30.3053 21.051 30.296C21.037 30.2867 20.9937 30.3067 20.955 30.34C20.9164 30.3733 20.8711 30.3952 20.8538 30.3893C20.8402 30.3882 20.8266 30.3904 20.8139 30.3956C20.8013 30.4008 20.7901 30.4089 20.7812 30.4192C20.7592 30.4412 20.7286 30.4519 20.7146 30.4425C20.7006 30.4332 20.6866 30.4425 20.6866 30.4592C20.6866 30.4758 20.6733 30.4845 20.6567 30.4745C20.64 30.4645 20.6267 30.4712 20.6267 30.4898C20.6267 30.5085 20.6147 30.5165 20.6007 30.5071C20.5867 30.4978 20.5434 30.5178 20.5048 30.5511C20.4662 30.5844 20.4209 30.6064 20.4036 30.6011C20.39 30.6 20.3763 30.6022 20.3637 30.6074C20.3511 30.6126 20.3399 30.6207 20.331 30.631C20.309 30.653 20.2783 30.6637 20.2644 30.6543C20.2504 30.645 20.2364 30.6543 20.2364 30.671C20.2364 30.6876 20.2231 30.6963 20.2064 30.6863C20.1898 30.6763 20.1764 30.683 20.1764 30.7016C20.1764 30.7203 20.1645 30.7283 20.1505 30.719C20.1365 30.7096 20.0932 30.7296 20.0546 30.7629C20.0159 30.7962 19.9706 30.8182 19.9533 30.8129C19.9397 30.8118 19.9261 30.814 19.9135 30.8192C19.9008 30.8244 19.8896 30.8325 19.8807 30.8428C19.8587 30.8648 19.8281 30.8755 19.8141 30.8661C19.8001 30.8568 19.7861 30.8661 19.7861 30.8828C19.7861 30.8994 19.7728 30.9081 19.7562 30.8981C19.7395 30.8881 19.7262 30.8948 19.7262 30.9134C19.7262 30.9321 19.7142 30.9401 19.7002 30.9308C19.6862 30.9214 19.6429 30.9414 19.6043 30.9747C19.5657 31.008 19.5204 31.03 19.5031 31.0247C19.4895 31.0236 19.4759 31.0256 19.4633 31.0307C19.4507 31.0358 19.4395 31.0438 19.4305 31.054C19.4085 31.076 19.3779 31.0866 19.3639 31.0773C19.3499 31.068 19.3359 31.0773 19.3359 31.0939C19.3359 31.1106 19.3226 31.1192 19.3059 31.1086C19.2893 31.0979 19.2759 31.1046 19.2759 31.1219C19.2759 31.1392 19.266 31.1512 19.2533 31.1479C19.2107 31.1366 19.0954 31.1879 19.0954 31.2185C19.0954 31.2351 19.0788 31.2431 19.0582 31.2365C19.0439 31.2345 19.0293 31.236 19.0157 31.2409C19.0022 31.2457 18.99 31.2538 18.9802 31.2645C18.9582 31.2864 18.9276 31.2971 18.9136 31.2877C18.8996 31.2784 18.8856 31.2878 18.8856 31.3044C18.8856 31.3211 18.8723 31.3297 18.8557 31.3197C18.839 31.3097 18.8257 31.3164 18.8257 31.335C18.8257 31.3537 18.8124 31.3604 18.7957 31.3504C18.7791 31.3404 18.7658 31.347 18.7658 31.3657C18.7658 31.3843 18.7531 31.3916 18.7378 31.3823C18.7225 31.373 18.6878 31.387 18.6612 31.4143C18.6345 31.4416 18.6046 31.4556 18.5946 31.4463C18.5846 31.4369 18.5573 31.4463 18.5333 31.4729C18.5093 31.4996 18.4767 31.5096 18.4614 31.4996C18.4461 31.4896 18.4334 31.4996 18.4334 31.5162C18.4334 31.5329 18.4201 31.5415 18.4034 31.5315C18.3868 31.5215 18.3735 31.5282 18.3735 31.5468C18.3735 31.5655 18.3601 31.5722 18.3435 31.5622C18.3268 31.5522 18.3135 31.5588 18.3135 31.5775C18.3135 31.5961 18.3009 31.6035 18.2855 31.5941C18.2702 31.5848 18.2389 31.5941 18.2189 31.6188C18.1623 31.6658 18.0925 31.6942 18.0191 31.7C18.0125 31.696 17.9958 31.7114 17.9818 31.7333C17.9461 32.0877 17.9474 32.4449 17.9858 32.799C18.0025 32.809 18.0158 32.8023 18.0158 32.7837C18.0158 32.765 18.0284 32.7577 18.0438 32.767C18.0591 32.7764 18.0911 32.767 18.1157 32.7404C18.1403 32.7137 18.1683 32.7051 18.1783 32.7151C18.1883 32.7251 18.197 32.7151 18.197 32.6958C18.1966 32.6912 18.1975 32.6866 18.1995 32.6825C18.2014 32.6784 18.2045 32.6749 18.2083 32.6723C18.2121 32.6698 18.2165 32.6682 18.221 32.6679C18.2256 32.6676 18.2301 32.6685 18.2343 32.6705C18.2485 32.6724 18.2631 32.6709 18.2767 32.6661C18.2902 32.6612 18.3024 32.6531 18.3122 32.6425C18.3342 32.6205 18.3648 32.6099 18.3788 32.6192C18.3928 32.6285 18.4068 32.6192 18.4068 32.6025C18.4068 32.5859 18.4201 32.5772 18.4367 32.5872C18.4534 32.5972 18.4667 32.5905 18.4667 32.5719C18.4667 32.5532 18.48 32.5466 18.4967 32.5566C18.5133 32.5666 18.5266 32.5599 18.5266 32.5413C18.5266 32.5226 18.5393 32.5153 18.5546 32.5246C18.5699 32.5339 18.6006 32.5246 18.6212 32.5006C18.681 32.4505 18.7552 32.4207 18.833 32.4154C18.8457 32.4154 18.8557 32.4067 18.8557 32.3894C18.8557 32.3721 18.869 32.3661 18.8856 32.3761C18.9023 32.3861 18.9156 32.3794 18.9156 32.3608C18.9156 32.3421 18.9289 32.3354 18.9456 32.3454C18.9622 32.3554 18.9756 32.3488 18.9756 32.3301C18.9756 32.3115 18.9875 32.3035 19.0015 32.3128C19.0155 32.3221 19.0588 32.3021 19.0975 32.2688C19.1361 32.2355 19.1814 32.2136 19.1987 32.2196C19.2123 32.2206 19.2259 32.2184 19.2385 32.2132C19.2512 32.208 19.2624 32.1999 19.2713 32.1896C19.2933 32.1676 19.3239 32.1569 19.3379 32.1663C19.3519 32.1756 19.3659 32.1663 19.3659 32.1496C19.3659 32.133 19.3792 32.1243 19.3958 32.1343C19.4125 32.1443 19.4258 32.1376 19.4258 32.119C19.4258 32.1003 19.4378 32.0923 19.4518 32.1017C19.4658 32.111 19.5091 32.091 19.5477 32.0577C19.5863 32.0244 19.6316 32.0024 19.6489 32.0078C19.6625 32.0089 19.6761 32.0068 19.6887 32.0017C19.7013 31.9966 19.7126 31.9886 19.7215 31.9784C19.7435 31.9565 19.7741 31.9458 19.7881 31.9551C19.8021 31.9645 19.8161 31.9551 19.8161 31.9385C19.8161 31.9218 19.8294 31.9132 19.8461 31.9232C19.8627 31.9332 19.8761 31.9272 19.8761 31.9098C19.8761 31.8925 19.886 31.8805 19.8987 31.8839C19.9413 31.8952 20.0566 31.8439 20.0566 31.8133C20.0566 31.7966 20.0732 31.788 20.0939 31.7953C20.1081 31.7973 20.1227 31.7957 20.1363 31.7909C20.1498 31.786 20.162 31.7779 20.1718 31.7673C20.1938 31.7453 20.2244 31.7347 20.2384 31.744C20.2524 31.7533 20.2664 31.744 20.2664 31.7273C20.2664 31.7107 20.2797 31.702 20.2963 31.712C20.313 31.722 20.3263 31.7154 20.3263 31.6967C20.3263 31.6781 20.3396 31.6714 20.3563 31.6814C20.3729 31.6914 20.3862 31.6847 20.3862 31.6661C20.3862 31.6474 20.3982 31.6394 20.4122 31.6488C20.4262 31.6581 20.4695 31.6381 20.5068 31.6055C20.531 31.5812 20.5605 31.5628 20.5929 31.5518C20.6254 31.5408 20.66 31.5376 20.694 31.5422C20.7066 31.5422 20.7166 31.5315 20.7166 31.5142C20.7166 31.4969 20.7299 31.4909 20.7466 31.5009C20.7632 31.5109 20.7765 31.5042 20.7765 31.4856C20.7765 31.4669 20.7899 31.4603 20.8065 31.4703C20.8232 31.4802 20.8365 31.4736 20.8365 31.4549C20.8365 31.4363 20.8485 31.429 20.8625 31.4376C20.8765 31.4463 20.9198 31.427 20.9584 31.3937C20.997 31.3604 21.0423 31.3384 21.0596 31.3437C21.0732 31.3448 21.0868 31.3427 21.0994 31.3376C21.112 31.3326 21.1232 31.3246 21.1322 31.3144C21.1542 31.2924 21.1848 31.2818 21.1988 31.2911C21.2128 31.3004 21.2268 31.2911 21.2268 31.2744C21.2268 31.2578 21.2401 31.2491 21.2568 31.2591C21.2734 31.2691 21.2867 31.2625 21.2867 31.2438C21.2867 31.2252 21.2987 31.2172 21.3127 31.2265C21.3267 31.2358 21.37 31.2158 21.4086 31.1825C21.4473 31.1492 21.4925 31.1272 21.5099 31.1326C21.5235 31.1336 21.5371 31.1315 21.5498 31.1263C21.5624 31.1211 21.5736 31.113 21.5825 31.1026C21.6044 31.0806 21.6351 31.07 21.6491 31.0793C21.6631 31.0886 21.677 31.0793 21.677 31.0626C21.677 31.046 21.6904 31.0373 21.707 31.0473C21.7237 31.0573 21.737 31.0513 21.737 31.034C21.737 31.0167 21.747 31.0047 21.7596 31.008C21.8023 31.0193 21.9175 30.968 21.9175 30.9374C21.9175 30.9208 21.9341 30.9121 21.9548 30.9194C21.9691 30.9214 21.9836 30.9199 21.9972 30.915C22.0108 30.9102 22.0229 30.9021 22.0327 30.8914C22.0547 30.8695 22.0853 30.8588 22.0993 30.8682C22.1133 30.8775 22.1273 30.8681 22.1273 30.8515C22.1273 30.8348 22.1406 30.8262 22.1573 30.8362C22.1739 30.8462 22.1872 30.8395 22.1872 30.8209C22.1872 30.8022 22.2006 30.7955 22.2172 30.8055C22.2339 30.8155 22.2472 30.8089 22.2472 30.7902C22.2472 30.7716 22.2592 30.7636 22.2732 30.7729C22.2871 30.7822 22.3304 30.7622 22.3684 30.7296C22.3926 30.7053 22.422 30.6869 22.4545 30.6759C22.487 30.6649 22.5216 30.6617 22.5556 30.6663C22.5682 30.6663 22.5782 30.6557 22.5782 30.6377C22.5782 30.6197 22.5915 30.6144 22.6082 30.6244C22.6248 30.6344 22.6381 30.6277 22.6381 30.6091C22.6381 30.5904 22.6515 30.5837 22.6681 30.5937C22.6848 30.6037 22.6981 30.5971 22.6981 30.5784C22.6981 30.5598 22.7101 30.5518 22.7241 30.5611C22.7381 30.5704 22.7813 30.5504 22.82 30.5171C22.8586 30.4838 22.9039 30.4619 22.9212 30.4672C22.9348 30.4682 22.9485 30.466 22.9611 30.4608C22.9737 30.4556 22.9849 30.4475 22.9938 30.4372C23.0158 30.4152 23.0464 30.4046 23.0604 30.4139C23.0744 30.4232 23.0884 30.4139 23.0884 30.3973C23.0884 30.3806 23.1017 30.3719 23.1184 30.3819C23.135 30.3919 23.1483 30.3853 23.1483 30.3666C23.1483 30.348 23.1603 30.34 23.1743 30.3493C23.1883 30.3586 23.2316 30.3386 23.2702 30.3053C23.3089 30.272 23.3541 30.2501 23.3715 30.2554C23.385 30.2565 23.3986 30.2544 23.4112 30.2493C23.4238 30.2442 23.4351 30.2363 23.4441 30.2261C23.466 30.2041 23.4967 30.1934 23.5107 30.2028C23.5247 30.2121 23.5386 30.2028 23.5386 30.1861C23.5386 30.1695 23.552 30.1608 23.5686 30.1708C23.5853 30.1808 23.5986 30.1748 23.5986 30.1575C23.5986 30.1402 23.6086 30.1282 23.6212 30.1315C23.6639 30.1428 23.7791 30.0915 23.7791 30.0609C23.7791 30.0443 23.7957 30.0356 23.8164 30.0429C23.8307 30.0449 23.8452 30.0434 23.8588 30.0385C23.8724 30.0336 23.8845 30.0256 23.8943 30.0149C23.9163 29.993 23.9469 29.9823 23.9609 29.9916C23.9749 30.001 23.9889 29.9916 23.9889 29.975C23.9889 29.9583 24.0022 29.9497 24.0189 29.9597C24.0355 29.9696 24.0488 29.963 24.0488 29.9443C24.0488 29.9257 24.0622 29.919 24.0788 29.9297C24.0955 29.9403 24.1088 29.933 24.1088 29.9144C24.1088 29.8957 24.1208 29.8877 24.1348 29.8971C24.1487 29.9064 24.192 29.8864 24.23 29.8538C24.2542 29.8295 24.2837 29.8111 24.3161 29.8001C24.3486 29.7892 24.3832 29.7859 24.4172 29.7905C24.4298 29.7905 24.4398 29.7798 24.4398 29.7618C24.4398 29.7439 24.4531 29.7385 24.4698 29.7485C24.4864 29.7585 24.4997 29.7519 24.4997 29.7332C24.4997 29.7146 24.5131 29.7079 24.5297 29.7179C24.5464 29.7279 24.5597 29.7212 24.5597 29.7026C24.5597 29.6839 24.5717 29.6766 24.5857 29.6853C24.5997 29.6939 24.6429 29.6746 24.6816 29.6413C24.7202 29.608 24.7655 29.586 24.7828 29.5913C24.7964 29.5924 24.81 29.5904 24.8226 29.5853C24.8352 29.5802 24.8464 29.5722 24.8554 29.562C24.8774 29.5401 24.908 29.5294 24.922 29.5387C24.936 29.5481 24.95 29.5387 24.95 29.5221C24.95 29.5054 24.9633 29.4968 24.98 29.5068C24.9966 29.5167 25.0099 29.5101 25.0099 29.4914C25.0099 29.4728 25.0219 29.4648 25.0359 29.4741C25.0499 29.4834 25.0932 29.4634 25.1318 29.4301C25.1705 29.3968 25.2157 29.3749 25.2331 29.3802C25.2466 29.3813 25.2602 29.3792 25.2728 29.3741C25.2854 29.3691 25.2967 29.3611 25.3057 29.3509C25.3276 29.3289 25.3583 29.3183 25.3723 29.3276C25.3863 29.3369 25.4002 29.3276 25.4002 29.3129C25.4002 29.2983 25.4169 29.2843 25.4382 29.2883C25.4595 29.2923 25.4775 29.1657 25.4842 28.7421C25.4908 28.2759 25.4842 28.194 25.4515 28.2226C25.4289 28.2413 25.4016 28.2479 25.3909 28.2366C25.3803 28.2253 25.3709 28.2366 25.3709 28.2539C25.3709 28.2712 25.3576 28.2826 25.341 28.2719C25.3243 28.2612 25.311 28.2686 25.311 28.2872C25.311 28.3059 25.2977 28.3125 25.281 28.3025C25.2644 28.2925 25.251 28.2992 25.251 28.3179C25.251 28.3365 25.2391 28.3445 25.2251 28.3352C25.2111 28.3259 25.1678 28.3458 25.1292 28.3791C25.0905 28.4124 25.0452 28.4344 25.0279 28.4291C25.0144 28.428 25.0008 28.4301 24.9881 28.4351C24.9755 28.4402 24.9643 28.4482 24.9553 28.4584C24.9333 28.4804 24.9027 28.491 24.8887 28.4817C24.8747 28.4724 24.8607 28.4817 24.8607 28.4984C24.8607 28.515 24.8474 28.5237 24.8308 28.5137C24.8141 28.5037 24.8008 28.5103 24.8008 28.529C24.8008 28.5476 24.7881 28.555 24.7728 28.5457C24.7575 28.5363 24.7255 28.5456 24.7009 28.5723C24.6762 28.5989 24.6483 28.6082 24.6383 28.5976C24.6283 28.5869 24.6196 28.5976 24.6196 28.6169C24.62 28.6215 24.6191 28.626 24.6171 28.6302C24.6151 28.6343 24.6121 28.6378 24.6083 28.6404C24.6045 28.6429 24.6001 28.6445 24.5956 28.6448C24.591 28.6451 24.5864 28.6442 24.5823 28.6422C24.5681 28.6402 24.5535 28.6418 24.5399 28.6466C24.5264 28.6515 24.5142 28.6596 24.5044 28.6702C24.4824 28.6922 24.4518 28.7028 24.4378 28.6935C24.4238 28.6842 24.4098 28.6935 24.4098 28.7102C24.4098 28.7268 24.3965 28.7355 24.3799 28.7255C24.3632 28.7155 24.3499 28.7222 24.3499 28.7408C24.3499 28.7595 24.3366 28.7661 24.3199 28.7561C24.3033 28.7461 24.2899 28.7528 24.2899 28.7714C24.2899 28.7901 24.278 28.7981 24.264 28.7888C24.25 28.7794 24.2067 28.7994 24.1687 28.832C24.1446 28.8564 24.1151 28.8748 24.0826 28.8857C24.0501 28.8967 24.0155 28.9 23.9816 28.8953C23.9689 28.8953 23.9589 28.906 23.9589 28.924C23.9589 28.9419 23.9456 28.9473 23.9289 28.9373C23.9123 28.9273 23.899 28.934 23.899 28.9526C23.899 28.9713 23.8856 28.9779 23.869 28.9679C23.8523 28.9579 23.839 28.9646 23.839 28.9832C23.839 29.0019 23.827 29.0099 23.813 29.0006C23.7991 28.9912 23.7558 29.0112 23.7171 29.0445C23.6785 29.0778 23.6332 29.0998 23.6159 29.0945C23.6025 29.0934 23.589 29.0955 23.5765 29.1006C23.564 29.1057 23.5528 29.1136 23.544 29.1238C23.472 29.1957 23.4634 29.1677 23.4634 28.8653C23.4547 28.7699 23.4623 28.6738 23.486 28.5809C23.4987 28.5889 23.5087 28.5809 23.5087 28.561C23.5087 28.541 23.522 28.5357 23.5386 28.5457C23.5553 28.5556 23.5686 28.551 23.5686 28.5343C23.5686 28.5037 23.6852 28.4531 23.7291 28.4677C23.7431 28.4717 23.7458 28.4617 23.7365 28.4457C23.7271 28.4297 23.7884 28.3838 23.8697 28.3678C23.9509 28.3518 24.0202 28.3132 24.0202 28.2885C24.0202 28.2639 24.0335 28.2672 24.0502 28.2772C24.0668 28.2872 24.0801 28.2806 24.0801 28.2619C24.0801 28.2433 24.0935 28.2366 24.1101 28.2466C24.1268 28.2566 24.1401 28.2499 24.1401 28.2313C24.1401 28.2126 24.1534 28.206 24.1701 28.2159C24.1867 28.2259 24.2 28.2193 24.2 28.2006C24.2 28.182 24.2133 28.1753 24.23 28.1853C24.2466 28.1953 24.26 28.1906 24.26 28.174C24.26 28.144 24.3479 28.1074 24.3865 28.118C24.3985 28.122 24.4258 28.1007 24.4478 28.0708C24.4685 28.0417 24.4979 28.02 24.5317 28.0088C24.6296 27.9922 24.7115 27.9542 24.7115 27.9256C24.7115 27.9089 24.7249 27.9042 24.7415 27.9142C24.7582 27.9242 24.7715 27.9176 24.7715 27.8989C24.7715 27.8803 24.7848 27.8736 24.8015 27.8836C24.8181 27.8936 24.8314 27.8869 24.8314 27.8689C24.8314 27.851 24.8441 27.843 24.8594 27.8523C24.8747 27.8616 24.9067 27.8523 24.9313 27.8256C24.956 27.799 24.984 27.7903 24.9939 27.8003C25.0039 27.8103 25.0126 27.8003 25.0126 27.7837C25.0116 27.7754 25.014 27.7671 25.0191 27.7605C25.0242 27.7539 25.0317 27.7495 25.0399 27.7484C25.1428 27.6853 25.227 27.5958 25.2837 27.4893C25.2837 27.466 25.2937 27.4473 25.3063 27.4473C25.3288 27.3379 25.3365 27.2258 25.329 27.1143C25.3375 27.0026 25.3287 26.8903 25.303 26.7813C25.289 26.7813 25.285 26.7613 25.2943 26.736C25.3037 26.7107 25.2977 26.6907 25.281 26.6907C25.2644 26.6907 25.2584 26.6774 25.2684 26.6607C25.2784 26.6441 25.2717 26.6308 25.253 26.6308C25.2344 26.6308 25.2271 26.6188 25.2364 26.6041C25.2457 26.5895 25.2317 26.5688 25.2058 26.5588C25.1798 26.5488 25.1671 26.5275 25.1778 26.5102C25.1884 26.4929 25.1824 26.4796 25.1645 26.4796C25.1549 26.4781 25.1462 26.473 25.1402 26.4653C25.1343 26.4576 25.1315 26.448 25.1325 26.4383C25.1325 26.4156 25.0985 26.3717 25.0566 26.3464C25.0146 26.3211 24.99 26.2838 24.9979 26.2678C25.0059 26.2518 24.9979 26.2391 24.9706 26.2391C24.9576 26.2387 24.9449 26.2354 24.9334 26.2294C24.9219 26.2234 24.9118 26.2149 24.904 26.2045C24.8894 26.1812 24.8967 26.1779 24.9247 26.1938C24.9527 26.2098 24.92 26.1685 24.8634 26.1079C24.7548 25.9934 24.7042 25.9601 24.7755 26.0506C24.8128 26.0986 24.8121 26.0993 24.7642 26.062C24.7363 26.0416 24.7175 26.0113 24.7115 25.9774C24.7115 25.9534 24.6989 25.9421 24.6836 25.9514C24.6683 25.9607 24.6283 25.9341 24.595 25.8915C24.5617 25.8488 24.5284 25.8162 24.5144 25.8182C24.5004 25.8202 24.4584 25.7829 24.4145 25.7343C24.3769 25.6908 24.3318 25.6545 24.2813 25.627C24.252 25.6164 24.2287 25.5931 24.2287 25.5751C24.2287 25.5571 24.216 25.5498 24.2007 25.5598C24.1854 25.5698 24.1514 25.5464 24.1254 25.5098C24.0994 25.4732 24.0775 25.4559 24.0775 25.4718C24.0775 25.4878 24.0415 25.4605 23.9989 25.4106C23.9562 25.3606 23.9323 25.3406 23.9423 25.3653C23.9523 25.3899 23.9363 25.3806 23.9043 25.344C23.8723 25.3073 23.8377 25.2847 23.829 25.294C23.8204 25.3033 23.7971 25.2807 23.7778 25.2447C23.7584 25.2087 23.7351 25.1868 23.7258 25.1968C23.7165 25.2068 23.6892 25.1901 23.6659 25.1615C23.6425 25.1328 23.6292 25.1242 23.6425 25.1541C23.6559 25.1841 23.6472 25.1814 23.6192 25.1468C23.6003 25.1208 23.573 25.1023 23.542 25.0942C23.5335 25.0946 23.5253 25.0917 23.5189 25.0861C23.5126 25.0805 23.5087 25.0726 23.508 25.0642C23.5084 25.0607 23.5079 25.057 23.5066 25.0537C23.5052 25.0504 23.503 25.0475 23.5002 25.0452C23.4974 25.043 23.4941 25.0414 23.4906 25.0408C23.4871 25.0402 23.4834 25.0404 23.48 25.0416C23.4647 25.0456 23.4301 25.0223 23.4028 24.989C23.3755 24.9557 23.3621 24.949 23.3728 24.9736C23.3835 24.9983 23.3781 25.0016 23.3495 24.9663C23.3208 24.931 23.2982 24.9224 23.2875 24.933C23.2769 24.9437 23.2602 24.9297 23.2496 24.9024C23.2449 24.8894 23.2368 24.878 23.2261 24.8693C23.2154 24.8607 23.2026 24.855 23.189 24.8531C23.1792 24.8542 23.1694 24.8515 23.1615 24.8456C23.1537 24.8396 23.1485 24.8308 23.147 24.8211C23.147 24.8038 23.1343 24.7971 23.1197 24.8065C23.105 24.8158 23.0864 24.8065 23.0797 24.7872C23.0731 24.7678 23.0611 24.7618 23.0484 24.7818M23.6738 26.5502C23.6974 26.5557 23.7198 26.5649 23.7404 26.5775C23.7533 26.5835 23.7672 26.587 23.7814 26.5875C23.7956 26.5881 23.8098 26.5858 23.823 26.5808C23.8497 26.5708 23.871 26.5768 23.871 26.5948C23.871 26.6128 23.891 26.6194 23.9163 26.6101C23.9416 26.6008 23.9616 26.6101 23.9616 26.6281C23.9616 26.6461 23.9749 26.6547 23.9916 26.6448C24.0082 26.6348 24.0215 26.6414 24.0215 26.6601C24.0215 26.6787 24.0348 26.6854 24.0515 26.6754C24.0681 26.6654 24.0815 26.6754 24.0815 26.6934C24.0815 26.7114 24.0901 26.7214 24.1008 26.7107C24.1114 26.7 24.1394 26.7147 24.1634 26.7433C24.1874 26.772 24.198 26.778 24.184 26.7507C24.17 26.7233 24.198 26.738 24.242 26.7786C24.279 26.8079 24.3067 26.8472 24.3219 26.8919C24.3219 26.9138 24.3332 26.9318 24.3472 26.9318C24.3612 26.9318 24.3725 26.9858 24.3725 27.0524C24.3725 27.119 24.3612 27.1729 24.3472 27.1729C24.3443 27.1726 24.3414 27.173 24.3386 27.1741C24.3359 27.1752 24.3335 27.1769 24.3316 27.1791C24.3297 27.1814 24.3283 27.184 24.3277 27.1869C24.3271 27.1898 24.3271 27.1927 24.3279 27.1956C24.253 27.3086 24.156 27.4053 24.0428 27.48C24.0302 27.4766 24.0202 27.4873 24.0202 27.5039C24.0201 27.508 24.0192 27.5119 24.0176 27.5156C24.016 27.5193 24.0137 27.5226 24.0107 27.5254C24.0078 27.5282 24.0044 27.5304 24.0007 27.5318C23.9969 27.5333 23.9929 27.534 23.9889 27.5339C23.9521 27.5457 23.9189 27.5665 23.8923 27.5945C23.8563 27.6278 23.8097 27.6485 23.7884 27.6405C23.7671 27.6325 23.7498 27.6405 23.7498 27.6525C23.7498 27.6785 23.6792 27.7111 23.6166 27.7151C23.5815 27.7245 23.5483 27.74 23.5187 27.761L23.4521 27.8057V27.1749C23.4521 26.5022 23.4561 26.4842 23.6026 26.5308C23.6273 26.5388 23.6524 26.5455 23.6778 26.5508M23.0158 27.4833C23.0311 27.9562 23.0285 28.0161 22.9865 27.9981C22.9612 27.9882 22.9399 27.9942 22.9399 28.0101C22.9399 28.0261 22.9092 28.0408 22.8733 28.0414C22.8052 28.0455 22.7374 28.053 22.6701 28.0641C22.5411 28.0907 22.4081 28.0923 22.2785 28.0688C22.2372 28.0588 22.1926 28.0501 22.1799 28.0488C22.1433 28.0455 22.1026 27.9156 22.128 27.8809C22.1467 27.8513 22.1613 27.8193 22.1712 27.7857C22.2381 27.6805 22.318 27.5843 22.409 27.4993L22.6268 27.2788L22.4157 27.4747C22.2998 27.5826 22.2452 27.6245 22.2945 27.5686C22.514 27.3461 22.7464 27.1369 22.9905 26.9418C22.9951 26.9465 23.0071 27.1902 23.0171 27.4833M11.9648 27.0837C11.9548 27.0997 11.9208 27.105 11.8888 27.0943C11.8569 27.0837 11.8309 27.0903 11.8309 27.1116C11.8309 27.133 11.8109 27.139 11.7856 27.1296C11.7603 27.1203 11.7403 27.1263 11.7403 27.1429C11.7403 27.1596 11.727 27.1656 11.7103 27.1549C11.6937 27.1443 11.6804 27.1516 11.6804 27.1703C11.6804 27.1889 11.6677 27.1962 11.6517 27.1862C11.6357 27.1763 11.5938 27.1996 11.5571 27.2369C11.5205 27.2742 11.5019 27.2861 11.5152 27.2628C11.5285 27.2395 11.4692 27.2928 11.382 27.3814C11.3229 27.4368 11.2708 27.4992 11.2268 27.5672C11.2258 27.5747 11.2219 27.5815 11.2159 27.5861C11.2099 27.5908 11.2023 27.5928 11.1948 27.5919C11.1775 27.5919 11.1715 27.6052 11.1815 27.6218C11.1915 27.6385 11.1868 27.6518 11.1702 27.6518C11.1402 27.6518 11.0889 27.7677 11.1002 27.8097C11.1002 27.8223 11.0929 27.8323 11.0763 27.8323C11.0596 27.8323 11.0476 27.8423 11.0496 27.855C11.0523 27.8672 11.0523 27.88 11.0496 27.8923C11.031 27.9566 11.0163 28.022 11.0057 28.0881C11.0041 28.1088 10.999 28.1291 10.9903 28.148C10.9468 28.3609 10.9344 28.579 10.9537 28.7954C10.9577 29.3236 10.9584 29.3376 10.9957 29.3376C11.0103 29.3376 11.0143 29.3509 11.0037 29.3675C10.993 29.3842 10.9963 29.3975 11.0097 29.3982C11.0593 29.4264 11.1042 29.4621 11.1429 29.5041C11.1804 29.546 11.2256 29.5803 11.2761 29.6053C11.289 29.6026 11.3024 29.6026 11.3154 29.6053C11.4827 29.6229 11.6515 29.6204 11.8182 29.598C11.8269 29.584 11.8542 29.5814 11.8795 29.5907C11.8945 29.5949 11.9103 29.5956 11.9256 29.5926C11.9408 29.5896 11.9552 29.583 11.9674 29.5734C11.9907 29.554 12.018 29.5474 12.0287 29.5574C12.0394 29.5674 12.066 29.5614 12.088 29.5427C12.11 29.5241 12.1286 29.5194 12.1286 29.5314C12.1286 29.5434 12.1453 29.5407 12.1666 29.5241C12.2444 29.4789 12.3324 29.4541 12.4223 29.4521C12.4266 29.4534 12.4311 29.4536 12.4355 29.4528C12.4399 29.452 12.4441 29.4502 12.4477 29.4476C12.4513 29.445 12.4542 29.4415 12.4563 29.4376C12.4584 29.4336 12.4595 29.4293 12.4596 29.4248C12.4596 29.4068 12.4723 29.3995 12.4869 29.4088C12.4901 29.4111 12.4938 29.4126 12.4976 29.4132C12.5015 29.4138 12.5055 29.4135 12.5092 29.4122C12.5129 29.411 12.5162 29.4089 12.519 29.4061C12.5217 29.4033 12.5237 29.3999 12.5249 29.3962C12.5331 29.3849 12.5437 29.3756 12.5559 29.3688C12.5681 29.362 12.5816 29.358 12.5955 29.3569C12.6493 29.3434 12.7012 29.3233 12.75 29.2969C12.802 29.2696 12.8526 29.2557 12.8626 29.2656C12.8726 29.2756 12.8812 29.2656 12.8812 29.2496C12.8812 29.2337 12.8912 29.217 12.9039 29.2204C12.9432 29.231 13.0617 29.1811 13.0617 29.1537C13.0617 29.1264 13.1803 29.0771 13.2196 29.0871C13.2323 29.0871 13.2422 29.0785 13.2422 29.0612C13.2422 29.0438 13.2549 29.0372 13.2702 29.0465C13.2855 29.0558 13.3175 29.0465 13.3421 29.0199C13.3668 28.9932 13.3948 28.9846 13.4048 28.9946C13.4147 29.0045 13.4234 28.9946 13.4234 28.9766C13.4234 28.9586 13.4354 28.9473 13.45 28.9566C13.4647 28.9659 13.4847 28.9533 13.494 28.9279C13.4984 28.9163 13.506 28.9062 13.5159 28.8987C13.5258 28.8911 13.5376 28.8865 13.55 28.8853C13.5726 28.8853 13.5753 28.8933 13.556 28.9013C13.5366 28.9093 13.5326 28.9679 13.556 29.1011C13.5859 29.2883 13.5406 29.3902 13.4421 29.3576C13.4287 29.3567 13.4153 29.359 13.4029 29.3642C13.3906 29.3694 13.3796 29.3774 13.3708 29.3875C13.3488 29.4095 13.3182 29.4202 13.3042 29.4108C13.2902 29.4015 13.2762 29.4108 13.2762 29.4275C13.2762 29.4441 13.2629 29.4528 13.2462 29.4428C13.2296 29.4328 13.2163 29.4395 13.2163 29.4581C13.2163 29.4768 13.2043 29.4848 13.1903 29.4755C13.1763 29.4661 13.133 29.4861 13.0944 29.5194C13.0558 29.5527 13.0105 29.5747 12.9931 29.5687C12.9795 29.5677 12.9659 29.5698 12.9533 29.575C12.9407 29.5803 12.9295 29.5883 12.9205 29.5987C12.8986 29.6206 12.8679 29.6313 12.8539 29.622C12.84 29.6127 12.826 29.622 12.826 29.6386C12.826 29.6553 12.8126 29.6639 12.796 29.6539C12.7793 29.6439 12.766 29.6506 12.766 29.6693C12.766 29.6879 12.754 29.6959 12.74 29.6866C12.7261 29.6773 12.6828 29.6972 12.6441 29.7305C12.6055 29.7638 12.5602 29.7858 12.5429 29.7805C12.5293 29.7794 12.5157 29.7815 12.5031 29.7865C12.4905 29.7916 12.4793 29.7996 12.4703 29.8098C12.4483 29.8318 12.4177 29.8424 12.4037 29.8331C12.3897 29.8238 12.3757 29.8331 12.3757 29.8498C12.3757 29.8664 12.3624 29.8751 12.3457 29.8651C12.3291 29.8551 12.3158 29.8618 12.3158 29.8804C12.3158 29.8991 12.3038 29.907 12.2898 29.8977C12.2758 29.8884 12.2325 29.9084 12.1939 29.9417C12.1553 29.975 12.11 29.997 12.0926 29.9916C12.079 29.9906 12.0654 29.9928 12.0528 29.998C12.0402 30.0032 12.029 30.0113 12.0201 30.0216C11.9981 30.0436 11.9674 30.0542 11.9534 30.0449C11.9395 30.0356 11.9255 30.0449 11.9255 30.0616C11.9255 30.0782 11.9121 30.0869 11.8955 30.0769C11.8788 30.0669 11.8655 30.0736 11.8655 30.0922C11.8655 30.1109 11.8535 30.1182 11.8396 30.1095C11.8256 30.1009 11.7823 30.1202 11.7436 30.1535C11.705 30.1868 11.6597 30.2088 11.6424 30.2034C11.6289 30.2023 11.6152 30.2044 11.6026 30.2095C11.59 30.2146 11.5788 30.2225 11.5698 30.2327C11.5478 30.2547 11.5172 30.2654 11.5032 30.2561C11.4892 30.2467 11.4752 30.2561 11.4752 30.2727C11.4752 30.2894 11.4619 30.298 11.4452 30.288C11.4286 30.278 11.4153 30.2847 11.4153 30.3033C11.4153 30.322 11.4026 30.3293 11.3873 30.32C11.372 30.3107 11.34 30.32 11.3154 30.3466C11.2907 30.3733 11.2628 30.3819 11.2528 30.3719C11.2428 30.3619 11.2341 30.3719 11.2341 30.3913C11.2345 30.3958 11.2336 30.4004 11.2316 30.4045C11.2296 30.4086 11.2266 30.4122 11.2228 30.4147C11.219 30.4173 11.2146 30.4188 11.2101 30.4191C11.2055 30.4195 11.2009 30.4186 11.1968 30.4166C11.1825 30.4146 11.168 30.4161 11.1544 30.421C11.1408 30.4259 11.1287 30.4339 11.1189 30.4445C11.0969 30.4665 11.0663 30.4772 11.0523 30.4679C11.0383 30.4585 11.0243 30.4678 11.0243 30.4845C11.0243 30.5012 11.011 30.5098 10.9943 30.4998C10.9777 30.4898 10.9644 30.4958 10.9644 30.5131C10.9644 30.5305 10.9544 30.5424 10.9417 30.5391C10.8991 30.5278 10.7839 30.5791 10.7839 30.6097C10.7839 30.6264 10.7672 30.635 10.7466 30.6277C10.7323 30.6257 10.7177 30.6272 10.7042 30.6321C10.6906 30.637 10.6784 30.6451 10.6686 30.6557C10.6467 30.6777 10.616 30.6883 10.602 30.679C10.5709 30.8575 10.5616 31.0391 10.5741 31.2198C10.5741 31.7034 10.5801 31.7753 10.6194 31.7607C10.644 31.7513 10.6646 31.73 10.6646 31.714C10.6646 31.698 10.6813 31.69 10.7019 31.6967C10.7162 31.6987 10.7308 31.6972 10.7443 31.6923C10.7579 31.6874 10.7701 31.6793 10.7799 31.6687C10.8018 31.6468 10.8325 31.6361 10.8465 31.6454C10.8605 31.6547 10.8745 31.6454 10.8745 31.6288C10.8745 31.6121 10.8878 31.6035 10.9044 31.6135C10.9211 31.6234 10.9344 31.6168 10.9344 31.5981C10.9344 31.5795 10.947 31.5722 10.9624 31.5815C10.9777 31.5908 11.0097 31.5815 11.0343 31.5548C11.0589 31.5282 11.0869 31.5189 11.0969 31.5295C11.1069 31.5402 11.1156 31.5295 11.1156 31.5109C11.1152 31.5063 11.1161 31.5018 11.1181 31.4976C11.1201 31.4935 11.1231 31.49 11.1269 31.4874C11.1307 31.4848 11.1351 31.4833 11.1396 31.483C11.1442 31.4827 11.1487 31.4836 11.1529 31.4856C11.1671 31.4875 11.1817 31.486 11.1953 31.4812C11.2088 31.4763 11.221 31.4682 11.2308 31.4576C11.2528 31.4356 11.2834 31.425 11.2974 31.4343C11.3114 31.4436 11.3254 31.4343 11.3254 31.4176C11.3254 31.401 11.3387 31.3923 11.3553 31.4023C11.372 31.4123 11.3853 31.4056 11.3853 31.387C11.3853 31.3683 11.3973 31.361 11.4113 31.3697C11.4253 31.3783 11.4686 31.359 11.5072 31.3257C11.5458 31.2924 11.5911 31.2704 11.6084 31.2758C11.622 31.2769 11.6356 31.2748 11.6482 31.2697C11.6608 31.2646 11.6721 31.2567 11.681 31.2465C11.703 31.2245 11.7336 31.2138 11.7476 31.2231C11.7616 31.2325 11.7756 31.2232 11.7756 31.2065C11.7756 31.1899 11.7889 31.1812 11.8056 31.1912C11.8222 31.2012 11.8356 31.1945 11.8356 31.1759C11.8356 31.1572 11.8475 31.1492 11.8615 31.1585C11.8755 31.1679 11.9188 31.1479 11.9574 31.1146C11.9961 31.0813 12.0414 31.0593 12.0587 31.0653C12.0723 31.0663 12.0859 31.0641 12.0985 31.0589C12.1111 31.0537 12.1224 31.0456 12.1313 31.0353C12.1533 31.0133 12.1839 31.0027 12.1979 31.012C12.2119 31.0213 12.2259 31.012 12.2259 30.9954C12.2259 30.9787 12.2392 30.9701 12.2558 30.98C12.2725 30.99 12.2858 30.9834 12.2858 30.9647C12.2858 30.9461 12.2978 30.9387 12.3118 30.9474C12.3258 30.9561 12.3691 30.9367 12.407 30.9041C12.4312 30.8798 12.4607 30.8615 12.4932 30.8505C12.5256 30.8395 12.5602 30.8362 12.5942 30.8408C12.6068 30.8408 12.6168 30.8302 12.6168 30.8122C12.6168 30.7942 12.6301 30.7889 12.6468 30.7989C12.6634 30.8089 12.6768 30.8022 12.6768 30.7836C12.6768 30.7649 12.6901 30.7582 12.7067 30.7682C12.7234 30.7782 12.7367 30.7716 12.7367 30.7529C12.7367 30.7343 12.7494 30.7269 12.7647 30.7363C12.78 30.7456 12.8106 30.7363 12.8313 30.7116C12.8911 30.6615 12.9652 30.6316 13.0431 30.6264C13.0557 30.6264 13.0657 30.6177 13.0657 30.6004C13.0657 30.5831 13.0791 30.5771 13.0957 30.5871C13.1124 30.5971 13.1257 30.5904 13.1257 30.5718C13.1257 30.5531 13.139 30.5464 13.1557 30.5564C13.1723 30.5664 13.1856 30.5598 13.1856 30.5411C13.1856 30.5225 13.1983 30.5151 13.2136 30.5245C13.2289 30.5338 13.2636 30.5191 13.2902 30.4925C13.3168 30.4658 13.3468 30.4512 13.3568 30.4605C13.3668 30.4699 13.3941 30.4605 13.4181 30.4339C13.4421 30.4072 13.4747 30.3972 13.49 30.4072C13.5053 30.4172 13.518 30.4072 13.518 30.3906C13.518 30.3739 13.5313 30.3653 13.548 30.3753C13.5646 30.3853 13.5779 30.3753 13.5779 30.3586C13.5779 30.342 13.5972 30.3307 13.6206 30.34C13.6323 30.344 13.6452 30.3433 13.6564 30.3379C13.6676 30.3326 13.6763 30.323 13.6805 30.3113C13.6898 30.2867 13.7111 30.2747 13.7285 30.2847C13.7458 30.2947 13.7591 30.2893 13.7591 30.2714C13.7587 30.2675 13.7591 30.2636 13.7603 30.2599C13.7614 30.2562 13.7633 30.2528 13.7658 30.2498C13.7682 30.2469 13.7713 30.2444 13.7747 30.2426C13.7781 30.2408 13.7819 30.2397 13.7857 30.2394C13.841 30.2075 13.8907 30.1668 13.9329 30.1189C13.9995 30.0522 14.0455 29.9983 14.0362 29.9983C14.0268 29.9983 14.0488 29.9703 14.0855 29.9363C14.1221 29.9024 14.1441 29.8618 14.1347 29.8458C14.1254 29.8298 14.1347 29.8178 14.1507 29.8178C14.1667 29.8178 14.176 29.8045 14.166 29.7878C14.1561 29.7712 14.1614 29.7578 14.1787 29.7578C14.196 29.7578 14.202 29.7372 14.192 29.7126C14.182 29.6879 14.192 29.6673 14.21 29.6673C14.228 29.6673 14.2366 29.6539 14.2267 29.6373C14.222 29.6266 14.2201 29.6149 14.221 29.6033C14.222 29.5917 14.2257 29.5805 14.232 29.5707C14.2492 29.5352 14.2596 29.4968 14.2626 29.4575C14.2666 29.4162 14.2753 29.3176 14.2826 29.239C14.2937 29.1852 14.2884 29.1292 14.2673 29.0785C14.252 29.0685 14.2473 29.0352 14.2573 29.0032C14.2673 28.9712 14.2626 28.9453 14.2473 28.9453C14.232 28.9453 14.2087 28.9013 14.196 28.8474C14.1884 28.7955 14.1739 28.7448 14.1527 28.6968C14.1447 28.6753 14.1391 28.653 14.1361 28.6302C14.1307 28.5999 14.1149 28.5723 14.0914 28.5523C14.0678 28.5299 14.0539 28.499 14.0528 28.4664C14.0528 28.4304 14.0362 28.3998 14.0222 28.3998C14.0082 28.3998 14.0049 28.3865 14.0155 28.3698C14.0262 28.3532 14.0155 28.3398 13.9975 28.3398C13.9796 28.3398 13.9682 28.3318 13.9782 28.3225C13.9882 28.3132 13.9782 28.2825 13.9529 28.2559C13.9326 28.2351 13.9185 28.2091 13.9123 28.1807C13.9123 28.1667 13.887 28.132 13.853 28.1021C13.819 28.0721 13.7997 28.0401 13.8104 28.0301C13.821 28.0201 13.7971 27.9828 13.7571 27.9482C13.7171 27.9136 13.7051 27.8942 13.7305 27.9062C13.7558 27.9182 13.7305 27.8856 13.6705 27.8343C13.6106 27.783 13.5746 27.7404 13.5859 27.7397C13.5972 27.7391 13.5699 27.7004 13.526 27.6545C13.482 27.6085 13.4361 27.5746 13.4247 27.5799C13.4134 27.5852 13.3828 27.5592 13.3581 27.5219C13.3335 27.4846 13.3102 27.468 13.3102 27.484C13.3102 27.4999 13.2835 27.484 13.2516 27.444C13.2196 27.404 13.185 27.3774 13.1783 27.3841C13.1716 27.3907 13.1363 27.3701 13.1037 27.3428C13.0711 27.3155 13.0371 27.3001 13.0271 27.3101C13.0171 27.3201 13.0098 27.3101 13.0098 27.2908C13.0098 27.2715 12.9965 27.2622 12.9798 27.2728C12.9632 27.2835 12.9498 27.2802 12.9498 27.2662C12.9498 27.2522 12.9205 27.2382 12.8832 27.2355C12.8487 27.2331 12.8164 27.2174 12.7933 27.1916C12.7793 27.1703 12.768 27.1656 12.768 27.1809C12.768 27.1962 12.7527 27.1942 12.7341 27.1756C12.7242 27.1663 12.712 27.1597 12.6988 27.1566C12.6856 27.1534 12.6718 27.1538 12.6588 27.1576C12.6361 27.1663 12.6175 27.1576 12.6175 27.1383C12.6175 27.119 12.5942 27.1103 12.5569 27.1223C12.5196 27.1343 12.4969 27.1276 12.4969 27.1103C12.4969 27.093 12.4596 27.0797 12.4143 27.0797C12.3691 27.0797 12.2538 27.0737 12.1586 27.0657C12.0949 27.0532 12.0291 27.0583 11.9681 27.0803M17.1559 27.5772C17.1354 27.7293 17.128 27.8828 17.1339 28.0361V28.4737L16.9907 28.6069C16.9122 28.6795 16.8669 28.7288 16.8902 28.7168C16.9135 28.7048 16.9248 28.7068 16.9108 28.7301C16.903 28.7405 16.893 28.7491 16.8815 28.7551C16.8699 28.761 16.8572 28.7644 16.8442 28.7648C16.8196 28.7648 16.8063 28.7768 16.8156 28.7921C16.8249 28.8074 16.7816 28.864 16.7197 28.9186C16.6577 28.9733 16.6104 29.0285 16.6144 29.0419C16.6184 29.0552 16.6011 29.0658 16.5751 29.0658C16.5492 29.0658 16.5358 29.0785 16.5452 29.0938C16.5545 29.1091 16.5219 29.1504 16.4719 29.1864C16.4219 29.2223 16.3813 29.2696 16.3813 29.2929C16.3775 29.3092 16.3699 29.3244 16.3593 29.3373C16.3487 29.3503 16.3353 29.3606 16.32 29.3675C16.2867 29.3855 16.2668 29.4128 16.2761 29.4275C16.2854 29.4421 16.2588 29.4774 16.2168 29.5047C16.1748 29.532 16.1402 29.5714 16.1402 29.5973C16.1389 29.6105 16.134 29.6231 16.126 29.6337C16.118 29.6443 16.1073 29.6524 16.0949 29.6573C16.0828 29.6613 16.0721 29.6687 16.0641 29.6786C16.056 29.6885 16.051 29.7005 16.0496 29.7132C16.0476 29.7261 16.0421 29.7381 16.0338 29.748C16.0255 29.758 16.0146 29.7655 16.0023 29.7698C15.9764 29.7798 15.9637 29.8018 15.9744 29.8185C15.985 29.8351 15.9744 29.8571 15.9464 29.8671C15.9338 29.8718 15.9227 29.8798 15.9143 29.8904C15.906 29.901 15.9007 29.9136 15.8991 29.927C15.8998 29.9372 15.8966 29.9473 15.89 29.9552C15.8834 29.963 15.874 29.968 15.8638 29.969C15.8445 29.969 15.8372 29.9776 15.8485 29.9883C15.8598 29.999 15.8445 30.0269 15.8158 30.0509C15.7872 30.0749 15.7785 30.0875 15.8085 30.0742C15.8385 30.0609 15.8365 30.0689 15.8012 30.0975C15.7659 30.1262 15.7579 30.1495 15.7686 30.1601C15.7792 30.1708 15.7686 30.1794 15.7512 30.1794C15.7339 30.1794 15.7226 30.1928 15.7333 30.2094C15.7439 30.2261 15.7366 30.2394 15.7179 30.2394C15.6993 30.2394 15.6926 30.2527 15.7026 30.2694C15.7126 30.286 15.7073 30.2993 15.69 30.2993C15.6726 30.2993 15.6666 30.32 15.6766 30.3446C15.6866 30.3693 15.6766 30.3899 15.6587 30.3899C15.6407 30.3899 15.632 30.4033 15.642 30.4199C15.6467 30.4305 15.6488 30.4422 15.648 30.4538C15.6471 30.4654 15.6435 30.4766 15.6373 30.4865C15.575 30.7209 15.575 30.9675 15.6373 31.2018C15.6527 31.2018 15.658 31.2225 15.648 31.2471C15.638 31.2718 15.6407 31.2924 15.652 31.2924C15.6633 31.2924 15.6893 31.3264 15.7086 31.3677C15.7352 31.4243 15.7352 31.4383 15.7086 31.423C15.682 31.4076 15.7046 31.433 15.7412 31.4696C15.7715 31.4954 15.7944 31.5287 15.8078 31.5662C15.8078 31.5828 15.8192 31.5901 15.8325 31.5815C15.8458 31.5728 15.8804 31.5935 15.9084 31.6261C15.9364 31.6588 15.975 31.6781 15.989 31.6681C16.003 31.6581 16.0183 31.6641 16.0183 31.6807C16.0183 31.6974 16.037 31.704 16.0603 31.6954C16.0698 31.6907 16.0805 31.6891 16.0909 31.6909C16.1013 31.6927 16.1109 31.6978 16.1182 31.7054C16.3134 31.7374 16.5133 31.7262 16.7037 31.6727C16.7136 31.6666 16.7249 31.6631 16.7365 31.6624C16.7481 31.6617 16.7597 31.6639 16.7703 31.6687C16.7869 31.6787 16.8003 31.6687 16.8003 31.6521C16.8003 31.6354 16.8202 31.6248 16.8442 31.6341C16.8545 31.639 16.866 31.6404 16.8772 31.6382C16.8883 31.6361 16.8985 31.6304 16.9062 31.6221C16.9107 31.6145 16.9181 31.609 16.9267 31.6067C16.9353 31.6045 16.9444 31.6057 16.9521 31.6101C16.9674 31.6194 16.9801 31.6101 16.9801 31.5921C16.9801 31.5741 17.0001 31.5648 17.0254 31.5742C17.0507 31.5835 17.0707 31.5782 17.0707 31.5622C17.0707 31.5462 17.0807 31.5355 17.0933 31.5389C17.1359 31.5502 17.2512 31.4989 17.2512 31.4689C17.2512 31.4523 17.2638 31.4469 17.2785 31.4563C17.2814 31.4586 17.2849 31.4603 17.2886 31.4611C17.2923 31.4619 17.2961 31.4619 17.2998 31.461C17.3034 31.4601 17.3068 31.4583 17.3097 31.4559C17.3126 31.4535 17.3149 31.4504 17.3164 31.4469C17.4205 31.3629 17.5431 31.3049 17.6741 31.2778C17.6901 31.2878 17.7034 31.2778 17.7034 31.2618C17.7034 31.2458 17.7167 31.2365 17.7334 31.2465C17.75 31.2565 17.7634 31.2524 17.7634 31.2365C17.7634 31.2065 17.9439 31.1212 17.9818 31.1332C17.9945 31.1372 18.0045 31.1259 18.0045 31.1086C18.0045 31.0913 18.0178 31.0853 18.0344 31.0953C18.0511 31.1052 18.0644 31.0986 18.0644 31.0806C18.0644 31.0626 18.0777 31.0553 18.0944 31.0653C18.111 31.0753 18.1244 31.0686 18.1244 31.05C18.1244 31.0313 18.1377 31.0247 18.1543 31.0347C18.171 31.0447 18.1843 31.038 18.1843 31.0193C18.1843 31.0007 18.1976 30.994 18.2143 31.0047C18.2309 31.0153 18.2442 31.008 18.2442 30.9894C18.2442 30.9707 18.2576 30.9641 18.2742 30.9741C18.2909 30.984 18.3042 30.9774 18.3042 30.9587C18.3042 30.9401 18.3175 30.9334 18.3342 30.9434C18.3508 30.9534 18.3641 30.9467 18.3641 30.9281C18.3641 30.9094 18.3775 30.9028 18.3941 30.9128C18.4108 30.9228 18.4241 30.9161 18.4241 30.8974C18.4241 30.8788 18.4374 30.8721 18.454 30.8821C18.4707 30.8921 18.484 30.8855 18.484 30.8668C18.484 30.8482 18.4973 30.8415 18.514 30.8515C18.5306 30.8615 18.544 30.8548 18.544 30.8368C18.544 30.8188 18.5573 30.8115 18.5739 30.8215C18.5906 30.8315 18.6039 30.8215 18.6039 30.8035C18.6039 30.7856 18.6126 30.7749 18.6226 30.7855C18.6439 30.8069 18.8657 30.6996 18.9276 30.6377C18.9442 30.6196 18.9651 30.6059 18.9884 30.598C19.0117 30.5901 19.0366 30.5882 19.0608 30.5924C19.0735 30.5924 19.0835 30.5804 19.0835 30.5611C19.0835 30.5418 19.0915 30.5345 19.1014 30.5444C19.1114 30.5544 19.1501 30.5298 19.1874 30.4898C19.2247 30.4499 19.266 30.4272 19.2793 30.4392C19.2926 30.4512 19.2946 30.4452 19.2833 30.4259C19.272 30.4066 19.2899 30.3713 19.3232 30.348C19.3565 30.3247 19.3745 30.2967 19.3639 30.2854C19.3532 30.274 19.3585 30.2654 19.3765 30.2654C19.3945 30.2654 19.4085 30.1428 19.4072 29.9044C19.4172 29.7832 19.4068 29.6612 19.3765 29.5434C19.3605 29.5434 19.3559 29.5234 19.3652 29.4981C19.3745 29.4728 19.3652 29.4528 19.3485 29.4528C19.3319 29.4528 19.3232 29.4441 19.3339 29.4335C19.3446 29.4228 19.3299 29.3949 19.3013 29.3709C19.2726 29.3469 19.2646 29.3349 19.2939 29.3482C19.3232 29.3616 19.3053 29.3389 19.264 29.3029C19.2227 29.267 19.2093 29.2463 19.234 29.2577C19.2586 29.269 19.252 29.2577 19.2187 29.229C19.1854 29.2004 19.1581 29.1711 19.1581 29.1591C19.0862 29.0681 19.0073 28.9828 18.9223 28.904C18.8585 28.8305 18.7863 28.7648 18.7071 28.7082C18.7185 28.7295 18.6785 28.6962 18.6192 28.6342C18.5599 28.5723 18.5113 28.5303 18.5113 28.541C18.5113 28.5516 18.4787 28.525 18.4394 28.4824C18.4001 28.4398 18.3601 28.4118 18.3515 28.4204C18.3428 28.4291 18.3128 28.4011 18.2849 28.3585C18.2569 28.3159 18.2183 28.2806 18.1956 28.2806C18.1828 28.2786 18.1707 28.2731 18.1607 28.2648C18.1507 28.2565 18.1432 28.2456 18.139 28.2333C18.129 28.2073 18.107 28.1946 18.0904 28.2053C18.0737 28.2159 18.0518 28.2053 18.0418 28.1773C18.0318 28.1494 18.0118 28.1374 17.9978 28.1467C17.9838 28.156 17.9545 28.1354 17.9312 28.1014C17.9079 28.0674 17.8759 28.0401 17.8553 28.0401C17.8463 28.0411 17.8373 28.0384 17.8302 28.0328C17.8231 28.0272 17.8185 28.0191 17.8173 28.0101C17.8177 28.0066 17.8172 28.003 17.8159 27.9996C17.8145 27.9963 17.8123 27.9934 17.8095 27.9911C17.8068 27.9889 17.8034 27.9874 17.7999 27.9867C17.7964 27.9861 17.7927 27.9864 17.7893 27.9875C17.774 27.9915 17.7394 27.9682 17.7121 27.9349C17.6848 27.9016 17.6714 27.8949 17.6821 27.9196C17.6928 27.9442 17.6728 27.9309 17.6368 27.8896C17.6008 27.8483 17.5802 27.835 17.5915 27.8596C17.6028 27.8843 17.5822 27.8709 17.5462 27.8296C17.5103 27.7884 17.4896 27.7744 17.5009 27.7997C17.5123 27.825 17.5063 27.827 17.4783 27.7923C17.4503 27.7577 17.427 27.7484 17.4164 27.7591C17.4057 27.7697 17.389 27.7557 17.3784 27.7284C17.3737 27.7155 17.3656 27.7041 17.3549 27.6954C17.3442 27.6867 17.3314 27.6811 17.3178 27.6791C17.3076 27.6799 17.2975 27.6766 17.2896 27.67C17.2818 27.6634 17.2768 27.654 17.2758 27.6438C17.2758 27.6245 17.2672 27.6178 17.2565 27.6285C17.2458 27.6392 17.2219 27.6285 17.2032 27.6019C17.1846 27.5752 17.1593 27.5652 17.1473 27.5772M12.4889 28.0115C12.5014 28.0144 12.5144 28.0144 12.5269 28.0115C12.5396 28.0115 12.5496 28.0221 12.5496 28.0395C12.5496 28.0568 12.5595 28.0667 12.5722 28.0608C12.6208 28.0374 12.7494 28.21 12.7267 28.2672C12.7147 28.2986 12.7034 28.3132 12.7021 28.3005C12.7007 28.2879 12.6681 28.3005 12.6295 28.3232C12.5908 28.3458 12.5502 28.3598 12.5389 28.3492C12.5276 28.3385 12.5189 28.3492 12.5189 28.3671C12.5189 28.3851 12.4996 28.3978 12.4736 28.3878C12.4477 28.3778 12.4283 28.3838 12.4283 28.3998C12.4283 28.4158 12.4183 28.4271 12.4057 28.4257C12.3905 28.424 12.3751 28.4254 12.3604 28.4298C12.3477 28.4338 12.3278 28.4391 12.3151 28.4417C12.285 28.4525 12.256 28.4661 12.2285 28.4824C12.1932 28.5017 12.1559 28.5097 12.1459 28.499C12.1359 28.4884 12.1266 28.499 12.1266 28.5183C12.1266 28.5377 12.1073 28.549 12.0813 28.5397C12.0553 28.5303 12.036 28.5363 12.036 28.553C12.036 28.5696 12.0234 28.5763 12.0081 28.5663C12.004 28.5641 11.9996 28.5627 11.9951 28.5622C11.9905 28.5617 11.9859 28.5621 11.9815 28.5634C11.9771 28.5647 11.973 28.5669 11.9694 28.5698C11.9659 28.5727 11.9629 28.5762 11.9608 28.5803C11.9568 28.5883 11.9498 28.5944 11.9413 28.5973C11.9328 28.6001 11.9235 28.5995 11.9155 28.5956C11.9074 28.5917 11.8982 28.5911 11.8897 28.5939C11.8812 28.5968 11.8742 28.6029 11.8702 28.6109C11.8657 28.619 11.8582 28.6249 11.8494 28.6275C11.8406 28.6301 11.831 28.6292 11.8229 28.6249C11.8076 28.6156 11.7949 28.6249 11.7949 28.6409C11.7949 28.6569 11.7816 28.6662 11.765 28.6562C11.7483 28.6462 11.735 28.6562 11.735 28.6729C11.735 28.6895 11.715 28.7002 11.6897 28.6908C11.6644 28.6815 11.6444 28.6835 11.6444 28.6962C11.6444 28.7088 11.6078 28.7221 11.5631 28.7255C11.5045 28.7301 11.4905 28.7255 11.5145 28.6995C11.5385 28.6735 11.5378 28.6422 11.5145 28.5783C11.5016 28.5553 11.4953 28.5293 11.4961 28.503C11.4969 28.4767 11.5049 28.4512 11.5192 28.4291C11.5289 28.4165 11.5357 28.4019 11.5392 28.3864C11.5426 28.3708 11.5426 28.3547 11.5392 28.3392C11.5292 28.3232 11.5392 28.3105 11.5551 28.3105C11.5711 28.3105 11.5811 28.2979 11.5711 28.2819C11.5611 28.2659 11.5958 28.2086 11.6471 28.154C11.6983 28.0994 11.7303 28.0748 11.7183 28.1001C11.7063 28.1254 11.7183 28.1274 11.7596 28.0887C11.7997 28.0558 11.849 28.036 11.9008 28.0321C11.9316 28.0354 11.9626 28.0288 11.9894 28.0135C12.1553 27.9969 12.3224 27.9969 12.4883 28.0135M17.8972 29.1118C17.902 29.1241 17.91 29.1348 17.9205 29.1428C17.9309 29.1508 17.9434 29.1557 17.9565 29.1571C17.9663 29.1559 17.9761 29.1586 17.984 29.1646C17.9918 29.1705 17.997 29.1793 17.9985 29.189C17.9985 29.2064 18.0111 29.213 18.0264 29.2037C18.0418 29.1944 18.0737 29.2137 18.097 29.247C18.1204 29.2803 18.145 29.3016 18.1523 29.295C18.2231 29.3411 18.287 29.3969 18.3422 29.4608C18.402 29.5139 18.4554 29.5738 18.5013 29.6393C18.4913 29.6393 18.5167 29.6746 18.5566 29.7186C18.5966 29.7625 18.6232 29.8091 18.6139 29.8238C18.6046 29.8384 18.6106 29.8504 18.6266 29.8504C18.6425 29.8504 18.6632 29.8711 18.6732 29.8971C18.6832 29.923 18.6785 29.9357 18.6612 29.9257C18.6439 29.9157 18.6312 29.9257 18.6312 29.941C18.6312 29.9563 18.6192 29.967 18.6039 29.9583C18.5886 29.9497 18.5686 29.963 18.5593 29.9883C18.55 30.0136 18.528 30.0269 18.5113 30.0163C18.4947 30.0056 18.4807 30.0163 18.4807 30.0343C18.4807 30.0522 18.472 30.0622 18.4614 30.0516C18.4507 30.0409 18.4227 30.0556 18.3988 30.0842C18.3748 30.1129 18.3621 30.1215 18.3755 30.0915C18.3888 30.0616 18.3755 30.0729 18.3475 30.1048C18.3195 30.1368 18.3002 30.1535 18.3002 30.1415C18.3002 30.1295 18.2709 30.1468 18.2336 30.1801C18.1963 30.2134 18.1583 30.2341 18.1457 30.2261C18.133 30.2181 18.101 30.2334 18.0751 30.2594C18.0491 30.2854 18.0278 30.2987 18.0278 30.2887C18.0278 30.2787 17.9978 30.298 17.9612 30.332C17.9359 30.3589 17.905 30.3798 17.8706 30.3933H17.8306C17.7051 30.4418 17.5865 30.5066 17.4776 30.5857C17.465 30.6051 17.455 30.6064 17.4543 30.5891C17.4536 30.5718 17.4423 30.5764 17.4283 30.5984C17.417 30.6113 17.4032 30.6219 17.3878 30.6294C17.3724 30.637 17.3556 30.6414 17.3384 30.6424C17.3025 30.6424 17.2718 30.6584 17.2718 30.673C17.2718 30.6877 17.2592 30.691 17.2438 30.6817C17.2285 30.6723 17.1946 30.6856 17.1686 30.7116C17.1426 30.7376 17.1073 30.7503 17.0907 30.7403C17.074 30.7303 17.06 30.7356 17.06 30.7523C17.06 30.7689 17.0394 30.7756 17.0147 30.7656C16.9901 30.7556 16.9694 30.7656 16.9694 30.7816C16.9694 30.7976 16.9594 30.8135 16.9468 30.8115C16.9345 30.8088 16.9218 30.8088 16.9095 30.8115C16.9015 30.8115 16.8709 30.8229 16.8429 30.8302L16.7376 30.8555C16.7189 30.8581 16.701 30.8647 16.685 30.8748C16.6329 30.8834 16.5801 30.8877 16.5272 30.8875C16.4399 30.8908 16.3693 30.8815 16.3693 30.8661C16.3693 30.8508 16.354 30.8482 16.3347 30.8601C16.3154 30.8721 16.308 30.8681 16.32 30.8488C16.332 30.8295 16.32 30.8042 16.2934 30.7896C16.2795 30.7802 16.268 30.7676 16.26 30.7529C16.252 30.7382 16.2477 30.7217 16.2474 30.705C16.2474 30.5877 16.2601 30.5411 16.2834 30.5411C16.2967 30.5411 16.3001 30.5211 16.2901 30.4965C16.2872 30.4902 16.2858 30.4833 16.2858 30.4763C16.2858 30.4694 16.2873 30.4625 16.2902 30.4562C16.2931 30.4499 16.2974 30.4443 16.3026 30.4397C16.3079 30.4352 16.314 30.4318 16.3207 30.4299C16.3473 30.4199 16.3613 30.3992 16.352 30.3839C16.3427 30.3686 16.3567 30.3486 16.382 30.3386C16.3943 30.3344 16.4052 30.3269 16.4135 30.3169C16.4219 30.307 16.4273 30.2949 16.4293 30.282C16.4404 30.2456 16.4639 30.2142 16.4959 30.1934C16.5332 30.1655 16.5445 30.1528 16.5212 30.1641C16.4979 30.1755 16.4866 30.1728 16.5005 30.1502C16.5083 30.1398 16.5184 30.1312 16.5299 30.1252C16.5414 30.1192 16.5542 30.1159 16.5671 30.1155C16.5918 30.1155 16.6051 30.1042 16.5964 30.0902C16.5758 30.0569 16.7416 29.8977 16.769 29.9244C16.7803 29.9357 16.7896 29.9244 16.7896 29.8964C16.7902 29.8834 16.7937 29.8708 16.7996 29.8593C16.8056 29.8478 16.814 29.8377 16.8242 29.8298C16.8469 29.8158 16.8515 29.8225 16.8362 29.8504C16.8209 29.8784 16.8635 29.8351 16.9248 29.7645C16.9861 29.6939 17.0474 29.644 17.0613 29.6526C17.0753 29.6613 17.102 29.6413 17.12 29.6073C17.1379 29.5734 17.1686 29.546 17.1866 29.546C17.2291 29.5291 17.2661 29.5005 17.2931 29.4635C17.3324 29.4182 17.3551 29.4008 17.3438 29.4262C17.3324 29.4515 17.3597 29.4308 17.4037 29.3809C17.4477 29.3309 17.475 29.3109 17.4636 29.3356C17.4523 29.3602 17.4783 29.3402 17.5209 29.2903C17.5635 29.2403 17.5988 29.213 17.5995 29.2283C17.6002 29.2437 17.6208 29.2283 17.6448 29.1984C17.6688 29.1684 17.6894 29.1531 17.6901 29.1691C17.6908 29.185 17.7121 29.1691 17.7381 29.1311C17.792 29.0538 17.8659 29.0438 17.8912 29.1091" fill="#006666"/>
<path fill-rule="evenodd" clip-rule="evenodd" d="M15.5003 24.5826C15.4949 24.5953 15.5003 25.7908 15.5063 27.2395L15.5216 29.8737L15.5289 27.2168C15.5329 25.7555 15.5289 24.56 15.5229 24.56C15.5169 24.56 15.5056 24.57 15.5003 24.5826ZM20.798 27.2075C20.806 29.8364 20.8053 29.855 20.7454 29.8717C20.7121 29.8823 20.6848 29.9037 20.6848 29.9197C20.6848 29.9356 20.7187 29.9263 20.76 29.899L20.8353 29.8497V27.2035C20.8353 25.7482 20.8253 24.5573 20.8126 24.5573C20.8 24.5573 20.7933 25.7489 20.798 27.2048M10.5222 27.3874C10.5222 28.9193 10.5262 29.546 10.5302 28.78C10.5342 28.0141 10.5349 26.7606 10.5302 25.9947C10.5256 25.2287 10.5222 25.8555 10.5222 27.3874ZM15.3025 24.6612C15.2052 24.7152 15.1892 24.7365 15.2612 24.7178C15.2981 24.7074 15.3316 24.6874 15.3584 24.6599C15.399 24.6113 15.3937 24.6113 15.3025 24.6599M22.8834 25.8281L22.7835 25.956L22.9087 25.8368C23.0419 25.7116 23.0492 25.7002 23.0086 25.7002C22.9593 25.7348 22.9169 25.7781 22.8834 25.8281ZM22.3759 26.3809C22.3532 26.4063 22.3412 26.4329 22.3486 26.4402C22.3559 26.4476 22.3865 26.4262 22.4152 26.3929C22.4438 26.3596 22.4578 26.333 22.4425 26.3337C22.4161 26.3425 22.3929 26.3589 22.3759 26.3809ZM25.3331 27.1303C25.3331 27.2961 25.3384 27.36 25.3444 27.2721C25.3506 27.1719 25.3506 27.0713 25.3444 26.9711C25.3384 26.8931 25.3331 26.9644 25.3331 27.1303ZM22.5357 27.3434L22.2027 27.6618L22.5417 27.352C22.8514 27.069 22.896 27.0244 22.8747 27.0244C22.8701 27.0244 22.7182 27.1675 22.5357 27.3427M11.3581 27.3874C11.3198 27.419 11.2867 27.4565 11.2602 27.4986C11.2602 27.5092 11.3075 27.4719 11.3655 27.416C11.462 27.3227 11.484 27.2954 11.4634 27.2954C11.4263 27.3237 11.3911 27.3544 11.3581 27.3874ZM21.6592 27.3714C21.6319 27.4133 21.6146 27.4533 21.6212 27.4599C21.6279 27.4666 21.6565 27.4326 21.6838 27.384C21.7458 27.2755 21.7278 27.2668 21.6585 27.372M23.0126 27.6724C23.0126 27.8216 23.0179 27.8862 23.0239 27.8163C23.0302 27.726 23.0302 27.6355 23.0239 27.5452C23.0179 27.4659 23.0126 27.5232 23.0126 27.6724ZM17.1008 28.0128C17.1187 28.1863 17.1061 28.3617 17.0635 28.5309C17.0315 28.5669 17.0335 28.5669 17.0788 28.5309C17.1241 28.495 17.1314 28.4344 17.1314 28.0414C17.1314 27.6897 17.1394 27.5965 17.1694 27.6145C17.1994 27.6324 17.194 27.6205 17.1654 27.5858C17.1514 27.5656 17.1335 27.5484 17.1128 27.5352C17.1068 27.5352 17.1014 27.749 17.1014 28.0108M9.55715 28.2878C9.55715 28.6935 9.56114 28.8593 9.56647 28.6568C9.5718 28.4543 9.5718 28.124 9.56647 27.9188C9.56114 27.7137 9.55715 27.8822 9.55715 28.2878ZM25.1686 27.6444C25.102 27.7177 25.102 27.721 25.1599 27.6904C25.1946 27.6729 25.2232 27.6452 25.2419 27.6111C25.2665 27.5445 25.2525 27.5532 25.1686 27.6444ZM21.5053 28.0767C21.5053 28.1679 21.5113 28.2053 21.518 28.1593C21.5249 28.1042 21.5249 28.0485 21.518 27.9934C21.5113 27.9481 21.5053 27.9855 21.5053 28.076M22.1288 27.9848C22.1288 28.0008 22.1594 28.0301 22.1954 28.0514C22.262 28.0867 22.262 28.0867 22.206 28.0221C22.1501 27.9575 22.1281 27.9435 22.1281 27.9868M11.6599 28.146C11.6279 28.1809 11.5994 28.2188 11.5746 28.2592C11.5493 28.3072 11.5559 28.3005 11.6778 28.1613C11.7178 28.116 11.7444 28.0787 11.7351 28.0787C11.706 28.0962 11.6803 28.1188 11.6592 28.1453M8.56074 28.7248C8.56074 29.0232 8.5654 29.1411 8.57073 28.9865C8.57606 28.832 8.57606 28.5869 8.57073 28.4444C8.5654 28.3018 8.56074 28.4264 8.56074 28.7241M8.285 28.3025C8.24863 28.3143 8.21524 28.3339 8.18709 28.3598C8.27093 28.3426 8.35145 28.312 8.42553 28.2692C8.45217 28.2445 8.37891 28.2612 8.285 28.3025ZM23.7086 28.4357C23.626 28.485 23.5694 28.525 23.5827 28.5256C23.6871 28.4832 23.7853 28.4267 23.8745 28.3578C23.8745 28.3385 23.8678 28.3418 23.7086 28.4357ZM11.52 28.4257C11.5069 28.4545 11.5005 28.4859 11.5013 28.5175C11.5022 28.5491 11.5101 28.5801 11.5246 28.6082C11.538 28.6295 11.5473 28.5942 11.5466 28.5256C11.546 28.457 11.5466 28.4057 11.5426 28.4057C11.5344 28.4116 11.5268 28.4183 11.52 28.4257ZM18.5454 28.5656C18.5726 28.6003 18.6029 28.6324 18.636 28.6615C18.7452 28.7661 18.7579 28.7408 18.65 28.6329C18.5801 28.5629 18.5461 28.5409 18.5461 28.5662M18.9064 28.8953C19.031 29.0285 19.0583 29.0518 19.0583 29.0285C19.0134 28.978 18.9656 28.9301 18.9151 28.8853L18.7719 28.7521L18.9051 28.8953M16.7651 28.8353C16.7326 28.8648 16.7034 28.8976 16.6778 28.9332C16.6545 28.9665 16.6778 28.9539 16.7318 28.9053C16.7669 28.8756 16.7992 28.8429 16.8284 28.8074C16.8284 28.7894 16.8097 28.798 16.7618 28.8353M24.059 28.8586C23.9584 28.8993 23.977 28.9199 24.0816 28.8833C24.1145 28.8753 24.1453 28.8606 24.1722 28.84C24.1722 28.822 24.1355 28.828 24.059 28.8586ZM22.1627 28.9392C22.2127 28.9462 22.2633 28.9462 22.3133 28.9392C22.3505 28.9319 22.3133 28.9266 22.23 28.9266C22.1467 28.9266 22.1168 28.9326 22.1634 28.9392M13.1305 29.1051C13.0932 29.1231 13.0639 29.1497 13.0639 29.1637C13.0639 29.1777 13.0978 29.1677 13.1391 29.1404C13.2497 29.0678 13.2457 29.0498 13.1318 29.1044M17.7575 29.1204C17.7202 29.1684 17.7209 29.169 17.7688 29.1324C17.7826 29.1214 17.7987 29.1136 17.8159 29.1097C17.833 29.1058 17.8509 29.1058 17.8681 29.1097C17.8954 29.1204 17.9074 29.1151 17.8967 29.0978C17.8681 29.0518 17.8035 29.0625 17.7575 29.1204ZM13.5508 29.1943C13.5482 29.2194 13.5406 29.2436 13.5283 29.2656C13.516 29.2876 13.4994 29.3069 13.4795 29.3222C13.4429 29.3482 13.4269 29.3688 13.4435 29.3688C13.4632 29.3672 13.4823 29.3614 13.4995 29.3518C13.5168 29.3422 13.5318 29.3291 13.5436 29.3133C13.5554 29.2975 13.5638 29.2794 13.5681 29.2602C13.5724 29.2409 13.5727 29.221 13.5687 29.2017C13.5561 29.1144 13.5554 29.1137 13.5514 29.1937M8.22306 29.3748C8.18576 29.3928 8.15645 29.4195 8.15645 29.4334C8.15645 29.4474 8.24837 29.4095 8.33495 29.3469C8.36493 29.3249 8.28633 29.3468 8.22439 29.3748M18.2151 29.3488C18.277 29.4364 18.355 29.5114 18.4449 29.57C18.4154 29.5218 18.3783 29.4789 18.335 29.4428C18.2684 29.3762 18.2151 29.3362 18.2151 29.3488ZM11.0218 29.4088C11.0678 29.4822 11.1336 29.5411 11.2116 29.5786C11.2283 29.5786 11.2369 29.5753 11.2296 29.5713C11.2223 29.5673 11.173 29.524 11.119 29.4754C11.0651 29.4268 11.0211 29.3968 11.0211 29.4088M11.48 29.6306C11.5351 29.6375 11.5908 29.6375 11.6459 29.6306C11.6912 29.6239 11.6539 29.6179 11.5633 29.6179C11.4727 29.6179 11.4347 29.6239 11.4807 29.6306M16.9809 29.7198L16.9076 29.8004L16.9895 29.7425C17.0348 29.7105 17.0721 29.6759 17.0721 29.6619C17.0721 29.6246 17.0575 29.6352 16.9802 29.7198M18.5195 29.6845C18.5195 29.7245 18.604 29.8344 18.6207 29.8177C18.6373 29.8011 18.608 29.7711 18.5767 29.7298C18.5454 29.6885 18.5195 29.6685 18.5195 29.6852M24.3141 29.8064C24.2381 29.8431 24.2361 29.8471 24.2994 29.8317C24.3366 29.8238 24.3719 29.8087 24.4033 29.7871C24.4426 29.7505 24.4206 29.7551 24.3147 29.8064M21.7778 29.9243C21.6679 29.9849 21.6625 30.0042 21.7651 29.9683C21.8177 29.9496 21.861 29.923 21.861 29.9077C21.861 29.8924 21.8577 29.8817 21.8537 29.8837L21.7778 29.9243ZM16.6652 30.0089L16.5766 30.1068L16.6745 30.0182C16.7101 29.9887 16.7429 29.9559 16.7724 29.9203C16.7724 29.897 16.7478 29.9203 16.6652 30.0089ZM20.3777 30.0362C20.3324 30.0529 20.2951 30.0782 20.2951 30.0915C20.2951 30.1048 20.3358 30.0968 20.3857 30.0715C20.4523 30.0369 20.5136 29.9889 20.4683 30.0049L20.3777 30.0375M13.9264 30.1235C13.8791 30.1728 13.8491 30.2134 13.8598 30.2134C13.8871 30.2134 14.0383 30.0589 14.0243 30.0449C14.0103 30.0309 13.9737 30.0735 13.9264 30.1235ZM17.886 30.3666C17.8359 30.4074 17.8308 30.4176 17.8707 30.3972C17.9686 30.3466 18.0232 30.3046 17.9913 30.3053C17.9522 30.3181 17.9163 30.3393 17.886 30.3672M10.449 30.3752C10.438 30.4198 10.4166 30.4612 10.3864 30.4958C10.3524 30.5397 10.3384 30.575 10.3557 30.575C10.3731 30.575 10.415 30.5211 10.449 30.4545C10.4829 30.3879 10.4963 30.3339 10.4796 30.3339C10.463 30.3339 10.449 30.3526 10.449 30.3752ZM19.2907 30.3892C19.268 30.4115 19.2508 30.4389 19.2408 30.4691C19.2408 30.4831 19.2681 30.4625 19.3007 30.4245C19.3238 30.4003 19.3439 30.3735 19.3607 30.3446C19.3607 30.322 19.338 30.3366 19.2901 30.3892M6.09038 30.4012C6.05308 30.4192 6.02378 30.4458 6.02378 30.4598C6.02378 30.4738 6.11569 30.4358 6.20227 30.3732C6.23225 30.3513 6.15365 30.3732 6.09171 30.4012M18.9784 30.6117C18.9411 30.6296 18.9118 30.6563 18.9118 30.6703C18.9118 30.6843 18.9457 30.6743 18.987 30.647C19.0976 30.5744 19.0936 30.5564 18.9797 30.611M5.57886 30.7176C5.51692 30.7795 5.50026 30.8022 5.54222 30.7675C5.58419 30.7329 5.65212 30.6823 5.69342 30.655C5.73471 30.6277 5.7507 30.605 5.73005 30.605C5.67211 30.6315 5.62054 30.6701 5.57886 30.7182M22.4498 30.6816C22.3739 30.7182 22.3719 30.7222 22.4345 30.7069C22.4717 30.6989 22.507 30.6838 22.5384 30.6623C22.5777 30.6257 22.5557 30.6303 22.4498 30.6816ZM10.5542 31.2377C10.5542 31.5441 10.5589 31.6693 10.5642 31.5162C10.5695 31.363 10.5695 31.1125 10.5642 30.9593C10.5589 30.8062 10.5542 30.9314 10.5542 31.2377ZM12.4911 30.8515C12.4458 30.8681 12.4085 30.8928 12.4085 30.9067C12.4085 30.9207 12.4491 30.9121 12.4991 30.8868C12.5657 30.8521 12.627 30.8042 12.5817 30.8201L12.4911 30.8528M17.8581 31.1791C17.8001 31.2111 17.7635 31.2371 17.7768 31.2384C17.8501 31.2179 17.9183 31.1821 17.9766 31.1332C17.9766 31.1132 17.9766 31.1139 17.8561 31.1791M17.4724 31.353C17.4142 31.3768 17.3607 31.4108 17.3146 31.4536C17.4405 31.4095 17.561 31.3512 17.6736 31.2797C17.7155 31.2458 17.607 31.285 17.4738 31.353M20.5822 31.5568C20.5063 31.5934 20.5043 31.5974 20.5669 31.5821C20.6041 31.5742 20.6394 31.559 20.6708 31.5375C20.7101 31.5008 20.6881 31.5055 20.5822 31.5568ZM5.8213 31.5914C5.85596 31.599 5.89187 31.599 5.92653 31.5914C5.95584 31.5841 5.93186 31.5774 5.87392 31.5774C5.81597 31.5774 5.79199 31.5834 5.8213 31.5914ZM16.2849 31.7426C16.3247 31.7501 16.3656 31.7501 16.4054 31.7426C16.4341 31.7353 16.4054 31.7293 16.3388 31.7293C16.2722 31.7293 16.2489 31.736 16.2862 31.7433" fill="#006666"/>
</svg>
