<svg width="7" height="9" viewBox="0 0 7 9" fill="none" xmlns="http://www.w3.org/2000/svg">
<g clip-path="url(#clip0_651_1119)">
<path d="M3.50073 0C5.22112 0.0147426 6.69001 1.1979 6.96382 2.78836C7.06686 3.38806 6.93726 3.94528 6.69824 4.49225C6.32432 5.34558 5.83008 6.13793 5.27663 6.89555C4.79275 7.55772 4.28205 8.2019 3.77746 8.85107C3.62715 9.04473 3.39238 9.04922 3.24074 8.86632C2.33114 7.76986 1.47653 6.63793 0.770896 5.41179C0.484076 4.91204 0.227532 4.4003 0.0804036 3.84658C-0.0895638 3.20565 0.0140101 2.58596 0.294987 1.996C0.787096 0.962769 1.63507 0.324838 2.81077 0.0819594C3.03731 0.0354826 3.27101 0.0267366 3.50073 0ZM3.50764 4.20565C3.75943 4.2048 4.00529 4.1337 4.21412 4.00134C4.42295 3.86898 4.58536 3.68131 4.68079 3.46208C4.77622 3.24285 4.80039 3.00191 4.75023 2.76975C4.70008 2.53758 4.57786 2.32464 4.39904 2.15786C4.22021 1.99107 3.99283 1.87795 3.74565 1.8328C3.49847 1.78765 3.24261 1.8125 3.01045 1.90421C2.77829 1.99592 2.58026 2.15037 2.44143 2.348C2.30259 2.54564 2.22918 2.77759 2.23049 3.01449C2.23281 3.33155 2.36846 3.63485 2.60779 3.85806C2.84712 4.08128 3.17065 4.20625 3.50764 4.20565Z" fill="#006666"/>
</g>
<defs>
<clipPath id="clip0_651_1119">
<rect width="7" height="9" fill="white"/>
</clipPath>
</defs>
</svg>
