<svg width="48" height="45" viewBox="0 0 48 45" fill="none" xmlns="http://www.w3.org/2000/svg">
<path d="M5.00001 32.5003C5.00001 31.1218 3.87856 30.0003 2.50001 30.0003C1.12146 30.0003 0 31.1218 0 32.5003C0 33.8789 1.12146 35.0003 2.50001 35.0003C3.87856 35.0003 5.00001 33.8789 5.00001 32.5003ZM2.50001 33.0003C2.2243 33.0003 2 32.776 2 32.5003C2 32.2246 2.22429 32.0003 2.50001 32.0003C2.77572 32.0003 3.00001 32.2246 3.00001 32.5003C3.00001 32.776 2.77572 33.0003 2.50001 33.0003Z" fill="#D1A370"/>
<path d="M45.5 22.9998C44.1215 22.9998 43 24.1213 43 25.4998C43 26.8784 44.1215 27.9998 45.5 27.9998C46.8786 27.9998 48 26.8784 48 25.4998C48 24.1213 46.8786 22.9998 45.5 22.9998ZM45.5 25.9998C45.2243 25.9998 45 25.7755 45 25.4997C45 25.224 45.2243 24.9997 45.5 24.9997C45.7757 24.9997 46 25.224 46 25.4997C46 25.7755 45.7757 25.9998 45.5 25.9998Z" fill="#D1A370"/>
<path d="M5.00008 24.9995C5.00008 25.5517 4.55223 25.9996 4.00004 25.9996C3.44785 25.9996 3 25.5517 3 24.9995C3 24.4474 3.44785 23.9995 4.00004 23.9995C4.55223 23.9995 5.00008 24.4474 5.00008 24.9995Z" fill="#006666"/>
<path d="M45.0001 35C45.0001 35.5522 44.5522 36.0001 44 36.0001C43.4478 36.0001 43 35.5522 43 35C43 34.4478 43.4478 34 44 34C44.5522 34 45.0001 34.4478 45.0001 35Z" fill="#006666"/>
<path d="M46.9991 5.00016C46.9991 5.5523 46.5512 6.0002 45.9991 6.0002C45.4469 6.0002 44.999 5.55235 44.999 5.00016C44.999 4.44797 45.4469 4.00012 45.9991 4.00012C46.5512 4.00012 46.9991 4.44797 46.9991 5.00016Z" fill="#006666"/>
<path d="M32.9996 1.00004C32.9996 1.55218 32.5517 2.00008 31.9996 2.00008C31.4474 2.00008 30.9995 1.55223 30.9995 1.00004C30.9995 0.447851 31.4474 0 31.9996 0C32.5517 0 32.9996 0.447851 32.9996 1.00004Z" fill="#006666"/>
<path d="M10.9996 2.99992C10.9996 3.55206 10.5517 3.99996 9.99955 3.99996C9.44736 3.99996 8.99951 3.5521 8.99951 2.99992C8.99951 2.44773 9.44736 1.99988 9.99955 1.99988C10.5517 1.99988 10.9996 2.44773 10.9996 2.99992Z" fill="#006666"/>
<path d="M42.9992 42.9997H41.9992V22.9715C44.2459 22.7218 45.9991 20.8122 45.9991 18.5001C45.9988 16.5655 45.9995 16.0276 45.997 15.9605C45.9888 15.7683 45.9241 15.6226 45.9209 15.6119C45.7973 15.3033 43.241 8.91199 43.1174 8.60305C42.242 6.41445 40.1531 5.00024 37.796 5.00024H10.203C7.84594 5.00024 5.757 6.41454 4.88166 8.60305C4.87774 8.61305 1.91775 16.0126 2.07135 15.6287C2.02457 15.747 2.00064 15.8827 2.00028 15.9927C1.99921 16.0266 1.99957 17.8763 1.99957 18.5002C1.99957 20.8123 3.75279 22.7223 5.99954 22.9715V42.9997H4.9995C4.44736 42.9997 3.99946 43.4476 3.99946 43.9998C3.99946 44.552 4.44731 44.9998 4.9995 44.9998H42.9988C43.5509 44.9998 43.9988 44.552 43.9988 43.9998C43.9988 43.4476 43.5514 42.9997 42.9992 42.9997ZM18.566 29.0002H14.4328C12.5396 29.0002 10.9992 30.5402 10.9992 32.4334V39.0001H7.99931V22.7424C8.79073 22.4617 9.48108 21.9656 9.99929 21.3246C11.8057 23.5592 15.1932 23.5589 16.9992 21.3246C18.8056 23.5592 22.1928 23.5589 23.9991 21.3246C25.8055 23.5592 29.193 23.5585 30.999 21.3246C32.8054 23.5592 36.1929 23.5585 37.9989 21.3246C38.5171 21.9656 39.2075 22.4617 39.9989 22.7424V29.0002H29.1994C27.4348 29.0002 25.9995 30.4355 25.9995 32.2002V33.8002C25.9995 35.5648 27.4348 37.0002 29.1994 37.0002H39.9989V39.0001H21.9986V32.4334C21.9986 30.5402 20.4588 29.0002 18.566 29.0002ZM10.9992 17.0003H15.9993V18.5003C15.9993 19.8788 14.8778 21.0003 13.4992 21.0003C12.1207 21.0003 10.9992 19.8788 10.9992 18.5003V17.0003ZM24.9987 6.99991H29.0936L29.8936 14.9999H24.9987V6.99991ZM36.9986 18.4997C36.9986 19.8783 35.8771 20.9997 34.4986 20.9997C33.12 20.9997 31.9986 19.8783 31.9986 18.4997V16.9997H36.9986V18.4997ZM29.9987 18.4997C29.9987 19.8783 28.8772 20.9997 27.4987 20.9997C26.1201 20.9997 24.9987 19.8783 24.9987 18.4997V16.9997H29.9987V18.4997ZM22.9988 18.4997C22.9988 19.8783 21.8773 20.9997 20.4988 20.9997C19.1202 20.9997 17.9988 19.8783 17.9988 18.4997V16.9997H22.9988V18.4997ZM39.9989 34.9997H29.1994C28.5376 34.9997 27.9994 34.4615 27.9994 33.7997V32.1997C27.9994 31.5379 28.5376 30.9997 29.1994 30.9997H39.9989V34.9997ZM43.9989 18.4997C43.9989 19.8783 42.8774 20.9997 41.4989 20.9997C40.1203 20.9997 38.9989 19.8783 38.9989 18.4997V16.9997H43.9989V18.4997ZM37.7957 6.99991C39.3303 6.99991 40.6903 7.92059 41.2603 9.34558L43.5217 14.9999H38.8186L37.2186 6.99991H37.7957ZM35.1793 6.99991L36.7793 14.9999H31.904L31.104 6.99991H35.1793ZM22.9992 14.9999H18.1043L18.9043 6.99991H22.9992V14.9999ZM16.0943 14.9999H11.219L12.819 6.99991H16.8943L16.0943 14.9999ZM6.73852 9.34558C7.30852 7.92059 8.66847 6.99991 10.2032 6.99991H10.78L9.17997 14.9999H4.47683L6.73852 9.34558ZM3.99961 18.4993V16.9994H8.99962V18.4993C8.99962 19.8779 7.87817 20.9994 6.49962 20.9994C5.12107 20.9994 3.99961 19.8779 3.99961 18.4993ZM7.99958 40.9988H10.9995V42.9988H7.99958V40.9988ZM12.9996 42.9988V32.4325C12.9996 31.6422 13.6424 30.9993 14.4328 30.9993H18.566C19.3563 30.9993 19.9992 31.6421 19.9992 32.4325L19.9996 42.9988H12.9996ZM21.9996 42.9988V40.9988H39.9999V42.9988H21.9996Z" fill="#006666"/>
<path d="M14.9996 35.9999C14.4474 35.9999 13.9995 36.4477 13.9995 36.9999V38C13.9995 38.5521 14.4474 39 14.9996 39C15.5517 39 15.9996 38.5521 15.9996 38V36.9999C15.9996 36.4478 15.5517 35.9999 14.9996 35.9999Z" fill="#006666"/>
<path d="M3.99993 5.99987C5.65423 5.99987 6.99987 4.65414 6.99987 2.99993C6.99987 1.34573 5.65414 0 3.99993 0C2.34573 0 1 1.34573 1 2.99993C1 4.65414 2.34573 5.99987 3.99993 5.99987ZM3.99993 1.99989C4.55135 1.99989 4.99997 2.44846 4.99997 2.99993C4.99997 3.55141 4.55141 3.99997 3.99993 3.99997C3.44846 3.99997 2.99989 3.55141 2.99989 2.99993C2.99989 2.44846 3.44846 1.99989 3.99993 1.99989Z" fill="#D1A370"/>
</svg>
