<svg width="48" height="51" viewBox="0 0 48 51" fill="none" xmlns="http://www.w3.org/2000/svg">
<path d="M15.3537 0.0152694C14.9576 -0.00934087 14.552 -0.00432772 14.1373 0.0312204C13.8766 0.0535521 13.6455 0.207589 13.5243 0.439564C13.4035 0.671083 13.409 0.949084 13.5393 1.17559C13.5393 1.17559 15.15 3.96749 16.1512 5.70202C16.7965 6.81949 16.4529 8.22733 15.3637 8.92187C15.01 9.1461 14.6117 9.27962 14.1272 9.31881C13.9249 9.33477 13.7371 9.43093 13.6054 9.58588C13.4737 9.74084 13.409 9.94182 13.4254 10.1442C13.4418 10.347 13.538 10.5347 13.6929 10.666C13.8479 10.7977 14.0484 10.8624 14.2512 10.846C14.9567 10.7891 15.6161 10.5771 16.1872 10.2139C17.9542 9.08732 18.5242 6.75022 17.477 4.93647C16.7474 3.6727 16.0929 2.53564 15.5752 1.63822C20.3974 2.17963 23.3086 7.87736 20.3582 12.1043C20.1877 12.3477 20.174 12.668 20.3221 12.9256L25.333 21.601C24.4078 23.202 23.4835 24.803 22.5594 26.404L16.1631 15.3264C16.015 15.0703 15.7324 14.9231 15.4376 14.9472C10.2886 15.3792 6.84507 10.0557 8.75006 5.6064L10.1637 8.02461C10.3775 8.38875 10.846 8.51134 11.2106 8.29806C11.5752 8.08478 11.6987 7.61626 11.4854 7.25122L9.35618 3.60622C9.2149 3.36514 8.95376 3.21976 8.67438 3.2275C8.42919 3.23434 8.20269 3.3583 8.06414 3.56065C4.31426 9.03048 8.52399 16.5588 15.0366 16.4387L21.5345 27.69C21.5787 27.7657 21.6352 27.8331 21.7022 27.8892C20.849 29.3686 19.9913 30.847 19.14 32.3258C19.0384 32.5017 19.0106 32.7109 19.0634 32.9073C19.1163 33.1037 19.2448 33.271 19.4212 33.3726C19.5971 33.4743 19.8063 33.5016 20.0027 33.4492C20.1991 33.3963 20.3664 33.2678 20.468 33.0914C23.8058 27.2917 27.1574 21.4914 30.5131 15.6913C30.6621 15.4343 30.6489 15.1139 30.4793 14.8701C27.5289 10.6431 30.4401 4.94546 35.2623 4.40399C34.7446 5.30135 34.0897 6.43661 33.3605 7.69991C32.3132 9.51424 32.8833 11.8513 34.6503 12.9778V12.9796C35.2213 13.3429 35.8808 13.553 36.5863 13.6099C36.7891 13.6263 36.9896 13.5616 37.1446 13.4299C37.2995 13.2982 37.3957 13.1104 37.4121 12.9081C37.4454 12.487 37.1309 12.1183 36.7103 12.0845C36.2254 12.0454 35.8257 11.9109 35.4721 11.6858C34.3847 10.9908 34.0415 9.58257 34.6864 8.46545C35.6876 6.73093 37.2982 3.94135 37.2982 3.94135C37.4295 3.7144 37.4359 3.4364 37.3146 3.20397C37.193 2.97154 36.9615 2.81704 36.7003 2.79517C30.0666 2.22413 25.6203 9.69688 28.9879 15.2707C28.0627 16.8703 27.1412 18.4704 26.2165 20.0701L21.85 12.5071C25.007 7.28158 21.2961 0.386279 15.3537 0.0152694ZM42.141 5.99097C41.8689 5.99143 41.6178 6.13681 41.4811 6.37197L38.7516 11.0414C38.5383 11.4065 38.6618 11.875 39.0264 12.0883C39.2019 12.1908 39.4115 12.22 39.608 12.168C39.8049 12.1165 39.973 11.9889 40.0756 11.813L42.0854 8.37172C43.9913 12.8212 40.5487 18.1428 35.3997 17.7108C35.1044 17.6866 34.8218 17.8352 34.6741 18.0918L22.7085 38.8135C21.3381 37.0753 19.6144 35.4141 17.4151 34.144C14.686 32.5685 11.7922 31.9027 9.16022 31.7076C6.52827 31.5121 4.15941 31.7864 2.48275 32.0922C2.47682 32.0936 2.4709 32.095 2.46497 32.0963C1.6018 32.2764 0.855282 32.8178 0.415554 33.5815C-0.0242324 34.3445 -0.120858 35.2591 0.153957 36.0959C0.156236 36.1027 0.158059 36.1091 0.159882 36.1159C1.30607 39.3262 3.94616 44.8703 9.40362 48.0209C14.8611 51.1716 20.9826 50.6847 24.335 50.0745C24.3418 50.0732 24.3487 50.0718 24.3551 50.0704C24.9503 49.9451 25.4821 49.6389 25.9041 49.2155C26.296 49.6972 26.8343 50.0431 27.4495 50.1725C27.4563 50.1739 27.4627 50.1753 27.4695 50.1762C30.2928 50.6907 35.4495 51.1059 40.0605 48.4434C44.6726 45.7805 46.8912 41.1083 47.8564 38.4043C47.8591 38.3979 47.8619 38.3911 47.8646 38.3843C48.1061 37.6492 48.0214 36.847 47.6354 36.1771V36.1753C47.2484 35.5058 46.5935 35.0323 45.8366 34.8732C45.8302 34.8719 45.8233 34.8705 45.817 34.8691C44.405 34.6121 42.4108 34.3797 40.1922 34.5442C38.6026 34.6622 36.8981 34.9899 35.2115 35.653L33.12 32.0281C32.9801 31.7861 32.7194 31.6393 32.4401 31.6453C32.3111 31.6476 32.1849 31.6826 32.0732 31.7469C31.8973 31.8485 31.7688 32.0162 31.7164 32.2127C31.6644 32.4086 31.6922 32.6178 31.7938 32.7937L33.8119 36.2911C33.6159 36.3923 33.4195 36.4921 33.2258 36.6042C32.1881 37.2031 31.1686 37.8703 30.3523 38.7713C29.2654 39.9721 27.838 42.203 27.838 42.203C27.6083 42.5576 27.709 43.0315 28.0636 43.2617C28.4181 43.4914 28.8921 43.3907 29.1223 43.0361C29.1223 43.0361 30.5998 40.7802 31.4867 39.8004C32.1266 39.0944 33.0093 38.4969 33.9915 37.93C38.1017 35.556 42.8871 35.8979 45.5258 36.3769C45.8544 36.4476 46.1415 36.6508 46.3092 36.9411C46.4778 37.2333 46.512 37.5815 46.409 37.9C45.5062 40.4249 43.4079 44.7429 39.2948 47.1179C35.1841 49.4909 30.3988 49.1481 27.7605 48.6692C27.7086 48.6578 27.6603 48.6368 27.611 48.6191C27.611 48.6191 31.2488 42.3799 38.8902 40.2949C39.2972 40.1833 39.5374 39.7631 39.4266 39.3556C39.3391 39.0339 39.0538 38.806 38.7207 38.7914C38.6418 38.7887 38.5634 38.7983 38.4873 38.8192C31.8594 40.6281 28.0655 45.2844 26.8017 47.0841C26.8072 46.7428 26.773 46.4001 26.6641 46.0692C26.6622 46.0624 26.6604 46.056 26.6581 46.0491C26.0916 44.4641 25.1579 42.3085 23.7031 40.1532L35.8006 19.2017C42.3131 19.3215 46.5228 11.7927 42.773 6.32253C42.6304 6.11425 42.3938 5.98984 42.1409 5.98984L42.141 5.99097ZM26.4653 27.562C26.1818 27.5525 25.9161 27.7006 25.7753 27.9467L21.6918 35.0927C21.4818 35.4596 21.6084 35.9271 21.9749 36.1377C22.3417 36.3478 22.8093 36.2211 23.0199 35.8547L27.1033 28.7087C27.3134 28.3418 27.1867 27.8742 26.8203 27.6637C26.7118 27.6012 26.5902 27.5666 26.4653 27.562ZM7.24045 33.1808C7.81833 33.1786 8.41625 33.1972 9.02877 33.2424C11.4861 33.4242 14.1677 34.0367 16.6496 35.4696C21.5074 38.2747 24.0135 43.3015 25.1333 46.354C21.1906 42.8513 16.8994 40.2516 12.0371 39.3001C11.9888 39.2905 11.9391 39.286 11.8899 39.286C11.5235 39.286 11.2086 39.5448 11.1379 39.9039C11.0987 40.1036 11.1402 40.31 11.2537 40.4791C11.3672 40.6477 11.5426 40.7644 11.7422 40.8031C16.5339 41.7415 20.8088 44.4318 24.8174 48.1447C24.6059 48.353 24.3403 48.5038 24.044 48.5676C20.8753 49.1423 15.1257 49.5575 10.1685 46.6954C5.21096 43.8329 2.69253 38.6443 1.60878 35.6132C1.47206 35.1907 1.51855 34.73 1.74049 34.3453C1.96289 33.9593 2.3366 33.69 2.77137 33.5975C3.95767 33.3819 5.50588 33.1878 7.23947 33.1809L7.24045 33.1808Z" fill="#006666"/>
<path d="M15.3537 0.0152694C14.9576 -0.00934087 14.552 -0.00432772 14.1373 0.0312204C13.8766 0.0535521 13.6455 0.207589 13.5243 0.439564C13.4035 0.671083 13.409 0.949084 13.5393 1.17559C13.5393 1.17559 15.15 3.96749 16.1512 5.70202C16.7965 6.81949 16.4529 8.22733 15.3637 8.92187C15.01 9.1461 14.6117 9.27962 14.1272 9.31881C13.9249 9.33477 13.7371 9.43093 13.6054 9.58588C13.4737 9.74084 13.409 9.94182 13.4254 10.1442C13.4418 10.347 13.538 10.5347 13.6929 10.666C13.8479 10.7977 14.0484 10.8624 14.2512 10.846C14.9567 10.7891 15.6161 10.5771 16.1872 10.2139C17.9542 9.08732 18.5242 6.75022 17.477 4.93647C16.7474 3.6727 16.0929 2.53564 15.5752 1.63822C20.3974 2.17963 23.3086 7.87736 20.3582 12.1043C20.1877 12.3477 20.174 12.668 20.3221 12.9256L25.333 21.601C24.4078 23.202 23.4835 24.803 22.5594 26.404L16.1631 15.3264C16.015 15.0703 15.7324 14.9231 15.4376 14.9472C10.2886 15.3792 6.84507 10.0557 8.75006 5.6064L10.1637 8.02461C10.3775 8.38875 10.846 8.51134 11.2106 8.29806C11.5752 8.08478 11.6987 7.61626 11.4854 7.25122L9.35618 3.60622C9.2149 3.36514 8.95376 3.21976 8.67438 3.2275C8.42919 3.23434 8.20269 3.3583 8.06414 3.56065C4.31426 9.03048 8.52399 16.5588 15.0366 16.4387L21.5345 27.69C21.5787 27.7657 21.6352 27.8331 21.7022 27.8892C20.849 29.3686 19.9913 30.847 19.14 32.3258C19.0384 32.5017 19.0106 32.7109 19.0634 32.9073C19.1163 33.1037 19.2448 33.271 19.4212 33.3726C19.5971 33.4743 19.8063 33.5016 20.0027 33.4492C20.1991 33.3963 20.3664 33.2678 20.468 33.0914C23.8058 27.2917 27.1574 21.4914 30.5131 15.6913C30.6621 15.4343 30.6489 15.1139 30.4793 14.8701C27.5289 10.6431 30.4401 4.94546 35.2623 4.40399C34.7446 5.30135 34.0897 6.43661 33.3605 7.69991C32.3132 9.51424 32.8833 11.8513 34.6503 12.9778V12.9796C35.2213 13.3429 35.8808 13.553 36.5863 13.6099C36.7891 13.6263 36.9896 13.5616 37.1446 13.4299C37.2995 13.2982 37.3957 13.1104 37.4121 12.9081C37.4454 12.487 37.1309 12.1183 36.7103 12.0845C36.2254 12.0454 35.8257 11.9109 35.4721 11.6858C34.3847 10.9908 34.0415 9.58257 34.6864 8.46545C35.6876 6.73093 37.2982 3.94135 37.2982 3.94135C37.4295 3.7144 37.4359 3.4364 37.3146 3.20397C37.193 2.97154 36.9615 2.81704 36.7003 2.79517C30.0666 2.22413 25.6203 9.69688 28.9879 15.2707C28.0627 16.8703 27.1412 18.4704 26.2165 20.0701L21.85 12.5071C25.007 7.28158 21.2961 0.386279 15.3537 0.0152694ZM42.141 5.99097C41.8689 5.99143 41.6178 6.13681 41.4811 6.37197L38.7516 11.0414C38.5383 11.4065 38.6618 11.875 39.0264 12.0883C39.2019 12.1908 39.4115 12.22 39.608 12.168C39.8049 12.1165 39.973 11.9889 40.0756 11.813L42.0854 8.37172C43.9913 12.8212 40.5487 18.1428 35.3997 17.7108C35.1044 17.6866 34.8218 17.8352 34.6741 18.0918L22.7085 38.8135C21.3381 37.0753 19.6144 35.4141 17.4151 34.144C14.686 32.5685 11.7922 31.9027 9.16022 31.7076C6.52827 31.5121 4.15941 31.7864 2.48275 32.0922C2.47682 32.0936 2.4709 32.095 2.46497 32.0963C1.6018 32.2764 0.855282 32.8178 0.415554 33.5815C-0.0242324 34.3445 -0.120858 35.2591 0.153957 36.0959C0.156236 36.1027 0.158059 36.1091 0.159882 36.1159C1.30607 39.3262 3.94616 44.8703 9.40362 48.0209C14.8611 51.1716 20.9826 50.6847 24.335 50.0745C24.3418 50.0732 24.3487 50.0718 24.3551 50.0704C24.9503 49.9451 25.4821 49.6389 25.9041 49.2155C26.296 49.6972 26.8343 50.0431 27.4495 50.1725C27.4563 50.1739 27.4627 50.1753 27.4695 50.1762C30.2928 50.6907 35.4495 51.1059 40.0605 48.4434C44.6726 45.7805 46.8912 41.1083 47.8564 38.4043C47.8591 38.3979 47.8619 38.3911 47.8646 38.3843C48.1061 37.6492 48.0214 36.847 47.6354 36.1771V36.1753C47.2484 35.5058 46.5935 35.0323 45.8366 34.8732C45.8302 34.8719 45.8233 34.8705 45.817 34.8691C44.405 34.6121 42.4108 34.3797 40.1922 34.5442C38.6026 34.6622 36.8981 34.9899 35.2115 35.653L33.12 32.0281C32.9801 31.7861 32.7194 31.6393 32.4401 31.6453C32.3111 31.6476 32.1849 31.6826 32.0732 31.7469C31.8973 31.8485 31.7688 32.0162 31.7164 32.2127C31.6644 32.4086 31.6922 32.6178 31.7938 32.7937L33.8119 36.2911C33.6159 36.3923 33.4195 36.4921 33.2258 36.6042C32.1881 37.2031 31.1686 37.8703 30.3523 38.7713C29.2654 39.9721 27.838 42.203 27.838 42.203C27.6083 42.5576 27.709 43.0315 28.0636 43.2617C28.4181 43.4914 28.8921 43.3907 29.1223 43.0361C29.1223 43.0361 30.5998 40.7802 31.4867 39.8004C32.1266 39.0944 33.0093 38.4969 33.9915 37.93C38.1017 35.556 42.8871 35.8979 45.5258 36.3769C45.8544 36.4476 46.1415 36.6508 46.3092 36.9411C46.4778 37.2333 46.512 37.5815 46.409 37.9C45.5062 40.4249 43.4079 44.7429 39.2948 47.1179C35.1841 49.4909 30.3988 49.1481 27.7605 48.6692C27.7086 48.6578 27.6603 48.6368 27.611 48.6191C27.611 48.6191 31.2488 42.3799 38.8902 40.2949C39.2972 40.1833 39.5374 39.7631 39.4266 39.3556C39.3391 39.0339 39.0538 38.806 38.7207 38.7914C38.6418 38.7887 38.5634 38.7983 38.4873 38.8192C31.8594 40.6281 28.0655 45.2844 26.8017 47.0841C26.8072 46.7428 26.773 46.4001 26.6641 46.0692C26.6622 46.0624 26.6604 46.056 26.6581 46.0491C26.0916 44.4641 25.1579 42.3085 23.7031 40.1532L35.8006 19.2017C42.3131 19.3215 46.5228 11.7927 42.773 6.32253C42.6304 6.11425 42.3938 5.98984 42.1409 5.98984L42.141 5.99097ZM26.4653 27.562C26.1818 27.5525 25.9161 27.7006 25.7753 27.9467L21.6918 35.0927C21.4818 35.4596 21.6084 35.9271 21.9749 36.1377C22.3417 36.3478 22.8093 36.2211 23.0199 35.8547L27.1033 28.7087C27.3134 28.3418 27.1867 27.8742 26.8203 27.6637C26.7118 27.6012 26.5902 27.5666 26.4653 27.562ZM7.24045 33.1808C7.81833 33.1786 8.41625 33.1972 9.02877 33.2424C11.4861 33.4242 14.1677 34.0367 16.6496 35.4696C21.5074 38.2747 24.0135 43.3015 25.1333 46.354C21.1906 42.8513 16.8994 40.2516 12.0371 39.3001C11.9888 39.2905 11.9391 39.286 11.8899 39.286C11.5235 39.286 11.2086 39.5448 11.1379 39.9039C11.0987 40.1036 11.1402 40.31 11.2537 40.4791C11.3672 40.6477 11.5426 40.7644 11.7422 40.8031C16.5339 41.7415 20.8088 44.4318 24.8174 48.1447C24.6059 48.353 24.3403 48.5038 24.044 48.5676C20.8753 49.1423 15.1257 49.5575 10.1685 46.6954C5.21096 43.8329 2.69253 38.6443 1.60878 35.6132C1.47206 35.1907 1.51855 34.73 1.74049 34.3453C1.96289 33.9593 2.3366 33.69 2.77137 33.5975C3.95767 33.3819 5.50588 33.1878 7.23947 33.1809L7.24045 33.1808Z" fill="#006666"/>
<path d="M15.3537 0.0152694C14.9576 -0.00934087 14.552 -0.00432772 14.1373 0.0312204C13.8766 0.0535521 13.6455 0.207589 13.5243 0.439564C13.4035 0.671083 13.409 0.949084 13.5393 1.17559C13.5393 1.17559 15.15 3.96749 16.1512 5.70202C16.7965 6.81949 16.4529 8.22733 15.3637 8.92187C15.01 9.1461 14.6117 9.27962 14.1272 9.31881C13.9249 9.33477 13.7371 9.43093 13.6054 9.58588C13.4737 9.74084 13.409 9.94182 13.4254 10.1442C13.4418 10.347 13.538 10.5347 13.6929 10.666C13.8479 10.7977 14.0484 10.8624 14.2512 10.846C14.9567 10.7891 15.6161 10.5771 16.1872 10.2139C17.9542 9.08732 18.5242 6.75022 17.477 4.93647C16.7474 3.6727 16.0929 2.53564 15.5752 1.63822C20.3974 2.17963 23.3086 7.87736 20.3582 12.1043C20.1877 12.3477 20.174 12.668 20.3221 12.9256L25.333 21.601C24.4078 23.202 23.4835 24.803 22.5594 26.404L16.1631 15.3264C16.015 15.0703 15.7324 14.9231 15.4376 14.9472C10.2886 15.3792 6.84507 10.0557 8.75006 5.6064L10.1637 8.02461C10.3775 8.38875 10.846 8.51134 11.2106 8.29806C11.5752 8.08478 11.6987 7.61626 11.4854 7.25122L9.35618 3.60622C9.2149 3.36514 8.95376 3.21976 8.67438 3.2275C8.42919 3.23434 8.20269 3.3583 8.06414 3.56065C4.31426 9.03048 8.52399 16.5588 15.0366 16.4387L21.5345 27.69C21.5787 27.7657 21.6352 27.8331 21.7022 27.8892C20.849 29.3686 19.9913 30.847 19.14 32.3258C19.0384 32.5017 19.0106 32.7109 19.0634 32.9073C19.1163 33.1037 19.2448 33.271 19.4212 33.3726C19.5971 33.4743 19.8063 33.5016 20.0027 33.4492C20.1991 33.3963 20.3664 33.2678 20.468 33.0914C23.8058 27.2917 27.1574 21.4914 30.5131 15.6913C30.6621 15.4343 30.6489 15.1139 30.4793 14.8701C27.5289 10.6431 30.4401 4.94546 35.2623 4.40399C34.7446 5.30135 34.0897 6.43661 33.3605 7.69991C32.3132 9.51424 32.8833 11.8513 34.6503 12.9778V12.9796C35.2213 13.3429 35.8808 13.553 36.5863 13.6099C36.7891 13.6263 36.9896 13.5616 37.1446 13.4299C37.2995 13.2982 37.3957 13.1104 37.4121 12.9081C37.4454 12.487 37.1309 12.1183 36.7103 12.0845C36.2254 12.0454 35.8257 11.9109 35.4721 11.6858C34.3847 10.9908 34.0415 9.58257 34.6864 8.46545C35.6876 6.73093 37.2982 3.94135 37.2982 3.94135C37.4295 3.7144 37.4359 3.4364 37.3146 3.20397C37.193 2.97154 36.9615 2.81704 36.7003 2.79517C30.0666 2.22413 25.6203 9.69688 28.9879 15.2707C28.0627 16.8703 27.1412 18.4704 26.2165 20.0701L21.85 12.5071C25.007 7.28158 21.2961 0.386279 15.3537 0.0152694ZM42.141 5.99097C41.8689 5.99143 41.6178 6.13681 41.4811 6.37197L38.7516 11.0414C38.5383 11.4065 38.6618 11.875 39.0264 12.0883C39.2019 12.1908 39.4115 12.22 39.608 12.168C39.8049 12.1165 39.973 11.9889 40.0756 11.813L42.0854 8.37172C43.9913 12.8212 40.5487 18.1428 35.3997 17.7108C35.1044 17.6866 34.8218 17.8352 34.6741 18.0918L22.7085 38.8135C21.3381 37.0753 19.6144 35.4141 17.4151 34.144C14.686 32.5685 11.7922 31.9027 9.16022 31.7076C6.52827 31.5121 4.15941 31.7864 2.48275 32.0922C2.47682 32.0936 2.4709 32.095 2.46497 32.0963C1.6018 32.2764 0.855282 32.8178 0.415554 33.5815C-0.0242324 34.3445 -0.120858 35.2591 0.153957 36.0959C0.156236 36.1027 0.158059 36.1091 0.159882 36.1159C1.30607 39.3262 3.94616 44.8703 9.40362 48.0209C14.8611 51.1716 20.9826 50.6847 24.335 50.0745C24.3418 50.0732 24.3487 50.0718 24.3551 50.0704C24.9503 49.9451 25.4821 49.6389 25.9041 49.2155C26.296 49.6972 26.8343 50.0431 27.4495 50.1725C27.4563 50.1739 27.4627 50.1753 27.4695 50.1762C30.2928 50.6907 35.4495 51.1059 40.0605 48.4434C44.6726 45.7805 46.8912 41.1083 47.8564 38.4043C47.8591 38.3979 47.8619 38.3911 47.8646 38.3843C48.1061 37.6492 48.0214 36.847 47.6354 36.1771V36.1753C47.2484 35.5058 46.5935 35.0323 45.8366 34.8732C45.8302 34.8719 45.8233 34.8705 45.817 34.8691C44.405 34.6121 42.4108 34.3797 40.1922 34.5442C38.6026 34.6622 36.8981 34.9899 35.2115 35.653L33.12 32.0281C32.9801 31.7861 32.7194 31.6393 32.4401 31.6453C32.3111 31.6476 32.1849 31.6826 32.0732 31.7469C31.8973 31.8485 31.7688 32.0162 31.7164 32.2127C31.6644 32.4086 31.6922 32.6178 31.7938 32.7937L33.8119 36.2911C33.6159 36.3923 33.4195 36.4921 33.2258 36.6042C32.1881 37.2031 31.1686 37.8703 30.3523 38.7713C29.2654 39.9721 27.838 42.203 27.838 42.203C27.6083 42.5576 27.709 43.0315 28.0636 43.2617C28.4181 43.4914 28.8921 43.3907 29.1223 43.0361C29.1223 43.0361 30.5998 40.7802 31.4867 39.8004C32.1266 39.0944 33.0093 38.4969 33.9915 37.93C38.1017 35.556 42.8871 35.8979 45.5258 36.3769C45.8544 36.4476 46.1415 36.6508 46.3092 36.9411C46.4778 37.2333 46.512 37.5815 46.409 37.9C45.5062 40.4249 43.4079 44.7429 39.2948 47.1179C35.1841 49.4909 30.3988 49.1481 27.7605 48.6692C27.7086 48.6578 27.6603 48.6368 27.611 48.6191C27.611 48.6191 31.2488 42.3799 38.8902 40.2949C39.2972 40.1833 39.5374 39.7631 39.4266 39.3556C39.3391 39.0339 39.0538 38.806 38.7207 38.7914C38.6418 38.7887 38.5634 38.7983 38.4873 38.8192C31.8594 40.6281 28.0655 45.2844 26.8017 47.0841C26.8072 46.7428 26.773 46.4001 26.6641 46.0692C26.6622 46.0624 26.6604 46.056 26.6581 46.0491C26.0916 44.4641 25.1579 42.3085 23.7031 40.1532L35.8006 19.2017C42.3131 19.3215 46.5228 11.7927 42.773 6.32253C42.6304 6.11425 42.3938 5.98984 42.1409 5.98984L42.141 5.99097ZM26.4653 27.562C26.1818 27.5525 25.9161 27.7006 25.7753 27.9467L21.6918 35.0927C21.4818 35.4596 21.6084 35.9271 21.9749 36.1377C22.3417 36.3478 22.8093 36.2211 23.0199 35.8547L27.1033 28.7087C27.3134 28.3418 27.1867 27.8742 26.8203 27.6637C26.7118 27.6012 26.5902 27.5666 26.4653 27.562ZM7.24045 33.1808C7.81833 33.1786 8.41625 33.1972 9.02877 33.2424C11.4861 33.4242 14.1677 34.0367 16.6496 35.4696C21.5074 38.2747 24.0135 43.3015 25.1333 46.354C21.1906 42.8513 16.8994 40.2516 12.0371 39.3001C11.9888 39.2905 11.9391 39.286 11.8899 39.286C11.5235 39.286 11.2086 39.5448 11.1379 39.9039C11.0987 40.1036 11.1402 40.31 11.2537 40.4791C11.3672 40.6477 11.5426 40.7644 11.7422 40.8031C16.5339 41.7415 20.8088 44.4318 24.8174 48.1447C24.6059 48.353 24.3403 48.5038 24.044 48.5676C20.8753 49.1423 15.1257 49.5575 10.1685 46.6954C5.21096 43.8329 2.69253 38.6443 1.60878 35.6132C1.47206 35.1907 1.51855 34.73 1.74049 34.3453C1.96289 33.9593 2.3366 33.69 2.77137 33.5975C3.95767 33.3819 5.50588 33.1878 7.23947 33.1809L7.24045 33.1808Z" fill="#006666"/>
<path d="M15.4399 0.0152694C15.0438 -0.00934087 14.6382 -0.00432772 14.2235 0.0312204C13.9628 0.0535521 13.7317 0.207589 13.6105 0.439564C13.4897 0.671083 13.4952 0.949084 13.6256 1.17559C13.6256 1.17559 15.2362 3.96749 16.2374 5.70202C16.8828 6.81949 16.5391 8.22733 15.4499 8.92187C15.0963 9.1461 14.6979 9.27963 14.2135 9.31882C14.0111 9.33477 13.8233 9.43093 13.6916 9.58588C13.5599 9.74084 13.4952 9.94182 13.5116 10.1442C13.528 10.347 13.6242 10.5347 13.7791 10.666C13.9341 10.7977 14.1346 10.8624 14.3374 10.846C15.0429 10.7891 15.7023 10.5771 16.2734 10.2139C18.0404 9.08732 18.6104 6.75022 17.5632 4.93647C16.8336 3.6727 16.1792 2.53564 15.6614 1.63822C20.4836 2.17963 23.3948 7.87736 20.4444 12.1043C20.2739 12.3477 20.2603 12.6681 20.4084 12.9256L25.4192 21.601C24.4941 23.202 23.5698 24.803 22.6456 26.404L16.2493 15.3264C16.1012 15.0703 15.8187 14.9231 15.5238 14.9472C10.3748 15.3792 6.93129 10.0557 8.83628 5.6064L10.25 8.02461C10.4637 8.38875 10.9322 8.51134 11.2968 8.29806C11.6614 8.08478 11.7849 7.61627 11.5716 7.25122L9.4424 3.60622C9.30112 3.36514 9.03998 3.21976 8.7606 3.2275C8.51541 3.23434 8.28891 3.3583 8.15036 3.56065C4.40048 9.03048 8.6102 16.5588 15.1228 16.4387L21.6207 27.69C21.6649 27.7657 21.7214 27.8331 21.7884 27.8892C20.9353 29.3686 20.0776 30.847 19.2262 32.3258C19.1246 32.5017 19.0968 32.7109 19.1497 32.9073C19.2025 33.1038 19.331 33.271 19.5074 33.3726C19.6833 33.4743 19.8925 33.5016 20.0889 33.4492C20.2854 33.3963 20.4526 33.2678 20.5543 33.0914C23.8921 27.2917 27.2436 21.4914 30.5993 15.6913C30.7483 15.4343 30.7351 15.1139 30.5656 14.8701C27.6151 10.6431 30.5264 4.94546 35.3485 4.40399C34.8308 5.30135 34.1759 6.43661 33.4467 7.69991C32.3994 9.51424 32.9696 11.8513 34.7365 12.9778V12.9796C35.3075 13.3429 35.967 13.553 36.6725 13.6099C36.8753 13.6263 37.0758 13.5616 37.2308 13.4299C37.3858 13.2982 37.4819 13.1104 37.4983 12.9081C37.5316 12.487 37.2171 12.1183 36.7965 12.0845C36.3116 12.0454 35.9119 11.9109 35.5583 11.6858C34.4709 10.9908 34.1277 9.58257 34.7726 8.46545C35.7738 6.73093 37.3845 3.94135 37.3845 3.94135C37.5157 3.7144 37.5221 3.4364 37.4009 3.20397C37.2792 2.97154 37.0477 2.81704 36.7865 2.79517C30.1528 2.22413 25.7065 9.69688 29.0741 15.2707C28.1489 16.8703 27.2274 18.4704 26.3027 20.0701L21.9362 12.5071C25.0932 7.28158 21.3823 0.386279 15.4399 0.0152694ZM26.5515 27.562C26.268 27.5525 26.0023 27.7006 25.8615 27.9467L21.7781 35.0927C21.568 35.4596 21.6947 35.9272 22.0611 36.1377C22.4279 36.3478 22.8955 36.2211 23.1061 35.8547L27.1895 28.7087C27.3996 28.3418 27.2729 27.8742 26.9065 27.6637C26.798 27.6012 26.6764 27.5666 26.5515 27.562Z" fill="#006666"/>
<path d="M15.4399 0.0152694C15.0438 -0.00934087 14.6382 -0.00432772 14.2235 0.0312204C13.9628 0.0535521 13.7317 0.207589 13.6105 0.439564C13.4897 0.671083 13.4952 0.949084 13.6256 1.17559C13.6256 1.17559 15.2362 3.96749 16.2374 5.70202C16.8828 6.81949 16.5391 8.22733 15.4499 8.92187C15.0963 9.1461 14.6979 9.27963 14.2135 9.31882C14.0111 9.33477 13.8233 9.43093 13.6916 9.58588C13.5599 9.74084 13.4952 9.94182 13.5116 10.1442C13.528 10.347 13.6242 10.5347 13.7791 10.666C13.9341 10.7977 14.1346 10.8624 14.3374 10.846C15.0429 10.7891 15.7023 10.5771 16.2734 10.2139C18.0404 9.08732 18.6104 6.75022 17.5632 4.93647C16.8336 3.6727 16.1792 2.53564 15.6614 1.63822C20.4836 2.17963 23.3948 7.87736 20.4444 12.1043C20.2739 12.3477 20.2603 12.6681 20.4084 12.9256L25.4192 21.601C24.4941 23.202 23.5698 24.803 22.6456 26.404L16.2493 15.3264C16.1012 15.0703 15.8187 14.9231 15.5238 14.9472C10.3748 15.3792 6.93129 10.0557 8.83628 5.6064L10.25 8.02461C10.4637 8.38875 10.9322 8.51134 11.2968 8.29806C11.6614 8.08478 11.7849 7.61627 11.5716 7.25122L9.4424 3.60622C9.30112 3.36514 9.03998 3.21976 8.7606 3.2275C8.51541 3.23434 8.28891 3.3583 8.15036 3.56065C4.40048 9.03048 8.6102 16.5588 15.1228 16.4387L21.6207 27.69C21.6649 27.7657 21.7214 27.8331 21.7884 27.8892C20.9353 29.3686 20.0776 30.847 19.2262 32.3258C19.1246 32.5017 19.0968 32.7109 19.1497 32.9073C19.2025 33.1038 19.331 33.271 19.5074 33.3726C19.6833 33.4743 19.8925 33.5016 20.0889 33.4492C20.2854 33.3963 20.4526 33.2678 20.5543 33.0914C23.8921 27.2917 27.2436 21.4914 30.5993 15.6913C30.7483 15.4343 30.7351 15.1139 30.5656 14.8701C27.6151 10.6431 30.5264 4.94546 35.3485 4.40399C34.8308 5.30135 34.1759 6.43661 33.4467 7.69991C32.3994 9.51424 32.9696 11.8513 34.7365 12.9778V12.9796C35.3075 13.3429 35.967 13.553 36.6725 13.6099C36.8753 13.6263 37.0758 13.5616 37.2308 13.4299C37.3858 13.2982 37.4819 13.1104 37.4983 12.9081C37.5316 12.487 37.2171 12.1183 36.7965 12.0845C36.3116 12.0454 35.9119 11.9109 35.5583 11.6858C34.4709 10.9908 34.1277 9.58257 34.7726 8.46545C35.7738 6.73093 37.3845 3.94135 37.3845 3.94135C37.5157 3.7144 37.5221 3.4364 37.4009 3.20397C37.2792 2.97154 37.0477 2.81704 36.7865 2.79517C30.1528 2.22413 25.7065 9.69688 29.0741 15.2707C28.1489 16.8703 27.2274 18.4704 26.3027 20.0701L21.9362 12.5071C25.0932 7.28158 21.3823 0.386279 15.4399 0.0152694ZM26.5515 27.562C26.268 27.5525 26.0023 27.7006 25.8615 27.9467L21.7781 35.0927C21.568 35.4596 21.6947 35.9272 22.0611 36.1377C22.4279 36.3478 22.8955 36.2211 23.1061 35.8547L27.1895 28.7087C27.3996 28.3418 27.2729 27.8742 26.9065 27.6637C26.798 27.6012 26.6764 27.5666 26.5515 27.562Z" fill="#006666"/>
<path d="M15.4399 0.0152694C15.0438 -0.00934087 14.6382 -0.00432772 14.2235 0.0312204C13.9628 0.0535521 13.7317 0.207589 13.6105 0.439564C13.4897 0.671083 13.4952 0.949084 13.6256 1.17559C13.6256 1.17559 15.2362 3.96749 16.2374 5.70202C16.8828 6.81949 16.5391 8.22733 15.4499 8.92187C15.0963 9.1461 14.6979 9.27963 14.2135 9.31882C14.0111 9.33477 13.8233 9.43093 13.6916 9.58588C13.5599 9.74084 13.4952 9.94182 13.5116 10.1442C13.528 10.347 13.6242 10.5347 13.7791 10.666C13.9341 10.7977 14.1346 10.8624 14.3374 10.846C15.0429 10.7891 15.7023 10.5771 16.2734 10.2139C18.0404 9.08732 18.6104 6.75022 17.5632 4.93647C16.8336 3.6727 16.1792 2.53564 15.6614 1.63822C20.4836 2.17963 23.3948 7.87736 20.4444 12.1043C20.2739 12.3477 20.2603 12.6681 20.4084 12.9256L25.4192 21.601C24.4941 23.202 23.5698 24.803 22.6456 26.404L16.2493 15.3264C16.1012 15.0703 15.8187 14.9231 15.5238 14.9472C10.3748 15.3792 6.93129 10.0557 8.83628 5.6064L10.25 8.02461C10.4637 8.38875 10.9322 8.51134 11.2968 8.29806C11.6614 8.08478 11.7849 7.61627 11.5716 7.25122L9.4424 3.60622C9.30112 3.36514 9.03998 3.21976 8.7606 3.2275C8.51541 3.23434 8.28891 3.3583 8.15036 3.56065C4.40048 9.03048 8.6102 16.5588 15.1228 16.4387L21.6207 27.69C21.6649 27.7657 21.7214 27.8331 21.7884 27.8892C20.9353 29.3686 20.0776 30.847 19.2262 32.3258C19.1246 32.5017 19.0968 32.7109 19.1497 32.9073C19.2025 33.1038 19.331 33.271 19.5074 33.3726C19.6833 33.4743 19.8925 33.5016 20.0889 33.4492C20.2854 33.3963 20.4526 33.2678 20.5543 33.0914C23.8921 27.2917 27.2436 21.4914 30.5993 15.6913C30.7483 15.4343 30.7351 15.1139 30.5656 14.8701C27.6151 10.6431 30.5264 4.94546 35.3485 4.40399C34.8308 5.30135 34.1759 6.43661 33.4467 7.69991C32.3994 9.51424 32.9696 11.8513 34.7365 12.9778V12.9796C35.3075 13.3429 35.967 13.553 36.6725 13.6099C36.8753 13.6263 37.0758 13.5616 37.2308 13.4299C37.3858 13.2982 37.4819 13.1104 37.4983 12.9081C37.5316 12.487 37.2171 12.1183 36.7965 12.0845C36.3116 12.0454 35.9119 11.9109 35.5583 11.6858C34.4709 10.9908 34.1277 9.58257 34.7726 8.46545C35.7738 6.73093 37.3845 3.94135 37.3845 3.94135C37.5157 3.7144 37.5221 3.4364 37.4009 3.20397C37.2792 2.97154 37.0477 2.81704 36.7865 2.79517C30.1528 2.22413 25.7065 9.69688 29.0741 15.2707C28.1489 16.8703 27.2274 18.4704 26.3027 20.0701L21.9362 12.5071C25.0932 7.28158 21.3823 0.386279 15.4399 0.0152694ZM26.5515 27.562C26.268 27.5525 26.0023 27.7006 25.8615 27.9467L21.7781 35.0927C21.568 35.4596 21.6947 35.9272 22.0611 36.1377C22.4279 36.3478 22.8955 36.2211 23.1061 35.8547L27.1895 28.7087C27.3996 28.3418 27.2729 27.8742 26.9065 27.6637C26.798 27.6012 26.6764 27.5666 26.5515 27.562Z" fill="#D1A370"/>
</svg>
