<svg width="24" height="25" viewBox="0 0 24 25" fill="none" xmlns="http://www.w3.org/2000/svg">
<path d="M20 8.72656C17.792 8.72656 16 6.93456 16 4.72656C16 2.51856 17.792 0.726562 20 0.726562C22.208 0.726562 24 2.51856 24 4.72656C24 6.93456 22.208 8.72656 20 8.72656ZM20 2.32656C18.6773 2.32656 17.6 3.4039 17.6 4.72656C17.6 6.04923 18.6773 7.12656 20 7.12656C21.3227 7.12656 22.4 6.04923 22.4 4.72656C22.4 3.4039 21.3227 2.32656 20 2.32656Z" fill="#006666"/>
<path d="M12.1923 14.7266H6.80769C6.36615 14.7266 6 14.2732 6 13.7266C6 13.1799 6.36615 12.7266 6.80769 12.7266H12.1923C12.6338 12.7266 13 13.1799 13 13.7266C13 14.2732 12.6338 14.7266 12.1923 14.7266Z" fill="#006666"/>
<path d="M16.2143 19.7266H6.78571C6.35619 19.7266 6 19.2732 6 18.7266C6 18.1799 6.35619 17.7266 6.78571 17.7266H16.2143C16.6438 17.7266 17 18.1799 17 18.7266C17 19.2732 16.6438 19.7266 16.2143 19.7266Z" fill="#006666"/>
<path d="M15.3488 24.7266H8.65116C2.58977 24.7266 0 22.1368 0 16.0754V9.37773C0 3.31633 2.58977 0.726562 8.65116 0.726562H14.2326C14.6902 0.726562 15.0698 1.1061 15.0698 1.56377C15.0698 2.02145 14.6902 2.40098 14.2326 2.40098H8.65116C3.50512 2.40098 1.67442 4.23168 1.67442 9.37773V16.0754C1.67442 21.2214 3.50512 23.0521 8.65116 23.0521H15.3488C20.4949 23.0521 22.3256 21.2214 22.3256 16.0754V10.494C22.3256 10.0363 22.7051 9.6568 23.1628 9.6568C23.6205 9.6568 24 10.0363 24 10.494V16.0754C24 22.1368 21.4102 24.7266 15.3488 24.7266Z" fill="#006666"/>
</svg>
