<svg width="22" height="22" viewBox="0 0 22 22" fill="none" xmlns="http://www.w3.org/2000/svg">
<path d="M3.44047 2.61332L3.66147 2.83432C3.88247 3.04965 3.88247 3.41232 3.66147 3.62765L3.6558 3.63332C3.4348 3.85432 3.08347 3.85432 2.86247 3.63332L2.64147 3.41232C2.42047 3.19699 2.42047 2.83999 2.64147 2.61899L2.64714 2.61332C2.86247 2.39799 3.21947 2.39232 3.44047 2.61332Z" fill="#D1A370"/>
<path d="M1.3608 6.43832H1.9388C2.25047 6.43832 2.4998 6.68765 2.4998 7.00499V7.01065C2.4998 7.32232 2.25047 7.57165 1.93314 7.56599H1.3608C1.04914 7.56599 0.799805 7.31665 0.799805 7.00499V6.99932C0.799805 6.68765 1.04914 6.43832 1.3608 6.43832Z" fill="#D1A370"/>
<path d="M7.03314 0.799988H7.0388C7.35047 0.799988 7.5998 1.04932 7.5998 1.36099V1.91065C7.5998 2.22232 7.35047 2.47165 7.03314 2.46599H7.02747C6.7158 2.46599 6.46647 2.21665 6.46647 1.90499V1.36099C6.46647 1.04932 6.7158 0.799988 7.03314 0.799988Z" fill="#D1A370"/>
<path d="M10.6258 2.61332C10.8468 2.39799 11.2038 2.39799 11.4248 2.61899C11.6458 2.83999 11.6458 3.19132 11.4248 3.41232L11.2038 3.63332C10.9885 3.85432 10.6315 3.85432 10.4105 3.63332L10.4048 3.62765C10.1838 3.41232 10.1838 3.05532 10.4048 2.83432L10.6258 2.61332Z" fill="#D1A370"/>
<path d="M3.63314 7.00499C3.63314 5.12932 5.15747 3.60499 7.03314 3.60499C8.32059 3.60499 9.44252 4.32317 10.0196 5.38018C9.36163 5.96521 8.87001 6.73323 8.62454 7.6044C8.56666 7.60147 8.50841 7.59999 8.4498 7.59999C6.96068 7.59999 5.69515 8.55731 5.23508 9.8901C4.27361 9.28899 3.63314 8.2208 3.63314 7.00499Z" fill="#D1A370"/>
<path d="M3.44047 11.391C3.21947 11.612 2.86247 11.612 2.64147 11.391C2.42047 11.17 2.42047 10.8187 2.6358 10.592L2.8568 10.371C3.0778 10.15 3.4348 10.15 3.6558 10.371L3.66147 10.3767C3.8768 10.592 3.88247 10.949 3.66147 11.17L3.44047 11.391Z" fill="#D1A370"/>
<path d="M17.7998 16.95H6.7498C5.34148 16.95 4.1998 15.8083 4.1998 14.4C4.1998 13.2886 4.91082 12.3432 5.9028 11.994C5.90081 11.9463 5.8998 11.8982 5.8998 11.85C5.8998 9.97222 7.42204 8.44999 9.2998 8.44999C9.35841 8.44999 9.41666 8.45147 9.47454 8.4544C10.0281 6.48991 11.8333 5.04999 13.9748 5.04999C16.5567 5.04999 18.6498 7.14306 18.6498 9.72499C18.6498 9.90239 18.6399 10.0775 18.6207 10.2497C20.1019 10.617 21.1998 11.9553 21.1998 13.55C21.1998 15.4278 19.6776 16.95 17.7998 16.95Z" fill="#006666"/>
<path d="M7.10221 17.8C6.88623 17.8 6.68879 17.922 6.59221 18.1152L5.4624 20.3748C5.27284 20.7539 5.54853 21.2 5.9724 21.2C6.18838 21.2 6.38582 21.078 6.4824 20.8848L7.61221 18.6252C7.80177 18.2461 7.52608 17.8 7.10221 17.8Z" fill="#006666"/>
<path d="M9.65221 17.8C9.43623 17.8 9.23879 17.922 9.14221 18.1152L8.0124 20.3748C7.82284 20.7539 8.09853 21.2 8.5224 21.2C8.73838 21.2 8.93582 21.078 9.0324 20.8848L10.1622 18.6252C10.3518 18.2461 10.0761 17.8 9.65221 17.8Z" fill="#006666"/>
<path d="M14.7522 17.8C15.1761 17.8 15.4518 18.2461 15.2622 18.6252L14.1324 20.8848C14.0358 21.078 13.8384 21.2 13.6224 21.2C13.1985 21.2 12.9228 20.7539 13.1124 20.3748L14.2422 18.1152C14.3388 17.922 14.5362 17.8 14.7522 17.8Z" fill="#006666"/>
<path d="M17.3022 17.8C17.0862 17.8 16.8888 17.922 16.7922 18.1152L15.6624 20.3748C15.4728 20.7539 15.7485 21.2 16.1724 21.2C16.3884 21.2 16.5858 21.078 16.6824 20.8848L17.8122 18.6252C18.0018 18.2461 17.7261 17.8 17.3022 17.8Z" fill="#006666"/>
<path d="M12.2022 17.8C12.6261 17.8 12.9018 18.2461 12.7122 18.6252L11.5824 20.8848C11.4858 21.078 11.2884 21.2 11.0724 21.2C10.6485 21.2 10.3728 20.7539 10.5624 20.3748L11.6922 18.1152C11.7888 17.922 11.9862 17.8 12.2022 17.8Z" fill="#006666"/>
</svg>
